<?xml version="1.0" encoding="UTF-8"?>
<svg width="20px" height="20px" viewBox="0 0 20 20" version="1.1" xmlns="http://www.w3.org/2000/svg" xmlns:xlink="http://www.w3.org/1999/xlink">
    <!-- Generator: Sketch 56.2 (81672) - https://sketch.com -->
    <title>add-20px</title>
    <desc>Created with Sketch.</desc>
    <defs>
        <path d="M18.75,8.75 L11.25,8.75 L11.25,1.25 C11.25,0.5 10.75,0 10,0 C9.25,0 8.75,0.5 8.75,1.25 L8.75,8.75 L1.25,8.75 C0.5,8.75 0,9.25 0,10 C0,10.75 0.5,11.25 1.25,11.25 L8.75,11.25 L8.75,18.75 C8.75,19.5 9.25,20 10,20 C10.75,20 11.25,19.5 11.25,18.75 L11.25,11.25 L18.75,11.25 C19.5,11.25 20,10.75 20,10 C20,9.25 19.5,8.75 18.75,8.75 Z" id="path-1"></path>
    </defs>
    <g id="Solo-Icons-Final" stroke="none" stroke-width="1" fill="none" fill-rule="evenodd">
        <g id="All-Nucleo-Icons" transform="translate(-463.000000, -150.000000)">
            <g id="Solo/Nucleo/20px/add" transform="translate(463.000000, 150.000000)">
                <g id="e-add">
                    <g>
                        <g id="Colour/Default-Colour">
                            <mask id="mask-2" fill="white">
                                <use xlink:href="#path-1"></use>
                            </mask>
                            <g id="Mask" fill-rule="nonzero"></g>
                            <g id="Colour/Vault-Text-Grey-(Default)" mask="url(#mask-2)" fill="#555555">
                                <g transform="translate(-22.000000, -22.000000)" id="Colour">
                                    <rect x="0" y="0" width="64" height="64"></rect>
                                </g>
                            </g>
                        </g>
                    </g>
                </g>
            </g>
        </g>
    </g>
</svg>