<?xml version="1.0" encoding="UTF-8"?>
<svg width="11px" height="16px" viewBox="0 0 11 16" version="1.1" xmlns="http://www.w3.org/2000/svg" xmlns:xlink="http://www.w3.org/1999/xlink">
    <!-- Generator: Sketch 56.2 (81672) - https://sketch.com -->
    <title>battery-full-16px</title>
    <desc>Created with Sketch.</desc>
    <defs>
        <path d="M10.3125,2.66666667 L0.6875,2.66666667 C0.307804234,2.66666667 0,2.9651435 0,3.33333333 L0,15.3333333 C0,15.7015232 0.307804234,16 0.6875,16 L10.3125,16 C10.6921958,16 11,15.7015232 11,15.3333333 L11,3.33333333 C11,2.9651435 10.6921958,2.66666667 10.3125,2.66666667 Z M8.25,13.6666667 L2.75,13.6666667 L2.75,12.3333333 L8.25,12.3333333 L8.25,13.6666667 Z M8.25,11.3333333 L2.75,11.3333333 L2.75,10 L8.25,10 L8.25,11.3333333 Z M8.25,9 L2.75,9 L2.75,7.66666667 L8.25,7.66666667 L8.25,9 Z M8.25,6.66666667 L2.75,6.66666667 L2.75,5.33333333 L8.25,5.33333333 L8.25,6.66666667 Z M2.75,0 L8.25,0 L8.25,1.33333333 L2.75,1.33333333 L2.75,0 Z" id="path-1"></path>
    </defs>
    <g id="Solo-Icons-Final" stroke="none" stroke-width="1" fill="none" fill-rule="evenodd">
        <g id="All-Nucleo-Icons" transform="translate(-320.000000, -408.000000)">
            <g id="Solo/Nucleo/16px/battery-full" transform="translate(320.000000, 408.000000)">
                <g id="battery-full">
                    <g id="Colour/Default-Colour">
                        <mask id="mask-2" fill="white">
                            <use xlink:href="#path-1"></use>
                        </mask>
                        <g id="Mask" fill-rule="nonzero"></g>
                        <g id="Colour/Vault-Text-Grey-(Default)" mask="url(#mask-2)" fill="#555555">
                            <g transform="translate(-26.000000, -24.000000)" id="Colour">
                                <rect x="0" y="0" width="64" height="64"></rect>
                            </g>
                        </g>
                    </g>
                </g>
            </g>
        </g>
    </g>
</svg>