<?xml version="1.0" encoding="UTF-8"?>
<svg width="16px" height="9px" viewBox="0 0 16 9" version="1.1" xmlns="http://www.w3.org/2000/svg" xmlns:xlink="http://www.w3.org/1999/xlink">
    <!-- Generator: Sketch 56.2 (81672) - https://sketch.com -->
    <title>car-collision-16px</title>
    <desc>Created with Sketch.</desc>
    <defs>
        <path d="M9.1483,2.39882 L10.3843,0.75082 C10.4393,0.67782 10.5343,0.64882 10.6213,0.67682 L14.8923,2.07882 C14.9793,2.10682 15.0383,2.18782 15.0393,2.27782 L15.0583,4.33882 L9.1483,2.39882 Z M15.0183,6.08982 C14.9463,6.30982 14.7063,6.42882 14.4833,6.35482 C14.2603,6.28182 14.1373,6.04382 14.2093,5.82382 C14.2813,5.60482 14.5213,5.48582 14.7443,5.55882 C14.9683,5.63182 15.0903,5.86982 15.0183,6.08982 L15.0183,6.08982 Z M7.5301,3.03952 L7.9121,4.16752 L7.9211,4.16752 L7.5361,3.03052 C7.53410032,3.03351951 7.53210065,3.03651903 7.53010097,3.03951854 L8.0613,4.60512 L8.7523,5.28512 C8.8723,5.40312 8.9393,5.56312 8.9393,5.73012 L8.9393,7.44212 L0.0003,7.44212 L0.0003,5.72912 C0.0003,5.56312 0.0673,5.40312 0.1873,5.28512 L0.8783,4.60512 L1.6173,2.42412 C1.7043,2.16812 1.9483,1.99512 2.2223,1.99412 L6.7173,1.99412 C6.9913,1.99512 7.2343,2.16812 7.3213,2.42412 L7.53010097,3.03951854 Z M15.9303,5.44182 C16.0073,5.59182 16.0213,5.76482 15.9693,5.92282 L15.4353,7.54982 L9.2803,5.52982 L9.2803,5.38882 C9.2803,5.22182 9.2133,5.06182 9.0933,4.94382 L8.5163,4.37682 C8.7073,4.39182 8.8903,4.28582 8.9513,4.09882 C9.0233,3.87882 8.9013,3.64082 8.6773,3.56782 C8.5023,3.50982 8.3203,3.57382 8.2133,3.70882 L7.8813,2.72682 L8.6613,2.33982 L10.0433,0.49882 C10.2063,0.28282 10.4913,0.19382 10.7523,0.27882 L15.0223,1.68082 C15.2833,1.76682 15.4603,2.00682 15.4633,2.27782 L15.4853,4.57982 L15.9303,5.44182 Z M9.2386,0.44722 L8.1686,1.81922 L8.6886,0.13122 C8.7056,0.04822 8.7746,0.00022 8.8226,0.00022 C8.8406,0.00022 8.8546,0.01622 8.8886,0.03122 L9.1536,0.16622 L9.2536,0.21422 C9.3416,0.26822 9.3236,0.34722 9.2386,0.44722 Z M6.9149,0.21382 L7.0149,0.16582 L7.2789,0.03082 C7.3129,0.01682 7.3289,-0.00018 7.3449,-0.00018 C7.3939,-0.00018 7.4619,0.04782 7.4789,0.13082 L7.9999,1.81882 L6.9299,0.44682 C6.8449,0.34682 6.8279,0.26782 6.9149,0.21382 Z M13.2825,7.28412 L15.3045,7.94812 L15.1085,8.54512 C15.0725,8.65512 14.9525,8.71412 14.8415,8.67812 L13.2235,8.14712 C13.1115,8.11012 13.0505,7.99112 13.0865,7.88112 L13.2825,7.28412 Z M2.0203,2.55612 L1.3593,4.50912 L7.5803,4.50912 L6.9193,2.55612 C6.8903,2.47112 6.8083,2.41312 6.7173,2.41312 L2.2223,2.41312 C2.1303,2.41312 2.0493,2.47112 2.0203,2.55612 Z M1.2773,6.60412 C1.5123,6.60412 1.7033,6.41612 1.7033,6.18412 C1.7033,5.95312 1.5123,5.76512 1.2773,5.76512 C1.0423,5.76512 0.8513,5.95312 0.8513,6.18412 C0.8513,6.41612 1.0423,6.60412 1.2773,6.60412 Z M7.6623,6.60412 C7.8973,6.60412 8.0873,6.41612 8.0873,6.18412 C8.0873,5.95312 7.8973,5.76512 7.6623,5.76512 C7.4273,5.76512 7.2363,5.95312 7.2363,6.18412 C7.2363,6.41612 7.4273,6.60412 7.6623,6.60412 Z M6.8109,7.86072 L8.9389,7.86072 L8.9389,8.48872 C8.9389,8.60472 8.8439,8.69872 8.7269,8.69872 L7.0239,8.69872 C6.9059,8.69872 6.8109,8.60472 6.8109,8.48872 L6.8109,7.86072 Z M-0.0002,7.86072 L2.1278,7.86072 L2.1278,8.48872 C2.1278,8.60472 2.0328,8.69872 1.9158,8.69872 L0.2128,8.69872 C0.0958,8.69872 -0.0002,8.60472 -0.0002,8.48872 L-0.0002,7.86072 Z" id="path-1"></path>
    </defs>
    <g id="Solo-Icons-Final" stroke="none" stroke-width="1" fill="none" fill-rule="evenodd">
        <g id="All-Nucleo-Icons" transform="translate(-318.000000, -925.000000)">
            <g id="Solo/Nucleo/16px/car-collision" transform="translate(318.000000, 924.000000)">
                <g id="collision">
                    <g id="Group-15" transform="translate(0.000000, 0.698820)">
                        <g id="Colour/Default-Colour" transform="translate(0.000000, 0.301180)">
                            <mask id="mask-2" fill="white">
                                <use xlink:href="#path-1"></use>
                            </mask>
                            <g id="Mask"></g>
                            <g id="Colour/Vault-Text-Grey-(Default)" mask="url(#mask-2)" fill="#555555">
                                <g transform="translate(-24.000000, -28.000000)" id="Colour">
                                    <rect x="0" y="0" width="64" height="64"></rect>
                                </g>
                            </g>
                        </g>
                    </g>
                </g>
            </g>
        </g>
    </g>
</svg>