<?xml version="1.0" encoding="UTF-8"?>
<svg width="24px" height="14px" viewBox="0 0 24 14" version="1.1" xmlns="http://www.w3.org/2000/svg" xmlns:xlink="http://www.w3.org/1999/xlink">
    <!-- Generator: Sketch 56.2 (81672) - https://sketch.com -->
    <title>car-collision-24px</title>
    <desc>Created with Sketch.</desc>
    <defs>
        <path d="M14.1663,1.6176 L12.5603,3.6756 L13.5883,1.2746 C13.6143,1.1496 13.7163,1.0776 13.7893,1.0776 C13.8153,1.0776 13.8373,1.1026 13.8883,1.1246 L14.0383,1.1966 L14.1883,1.2676 C14.3193,1.3486 14.2933,1.4676 14.1663,1.6176 Z M10.2161,12.7382 L13.4091,12.7382 L13.4091,13.6812 C13.4091,13.8552 13.2661,13.9952 13.0901,13.9952 L10.5351,13.9952 C10.3591,13.9952 10.2161,13.8552 10.2161,13.6812 L10.2161,12.7382 Z M19.9237,11.8734 L22.9567,12.8694 L22.6627,13.7644 C22.6087,13.9294 22.4287,14.0184 22.2617,13.9634 L19.8347,13.1674 C19.6677,13.1124 19.5757,12.9344 19.6297,12.7694 L19.9237,11.8734 Z M13.722,4.5458 L22.587,7.4558 L22.558,4.3648 C22.557,4.2288 22.468,4.1088 22.338,4.0658 L15.932,1.9628 C15.801,1.9208 15.658,1.9648 15.577,2.0728 L13.722,4.5458 Z M22.528,10.0818 C22.636,9.7518 22.452,9.3958 22.117,9.2858 C21.782,9.1758 21.422,9.3538 21.314,9.6838 C21.206,10.0138 21.39,10.3698 21.725,10.4798 C22.06,10.5898 22.419,10.4118 22.528,10.0818 Z M23.895,9.1108 C24.011,9.3348 24.032,9.5938 23.953,9.8318 L23.153,12.2718 L13.921,9.2418 L13.921,9.0298 C13.921,8.7798 13.82,8.5398 13.64,8.3628 L12.775,7.5118 C13.061,7.5348 13.335,7.3758 13.427,7.0948 C13.535,6.7658 13.352,6.4088 13.016,6.2988 C12.754,6.2128 12.481,6.3078 12.321,6.5098 L11.822,5.0378 L12.991,4.4578 L15.065,1.6958 C15.308,1.3708 15.737,1.2388 16.128,1.3658 L22.534,3.4688 C22.925,3.5978 23.191,3.9578 23.195,4.3638 L23.228,7.8168 L23.895,9.1108 Z M11.4368,3.8944 L9.8338,1.8334 C9.7098,1.6864 9.6808,1.5614 9.8088,1.4894 L9.9368,1.3934 L10.0868,1.3214 C10.1088,1.3214 10.1088,1.2954 10.1348,1.2954 L10.2078,1.2954 C10.2808,1.2954 10.3608,1.3684 10.4088,1.4924 L11.4368,3.8944 Z M11.9891,3.8725 L11.5361,0.4155 C11.4881,0.1465 11.5611,-0.0005 11.7371,-0.0005 L12.0111,-0.0005 L12.2381,-0.0005 C12.4141,-0.0005 12.4871,0.1715 12.4391,0.4155 L11.9891,3.8725 Z M-0.0002,12.7382 L3.1928,12.7382 L3.1928,13.6812 C3.1928,13.8552 3.0498,13.9952 2.8738,13.9952 L0.3188,13.9952 C0.1428,13.9952 -0.0002,13.8552 -0.0002,13.6812 L-0.0002,12.7382 Z M13.1283,8.8749 C13.3083,9.0519 13.4093,9.2919 13.4093,9.5419 L13.4093,12.1099 L0.0003,12.1099 L0.0003,9.5419 C0.0003,9.2919 0.1013,9.0519 0.2803,8.8749 L1.3173,7.8539 L2.4263,4.5829 C2.5563,4.1989 2.9213,3.9389 3.3333,3.9389 L10.0753,3.9389 C10.4873,3.9389 10.8523,4.1989 10.9823,4.5829 L12.0913,7.8539 L13.1283,8.8749 Z M3.0303,4.7819 L2.0393,7.7099 L11.3703,7.7099 L10.3783,4.7819 C10.3353,4.6539 10.2133,4.5669 10.0753,4.5669 L3.3333,4.5669 C3.1963,4.5669 3.0743,4.6539 3.0303,4.7819 Z M1.9153,10.8529 C2.2683,10.8529 2.5543,10.5709 2.5543,10.2239 C2.5543,9.8769 2.2683,9.5959 1.9153,9.5959 C1.5633,9.5959 1.2773,9.8769 1.2773,10.2239 C1.2773,10.5709 1.5633,10.8529 1.9153,10.8529 Z M11.4933,10.8529 C11.8463,10.8529 12.1313,10.5709 12.1313,10.2239 C12.1313,9.8769 11.8463,9.5959 11.4933,9.5959 C11.1403,9.5959 10.8553,9.8769 10.8553,10.2239 C10.8553,10.5709 11.1403,10.8529 11.4933,10.8529 Z" id="path-1"></path>
    </defs>
    <g id="Solo-Icons-Final" stroke="none" stroke-width="1" fill="none" fill-rule="evenodd">
        <g id="All-Nucleo-Icons" transform="translate(-608.000000, -923.000000)">
            <g id="Solo/Nucleo/24px/car-collision" transform="translate(608.000000, 923.000000)">
                <g id="collision">
                    <g id="Colour/Default-Colour">
                        <mask id="mask-2" fill="white">
                            <use xlink:href="#path-1"></use>
                        </mask>
                        <use id="Mask" fill="#000000" xlink:href="#path-1"></use>
                        <g id="Colour/Vault-Text-Grey-(Default)" mask="url(#mask-2)" fill="#555555">
                            <g transform="translate(-20.000000, -26.000000)" id="Colour">
                                <rect x="0" y="0" width="64" height="64"></rect>
                            </g>
                        </g>
                    </g>
                </g>
            </g>
        </g>
    </g>
</svg>