<?xml version="1.0" encoding="UTF-8"?>
<svg width="24px" height="18px" viewBox="0 0 24 18" version="1.1" xmlns="http://www.w3.org/2000/svg" xmlns:xlink="http://www.w3.org/1999/xlink">
    <!-- Generator: Sketch 56.2 (81672) - https://sketch.com -->
    <title>car-driving-24px</title>
    <desc>Created with Sketch.</desc>
    <defs>
        <path d="M23.4977143,8.8351875 L21.6417143,7.0081875 L19.6571429,1.1536875 C19.4240785,0.465671324 18.7704846,0.00119563022 18.0337143,0 L5.96628571,0 C5.22951538,0.00119563022 4.57592148,0.465671324 4.34285714,1.1536875 L2.35771429,7.0081875 L0.501714286,8.83575 C0.180550574,9.15209819 0,9.58100939 0,10.02825 L0,14.625 L24,14.625 L24,10.0288125 C24,9.58110133 23.8193675,9.1517193 23.4977143,8.8351875 Z M5.424,1.50975 C5.50175539,1.2799447 5.72022434,1.12494167 5.96628571,1.12499998 L18.0337143,1.12499998 C18.2797757,1.12494167 18.4982446,1.2799447 18.576,1.50975 L20.3502857,6.75 L3.64971429,6.75 L5.424,1.50975 Z M3.42857143,12.375 C2.79738886,12.375 2.28571429,11.8713203 2.28571429,11.25 C2.28571429,10.6286797 2.79738886,10.125 3.42857143,10.125 C4.059754,10.125 4.57142857,10.6286797 4.57142857,11.25 C4.57142857,11.8713203 4.059754,12.375 3.42857143,12.375 Z M20.5714286,12.375 C19.940246,12.375 19.4285714,11.8713203 19.4285714,11.25 C19.4285714,10.6286797 19.940246,10.125 20.5714286,10.125 C21.2026111,10.125 21.7142857,10.6286797 21.7142857,11.25 C21.7142857,11.8713203 21.2026111,12.375 20.5714286,12.375 Z M0,15.75 L5.71428571,15.75 L5.71428571,17.4375 C5.71428571,17.7481602 5.45844843,18 5.14285714,18 L0.571428571,18 C0.255837286,18 0,17.7481602 0,17.4375 L0,15.75 Z M18.2857143,15.75 L24,15.75 L24,17.4375 C24,17.7481602 23.7441627,18 23.4285714,18 L18.8571429,18 C18.5415516,18 18.2857143,17.7481602 18.2857143,17.4375 L18.2857143,15.75 Z" id="path-1"></path>
    </defs>
    <g id="Solo-Icons-Final" stroke="none" stroke-width="1" fill="none" fill-rule="evenodd">
        <g id="All-Nucleo-Icons" transform="translate(-608.000000, -1046.000000)">
            <g id="Solo/Nucleo/24px/car-driving" transform="translate(608.000000, 1046.000000)">
                <g id="driving">
                    <g id="Colour/Default-Colour">
                        <mask id="mask-2" fill="white">
                            <use xlink:href="#path-1"></use>
                        </mask>
                        <use id="Mask" fill="#000000" fill-rule="nonzero" xlink:href="#path-1"></use>
                        <g id="Colour/Vault-Text-Grey-(Default)" mask="url(#mask-2)" fill="#555555">
                            <g transform="translate(-20.000000, -22.000000)" id="Colour">
                                <rect x="0" y="0" width="64" height="64"></rect>
                            </g>
                        </g>
                    </g>
                </g>
            </g>
        </g>
    </g>
</svg>