<?xml version="1.0" encoding="UTF-8"?>
<svg width="24px" height="23px" viewBox="0 0 24 23" version="1.1" xmlns="http://www.w3.org/2000/svg" xmlns:xlink="http://www.w3.org/1999/xlink">
    <!-- Generator: Sketch 56.2 (81672) - https://sketch.com -->
    <title>check-in-24px</title>
    <desc>Created with Sketch.</desc>
    <defs>
        <path d="M23,3 C23.5522847,3 24,3.44771525 24,4 L24,11 L22,11 L22,7 L2,7 L2,21 L16,21 L16,23 L1,23 C0.44771525,23 0,22.5522847 0,22 L0,4 C0,3.44771525 0.44771525,3 1,3 L6,3 L6,1 C6,0.44771525 6.44771525,0 7,0 C7.55228475,0 8,0.44771525 8,1 L8,3 L16,3 L16,1 C16,0.44771525 16.4477153,0 17,0 C17.5522847,0 18,0.44771525 18,1 L18,3 L23,3 Z M18,21 L18,17 L10,17 L10,15 L18,15 L18,11 L24,16 L18,21 Z" id="path-1"></path>
    </defs>
    <g id="Solo-Icons-Final" stroke="none" stroke-width="1" fill="none" fill-rule="evenodd">
        <g id="All-Nucleo-Icons" transform="translate(-608.000000, -1172.000000)">
            <g id="Solo/Nucleo/24px/check-in" transform="translate(608.000000, 1172.000000)">
                <g id="check-in">
                    <g id="Colour/Default-Colour">
                        <mask id="mask-2" fill="white">
                            <use xlink:href="#path-1"></use>
                        </mask>
                        <g id="Mask" fill-rule="nonzero"></g>
                        <g id="Colour/Vault-Text-Grey-(Default)" mask="url(#mask-2)" fill="#555555">
                            <g transform="translate(-20.000000, -20.000000)" id="Colour">
                                <rect x="0" y="0" width="64" height="64"></rect>
                            </g>
                        </g>
                    </g>
                </g>
            </g>
        </g>
    </g>
</svg>