<?xml version="1.0" encoding="UTF-8"?>
<svg width="12px" height="20px" viewBox="0 0 12 20" version="1.1" xmlns="http://www.w3.org/2000/svg" xmlns:xlink="http://www.w3.org/1999/xlink">
    <!-- Generator: Sketch 56.2 (81672) - https://sketch.com -->
    <title>chevron-left-20px</title>
    <desc>Created with Sketch.</desc>
    <defs>
        <path d="M9.09712266,19.0577412 L0.924311698,10.9203103 C0.416038327,10.4142373 0.414254617,9.59194705 0.92032767,9.08367368 C0.921652797,9.08234279 0.922980809,9.08101478 0.924311698,9.07968965 L9.09712266,0.942258822 C9.62561592,0.416053409 10.4754283,0.401408151 11.0217391,0.909090909 C11.5414502,1.39205477 11.5712398,2.20488344 11.0882759,2.72459455 C11.076965,2.73676609 11.065419,2.74871704 11.0536444,2.76044064 L3.7826087,10 L11.0536444,17.2395594 C11.5564055,17.740144 11.5581699,18.5535165 11.0575852,19.0562776 C11.0458616,19.0680522 11.0339107,19.0795982 11.0217391,19.0909091 C10.4754283,19.5985918 9.62561592,19.5839466 9.09712266,19.0577412 Z" id="path-1"></path>
    </defs>
    <g id="Solo-Icons-Final" stroke="none" stroke-width="1" fill="none" fill-rule="evenodd">
        <g id="All-Nucleo-Icons" transform="translate(-467.000000, -1430.000000)">
            <g id="Solo/Nucleo/20px/chevron-left" transform="translate(467.000000, 1430.000000)">
                <g id="left-arrow">
                    <g>
                        <g id="Colour/Default-Colour">
                            <mask id="mask-2" fill="white">
                                <use xlink:href="#path-1"></use>
                            </mask>
                            <g id="Mask" fill-rule="nonzero"></g>
                            <g id="Colour/Vault-Text-Grey-(Default)" mask="url(#mask-2)" fill="#555555">
                                <g transform="translate(-26.000000, -22.000000)" id="Colour">
                                    <rect x="0" y="0" width="64" height="64"></rect>
                                </g>
                            </g>
                        </g>
                    </g>
                </g>
            </g>
        </g>
    </g>
</svg>