<?xml version="1.0" encoding="UTF-8"?>
<svg width="24px" height="24px" viewBox="0 0 24 24" version="1.1" xmlns="http://www.w3.org/2000/svg" xmlns:xlink="http://www.w3.org/1999/xlink">
    <!-- Generator: Sketch 56.2 (81672) - https://sketch.com -->
    <title>clock-time-24px</title>
    <desc>Created with Sketch.</desc>
    <defs>
        <path d="M11.988,0 C5.364,0 0,5.376 0,12 C0,18.624 5.364,24 11.988,24 C18.624,24 24,18.624 24,12 C24,5.376 18.624,0 11.988,0 Z M12,21.6 C6.696,21.6 2.4,17.304 2.4,12 C2.4,6.696 6.696,2.4 12,2.4 C17.304,2.4 21.6,6.696 21.6,12 C21.6,17.304 17.304,21.6 12,21.6 Z M11.7,6 C11.2029437,6 10.8,6.40294373 10.8,6.9 L10.8,13.2 L16.3588046,16.5352828 C16.7690091,16.7814055 17.3009536,16.6504361 17.55,16.242 C17.795549,15.8392996 17.6681527,15.3137896 17.2654523,15.0682405 C17.2625213,15.0664533 17.2595795,15.0646838 17.2566272,15.0629321 L12.6,12.3 L12.6,6.9 C12.6,6.40294373 12.1970563,6 11.7,6 Z" id="path-1"></path>
    </defs>
    <g id="Solo-Icons-Final" stroke="none" stroke-width="1" fill="none" fill-rule="evenodd">
        <g id="All-Nucleo-Icons" transform="translate(-608.000000, -1813.000000)">
            <g id="Solo/Nucleo/24px/clock-time" transform="translate(608.000000, 1813.000000)">
                <g id="ic_access_time">
                    <g id="Colour/Default-Colour">
                        <mask id="mask-2" fill="white">
                            <use xlink:href="#path-1"></use>
                        </mask>
                        <g id="Mask" fill-rule="nonzero"></g>
                        <g id="Colour/Vault-Text-Grey-(Default)" mask="url(#mask-2)" fill="#555555">
                            <g transform="translate(-20.000000, -20.000000)" id="Colour">
                                <rect x="0" y="0" width="64" height="64"></rect>
                            </g>
                        </g>
                    </g>
                </g>
            </g>
        </g>
    </g>
</svg>