<?xml version="1.0" encoding="UTF-8"?>
<svg width="13px" height="16px" viewBox="0 0 13 16" version="1.1" xmlns="http://www.w3.org/2000/svg" xmlns:xlink="http://www.w3.org/1999/xlink">
    <!-- Generator: Sketch 56.2 (81672) - https://sketch.com -->
    <title>device-mobile-sync-16px</title>
    <desc>Created with Sketch.</desc>
    <defs>
        <path d="M5.45226548,14.2395262 L5.45226548,15.7125806 L1.96407258,15.7125806 C0.879904516,15.7125806 0,14.8326761 0,13.7485081 L0,1.96407258 C0,0.879904516 0.879904516,1.07913678e-12 1.96407258,1.07913678e-12 L7.85629032,1.07913678e-12 C8.94144042,1.07913678e-12 9.8203629,0.879904516 9.8203629,1.96407258 L9.8203629,7.47231413 C9.31363217,7.47231413 8.82850625,7.5606974 8.3698953,7.70898488 L8.3698953,2.50517458 L8.3698953,2.49928236 C8.3698953,1.95719833 7.92994304,1.51724607 7.38785901,1.51724607 L2.47178534,1.51724607 C1.92970131,1.51724607 1.48974905,1.95719833 1.48974905,2.49928236 L1.48974905,2.51597698 L1.48974905,13.2574899 C1.48974905,13.800556 1.92970131,14.2395262 2.47178534,14.2395262 L5.45226548,14.2395262 Z M2.94630528,12.7664718 C2.94630528,12.4954298 3.16628141,12.2754536 3.43732342,12.2754536 L5.45246189,12.2754536 L5.45246189,13.2574899 L3.43732342,13.2574899 C3.16628141,13.2574899 2.94630528,13.0375138 2.94630528,12.7664718 Z M9.9663917,14.4850353 C10.8580806,14.3907598 11.5730031,13.7062805 11.7036139,12.8214658 L12.9999018,13.0129629 C12.7799257,14.4899455 11.5887156,15.6300896 10.1038768,15.7862334 C9.15915787,15.8864011 8.22720543,15.560365 7.54076206,14.9279336 L6.66085754,15.722401 L6.64023478,12.8607473 L9.48519391,13.178927 L8.51690613,14.0499932 C8.91954101,14.3770113 9.44100228,14.5400293 9.9663917,14.4850353 Z M9.67384309,9.92681563 C8.78215413,10.0210911 8.06723172,10.7055704 7.93563885,11.5903851 L6.64033299,11.398888 C6.86030911,9.92190545 8.05151913,8.78176132 9.53537597,8.62463551 C10.4810769,8.52544985 11.4130294,8.85050386 12.0984907,9.48293523 L12.9793772,8.68944991 L13,11.5511037 L10.1550409,11.2329239 L11.1233286,10.3618577 C10.7197117,10.0338576 10.1992325,9.87083957 9.67384309,9.92681563 Z" id="path-1"></path>
    </defs>
    <g id="Solo-Icons-Final" stroke="none" stroke-width="1" fill="none" fill-rule="evenodd">
        <g id="All-Nucleo-Icons" transform="translate(-319.000000, -2328.000000)">
            <g id="Solo/Nucleo/16px/device-mobile-sync" transform="translate(319.000000, 2328.000000)">
                <mask id="mask-2" fill="white">
                    <use xlink:href="#path-1"></use>
                </mask>
                <g id="p-sync"></g>
                <g id="Colour/Vault-Text-Grey-(Default)" mask="url(#mask-2)" fill="#555555" fill-rule="evenodd">
                    <g transform="translate(-25.000000, -24.000000)" id="Colour">
                        <rect x="0" y="0" width="64" height="64"></rect>
                    </g>
                </g>
            </g>
        </g>
    </g>
</svg>