<?xml version="1.0" encoding="UTF-8"?>
<svg width="10px" height="16px" viewBox="0 0 10 16" version="1.1" xmlns="http://www.w3.org/2000/svg" xmlns:xlink="http://www.w3.org/1999/xlink">
    <!-- Generator: Sketch 56.2 (81672) - https://sketch.com -->
    <title>device-mobile-16px</title>
    <desc>Created with Sketch.</desc>
    <defs>
        <path d="M2,0 L8,0 C9.1045695,-2.02906125e-16 10,0.8954305 10,2 L10,14 C10,15.1045695 9.1045695,16 8,16 L2,16 C0.8954305,16 1.3527075e-16,15.1045695 0,14 L0,2 C-1.3527075e-16,0.8954305 0.8954305,2.02906125e-16 2,0 Z M2.51738035,1.54496028 C1.9650956,1.54496028 1.51738035,1.99267553 1.51738035,2.54496028 L1.51738035,2.56142302 L1.51738035,13.5 C1.51738035,14.0522847 1.9650956,14.5 2.51738035,14.5 L7.52271532,14.5 C8.07500007,14.5 8.52271532,14.0522847 8.52271532,13.5 L8.52271532,2.55084924 L8.52271532,2.54496028 C8.52271532,1.99267553 8.07500007,1.54496028 7.52271532,1.54496028 L2.51738035,1.54496028 Z M3.5,12.5 L6.5,12.5 C6.77614237,12.5 7,12.7238576 7,13 C7,13.2761424 6.77614237,13.5 6.5,13.5 L3.5,13.5 C3.22385763,13.5 3,13.2761424 3,13 C3,12.7238576 3.22385763,12.5 3.5,12.5 Z" id="path-1"></path>
    </defs>
    <g id="Solo-Icons-Final" stroke="none" stroke-width="1" fill="none" fill-rule="evenodd">
        <g id="All-Nucleo-Icons" transform="translate(-321.000000, -2073.000000)">
            <g id="Solo/Nucleo/16px/device-mobile" transform="translate(321.000000, 2073.000000)">
                <g id="phone-button-(custom)">
                    <g id="Colour/Default-Colour">
                        <mask id="mask-2" fill="white">
                            <use xlink:href="#path-1"></use>
                        </mask>
                        <g id="Mask" fill-rule="nonzero"></g>
                        <g id="Colour/Vault-Text-Grey-(Default)" mask="url(#mask-2)" fill="#555555">
                            <g transform="translate(-27.000000, -25.000000)" id="Colour">
                                <rect x="0" y="0" width="64" height="64"></rect>
                            </g>
                        </g>
                    </g>
                </g>
            </g>
        </g>
    </g>
</svg>