<?xml version="1.0" encoding="UTF-8"?>
<svg width="20px" height="20px" viewBox="0 0 20 20" version="1.1" xmlns="http://www.w3.org/2000/svg" xmlns:xlink="http://www.w3.org/1999/xlink">
    <!-- Generator: Sketch 56.2 (81672) - https://sketch.com -->
    <title>device-mobile-disconnected-20px</title>
    <desc>Created with Sketch.</desc>
    <defs>
        <path d="M8.10756563,16.8749219 L11.8926284,16.8749219 C12.2408542,16.8749219 12.5234722,16.5949149 12.5234722,16.2499062 C12.5234722,15.9048976 12.2408542,15.6248906 11.8926284,15.6248906 L8.10756563,15.6248906 C7.75933985,15.6248906 7.47672183,15.9048976 7.47672183,16.2499062 C7.47672183,16.5949149 7.75933985,16.8749219 8.10756563,16.8749219 M14.4443916,16.8749219 C14.4443916,17.5661892 13.8804172,18.1249531 13.182704,18.1249531 L6.86669588,18.1249531 C6.17024432,18.1249531 5.60500828,17.5661892 5.60500828,16.8749219 L5.60500828,5.9321483 L14.4443916,13.279832 L14.4443916,16.8749219 Z M19.8191807,15.5723893 C20.0336676,15.7498937 20.0601631,16.0649016 19.8835268,16.2761569 L19.4482446,16.7886697 C19.2690849,16.999925 18.9511397,17.0261757 18.7379145,16.8486712 L17.5695918,15.8773969 L16.3091658,14.8286207 L16.3091658,17.4999375 C16.3091658,18.879972 15.1786938,20 13.7857907,20 L6.21566508,20 C4.82150028,20 3.69228988,18.879972 3.69228988,17.4999375 L3.69228988,4.34085852 L2.4293406,3.2920823 L0.179751616,1.42203555 C-0.0334735879,1.24328108 -0.061230715,0.928273207 0.119190611,0.717017925 L0.551949457,0.205755144 C0.729847408,-0.0055001375 1.04779268,-0.0317507938 1.26101789,0.143253581 L19.8191807,15.5723893 Z M6.24468389,2.11630291 L4.50734007,0.672516813 C4.95523917,0.257506438 5.55075571,0 6.21566508,0 L13.7857907,0 C15.1786938,0 16.3091658,1.11877797 16.3091658,2.5000625 L16.3091658,10.4827621 L14.4443916,8.93397335 L14.4443916,3.18757969 L14.4443916,3.18132953 C14.4443916,2.49006225 13.8791555,1.93129828 13.182704,1.93129828 L6.86669588,1.93129828 C6.63706873,1.93129828 6.43015197,2.00880022 6.24468389,2.11630291 Z" id="path-1"></path>
    </defs>
    <g id="Solo-Icons-Final" stroke="none" stroke-width="1" fill="none" fill-rule="evenodd">
        <g id="All-Nucleo-Icons" transform="translate(-463.000000, -2198.000000)">
            <g id="Solo/Nucleo/20px/device-mobile-disconnected" transform="translate(463.000000, 2198.000000)">
                <g id="phone-not-connected">
                    <g>
                        <g id="Colour/Default-Colour">
                            <mask id="mask-2" fill="white">
                                <use xlink:href="#path-1"></use>
                            </mask>
                            <use id="Mask" fill="#555555" xlink:href="#path-1"></use>
                            <g id="Colour/Vault-Text-Grey-(Default)" mask="url(#mask-2)" fill="#555555">
                                <g transform="translate(-22.000000, -22.000000)" id="Colour">
                                    <rect x="0" y="0" width="64" height="64"></rect>
                                </g>
                            </g>
                        </g>
                    </g>
                </g>
            </g>
        </g>
    </g>
</svg>