<?xml version="1.0" encoding="UTF-8"?>
<svg width="20px" height="20px" viewBox="0 0 20 20" version="1.1" xmlns="http://www.w3.org/2000/svg" xmlns:xlink="http://www.w3.org/1999/xlink">
    <!-- Generator: Sketch 56.2 (81672) - https://sketch.com -->
    <title>edit-2-20px</title>
    <desc>Created with Sketch.</desc>
    <defs>
        <path d="M19.625,4.125 C20.125,4.625 20.125,5.375 19.625,5.875 L17.375,8.125 L11.875,2.625 L14.125,0.375 C14.625,-0.125 15.375,-0.125 15.875,0.375 L19.625,4.125 Z M10.125,4.375 L15.625,9.875 L5.875,19.625 C5.625,19.875 5.375,20 5,20 L1.25,20 C0.5,20 0,19.5 0,18.75 L0,15 C0,14.625 0.125,14.375 0.375,14.125 L10.125,4.375 Z" id="path-1"></path>
    </defs>
    <g id="Solo-Icons-Final" stroke="none" stroke-width="1" fill="none" fill-rule="evenodd">
        <g id="All-Nucleo-Icons" transform="translate(-463.000000, -2966.000000)">
            <g id="Solo/Nucleo/20px/edit-2" transform="translate(463.000000, 2966.000000)">
                <g id="pen-01">
                    <g>
                        <g id="Colour/Default-Colour">
                            <mask id="mask-2" fill="white">
                                <use xlink:href="#path-1"></use>
                            </mask>
                            <g id="Mask" fill-rule="nonzero"></g>
                            <g id="Colour/Vault-Text-Grey-(Default)" mask="url(#mask-2)" fill="#555555">
                                <g transform="translate(-22.000000, -22.000000)" id="Colour">
                                    <rect x="0" y="0" width="64" height="64"></rect>
                                </g>
                            </g>
                        </g>
                    </g>
                </g>
            </g>
        </g>
    </g>
</svg>