<?xml version="1.0" encoding="UTF-8"?>
<svg width="12px" height="12px" viewBox="0 0 12 12" version="1.1" xmlns="http://www.w3.org/2000/svg" xmlns:xlink="http://www.w3.org/1999/xlink">
    <!-- Generator: Sketch 56.2 (81672) - https://sketch.com -->
    <title>heartrate-active-12px</title>
    <desc>Created with Sketch.</desc>
    <defs>
        <path d="M8.783,6 L11.176,6 C9.6435,8.6445 6.489,11.25 6.3,11.4 C6.20878188,11.4554465 6.10624242,11.4896264 6,11.5 C5.89003836,11.513595 5.77981229,11.476853 5.7,11.4 C5.511,11.25 2.3565,8.6445 0.824,6 L3.5,6 C3.67549271,5.99996662 3.83812126,5.90793063 3.9285,5.7575 L4.91,4.1215 L6.5355,8.1875 C6.60614248,8.36385235 6.77062312,8.48493645 6.96,8.5 L7,8.5 C7.17549271,8.49996662 7.33812126,8.40793063 7.4285,8.2575 L8.783,6 Z M3.217,5 L0.3305,5 C0.126373346,4.52542943 0.014220127,4.01641331 -6.69539318e-05,3.5 C-0.00576623647,2.56998657 0.361130757,1.67639365 1.0187622,1.0187622 C1.67639365,0.361130757 2.56998657,-0.00576623647 3.5,-6.69539318e-05 C4.4392276,0.00645289722 5.33783723,0.38386894 6,1.05 C6.66216277,0.38386894 7.5607724,0.00645289722 8.5,-6.69539318e-05 C9.43001343,-0.00576623647 10.3236064,0.361130757 10.9812378,1.0187622 C11.6388692,1.67639365 12.0057662,2.56998657 12.000067,3.5 C11.9857799,4.01641331 11.8736267,4.52542943 11.6695,5 L8.5,5 C8.32480924,4.99971644 8.1622487,5.09114489 8.0715,5.241 L7.09,6.877 L5.4645,2.8125 C5.39385752,2.63614765 5.22937688,2.51506355 5.04,2.5 C4.85005774,2.4833277 4.6675578,2.57779139 4.5715,2.7425 L3.217,5 Z" id="path-1"></path>
    </defs>
    <g id="Solo-Icons-Final" stroke="none" stroke-width="1" fill="none" fill-rule="evenodd">
        <g id="All-Nucleo-Icons" transform="translate(-173.000000, -3611.000000)">
            <g id="Solo/Nucleo/12px/heartrate-active" transform="translate(173.000000, 3611.000000)">
                <g id="heartbeat">
                    <g id="Colour/Default-Colour">
                        <mask id="mask-2" fill="white">
                            <use xlink:href="#path-1"></use>
                        </mask>
                        <g id="Mask" fill-rule="nonzero"></g>
                        <g id="Colour/Vault-Text-Grey-(Default)" mask="url(#mask-2)" fill="#555555">
                            <g transform="translate(-18.000000, -18.000000)" id="Colour">
                                <rect x="0" y="0" width="48" height="48"></rect>
                            </g>
                        </g>
                    </g>
                </g>
            </g>
        </g>
    </g>
</svg>