<?xml version="1.0" encoding="UTF-8"?>
<svg width="12px" height="12px" viewBox="0 0 12 12" version="1.1" xmlns="http://www.w3.org/2000/svg" xmlns:xlink="http://www.w3.org/1999/xlink">
    <!-- Generator: Sketch 56.2 (81672) - https://sketch.com -->
    <title>list-bullet-12px</title>
    <desc>Created with Sketch.</desc>
    <defs>
        <path d="M4.5,9.75 L12,9.75 L12,11.25 L4.5,11.25 L4.5,9.75 Z M1.5,3 C0.671572875,3 0,2.32842712 0,1.5 C0,0.671572875 0.671572875,0 1.5,0 C2.32842712,0 3,0.671572875 3,1.5 C3,2.32842712 2.32842712,3 1.5,3 Z M1.5,7.5 C0.671572875,7.5 0,6.82842712 0,6 C0,5.17157288 0.671572875,4.5 1.5,4.5 C2.32842712,4.5 3,5.17157288 3,6 C3,6.82842712 2.32842712,7.5 1.5,7.5 Z M1.5,12 C0.671572875,12 0,11.3284271 0,10.5 C0,9.67157288 0.671572875,9 1.5,9 C2.32842712,9 3,9.67157288 3,10.5 C3,11.3284271 2.32842712,12 1.5,12 Z M4.5,0.75 L12,0.75 L12,2.25 L4.5,2.25 L4.5,0.75 Z M4.5,5.25 L12,5.25 L12,6.75 L4.5,6.75 L4.5,5.25 Z" id="path-1"></path>
    </defs>
    <g id="Solo-Icons-Final" stroke="none" stroke-width="1" fill="none" fill-rule="evenodd">
        <g id="All-Nucleo-Icons" transform="translate(-173.000000, -3866.000000)">
            <g id="Solo/Nucleo/12px/list-bullet" transform="translate(173.000000, 3866.000000)">
                <g id="list-bullet">
                    <g id="Colour/Default-Colour">
                        <mask id="mask-2" fill="white">
                            <use xlink:href="#path-1"></use>
                        </mask>
                        <g id="Mask" fill-rule="nonzero"></g>
                        <g id="Colour/Vault-Text-Grey-(Default)" mask="url(#mask-2)" fill="#555555">
                            <g transform="translate(-18.000000, -18.000000)" id="Colour">
                                <rect x="0" y="0" width="48" height="48"></rect>
                            </g>
                        </g>
                    </g>
                </g>
            </g>
        </g>
    </g>
</svg>