<?xml version="1.0" encoding="UTF-8"?>
<svg width="20px" height="20px" viewBox="0 0 20 20" version="1.1" xmlns="http://www.w3.org/2000/svg" xmlns:xlink="http://www.w3.org/1999/xlink">
    <!-- Generator: Sketch 56.2 (81672) - https://sketch.com -->
    <title>location-settings-20px</title>
    <desc>Created with Sketch.</desc>
    <defs>
        <path d="M8.33333333,15 C8.33333333,16.0541667 8.585,17.0475 9.02,17.9333333 C8.51,18.4941667 8.15166667,18.86 8.09166667,18.9208333 C7.935,19.0783333 7.7225,19.1666667 7.5,19.1666667 C7.2775,19.1666667 7.065,19.0783333 6.90833333,18.9208333 C6.62666667,18.6358333 0,11.9075 0,7.5 C0,2.805 3.81333333,0 7.5,0 C11.1866667,0 15,2.805 15,7.5 C15,7.77083333 14.9741667,8.05083333 14.9266667,8.33666667 C11.2791667,8.37666667 8.33333333,11.3425 8.33333333,15 Z M7.5,10 C8.88083333,10 10,8.88083333 10,7.5 C10,6.11916667 8.88083333,5 7.5,5 C6.11916667,5 5,6.11916667 5,7.5 C5,8.88083333 6.11916667,10 7.5,10 Z M18.3125,13.25 C18.4375,13.4375 18.5,13.6875 18.5625,13.875 L20,14.375 L20,15.625 L18.5625,16.125 C18.5,16.375 18.4375,16.625 18.3125,16.8125 L19,18.125 L18.125,19 L16.8125,18.3125 C16.5625,18.375 16.375,18.5 16.125,18.5625 L15.625,20 L14.375,20 L13.875,18.5625 C13.625,18.5 13.375,18.4375 13.1875,18.3125 L11.875,19 L11,18.125 L11.6875,16.8125 C11.625,16.5625 11.5,16.375 11.4375,16.125 L10,15.625 L10,14.375 L11.4375,13.875 C11.5,13.6875 11.5625,13.4375 11.6875,13.25 L11,11.9375 L11.9375,11 L13.25,11.6875 C13.4375,11.5625 13.6875,11.5 13.875,11.4375 L14.375,10 L15.625,10 L16.125,11.5 C16.375,11.5625 16.625,11.625 16.8125,11.75 L18.125,11.0625 L19,11.9375 L18.3125,13.25 Z M15,16.875 C16.0625,16.875 16.875,16.0625 16.875,15 C16.875,13.9375 16.0625,13.125 15,13.125 C13.9375,13.125 13.125,13.9375 13.125,15 C13.125,16.0625 13.9375,16.875 15,16.875 Z" id="path-1"></path>
    </defs>
    <g id="Solo-Icons-Final" stroke="none" stroke-width="1" fill="none" fill-rule="evenodd">
        <g id="All-Nucleo-Icons" transform="translate(-463.000000, -4502.000000)">
            <g id="Solo/Nucleo/20px/location-settings" transform="translate(463.000000, 4502.000000)">
                <g id="map-engine">
                    <g>
                        <g id="Colour/Default-Colour">
                            <mask id="mask-2" fill="white">
                                <use xlink:href="#path-1"></use>
                            </mask>
                            <g id="Mask" fill-rule="nonzero"></g>
                            <g id="Colour/Vault-Text-Grey-(Default)" mask="url(#mask-2)" fill="#555555">
                                <g transform="translate(-22.000000, -22.000000)" id="Colour">
                                    <rect x="0" y="0" width="64" height="64"></rect>
                                </g>
                            </g>
                        </g>
                    </g>
                </g>
            </g>
        </g>
    </g>
</svg>