<?xml version="1.0" encoding="UTF-8"?>
<svg width="20px" height="20px" viewBox="0 0 20 20" version="1.1" xmlns="http://www.w3.org/2000/svg" xmlns:xlink="http://www.w3.org/1999/xlink">
    <!-- Generator: Sketch 56.2 (81672) - https://sketch.com -->
    <title>location-pin-area-20px</title>
    <desc>Created with Sketch.</desc>
    <defs>
        <path d="M10,0 C6.7225,0 3.33333333,2.49333333 3.33333333,6.66666667 C3.33333333,10.5 8.78666667,16.1058333 9.40833333,16.7333333 C9.565,16.8908333 9.7775,16.9791667 10,16.9791667 C10.2225,16.9791667 10.435,16.8908333 10.5916667,16.7333333 C11.2133333,16.1058333 16.6666667,10.5 16.6666667,6.66666667 C16.6666667,2.49333333 13.2775,0 10,0 Z M10,8.33333333 C9.07916667,8.33333333 8.33333333,7.5875 8.33333333,6.66666667 C8.33333333,5.74583333 9.07916667,5 10,5 C10.9208333,5 11.6666667,5.74583333 11.6666667,6.66666667 C11.6666667,7.5875 10.9208333,8.33333333 10,8.33333333 Z M15.2933333,13.7825 C17.8325,14.2458333 20,15.1225 20,16.6666667 C20,19.2983333 13.7141667,20 10,20 C6.28583333,20 0,19.2983333 0,16.6666667 C0,15.1225 2.1675,14.2458333 4.70583333,13.7816667 C5.09083333,14.3108333 5.48,14.8125 5.86083333,15.2775 C3.315,15.645 1.82083333,16.2933333 1.66166667,16.7008333 C1.89416667,17.2241667 4.96416667,18.3325 10,18.3325 C14.9375,18.3325 17.985,17.2675 18.3216667,16.6658333 C18.0925,16.2575 16.6108333,15.6358333 14.1375,15.2783333 C14.5191667,14.8133333 14.9083333,14.3116667 15.2933333,13.7825 Z" id="path-1"></path>
    </defs>
    <g id="Solo-Icons-Final" stroke="none" stroke-width="1" fill="none" fill-rule="evenodd">
        <g id="All-Nucleo-Icons" transform="translate(-463.000000, -4246.000000)">
            <g id="Solo/Nucleo/20px/location-pin-area" transform="translate(463.000000, 4246.000000)">
                <g id="position-pin">
                    <g>
                        <g id="Colour/Default-Colour">
                            <mask id="mask-2" fill="white">
                                <use xlink:href="#path-1"></use>
                            </mask>
                            <use id="Mask" fill="#000000" fill-rule="nonzero" xlink:href="#path-1"></use>
                            <g id="Colour/Vault-Text-Grey-(Default)" mask="url(#mask-2)" fill="#555555">
                                <g transform="translate(-22.000000, -22.000000)" id="Colour">
                                    <rect x="0" y="0" width="64" height="64"></rect>
                                </g>
                            </g>
                        </g>
                    </g>
                </g>
            </g>
        </g>
    </g>
</svg>