<?xml version="1.0" encoding="UTF-8"?>
<svg width="12px" height="12px" viewBox="0 0 12 12" version="1.1" xmlns="http://www.w3.org/2000/svg" xmlns:xlink="http://www.w3.org/1999/xlink">
    <!-- Generator: Sketch 56.2 (81672) - https://sketch.com -->
    <title>log-in-12px</title>
    <desc>Created with Sketch.</desc>
    <defs>
        <path d="M5,9 L5,7 L0,7 L0,5 L5,5 L5,3 L9,6 L5,9 Z M10,0 C11.1045695,0 12,0.8954305 12,2 L12,10 C12,11.1045695 11.1045695,12 10,12 L4,12 C2.8954305,12 2,11.1045695 2,10 L2,8 L4,8 L4,10 L10,10 L10,2 L4,2 L4,4 L2,4 L2,2 C2,0.8954305 2.8954305,0 4,0 L10,0 Z" id="path-1"></path>
    </defs>
    <g id="Solo-Icons-Final" stroke="none" stroke-width="1" fill="none" fill-rule="evenodd">
        <g id="All-Nucleo-Icons" transform="translate(-173.000000, -4633.000000)">
            <g id="Solo/Nucleo/12px/log-in" transform="translate(173.000000, 4633.000000)">
                <g id="log-in">
                    <g id="Colour/Default-Colour-Copy">
                        <mask id="mask-2" fill="white">
                            <use xlink:href="#path-1"></use>
                        </mask>
                        <use id="Mask" fill="#000000" fill-rule="nonzero" xlink:href="#path-1"></use>
                        <g id="Colour/Vault-Text-Grey-(Default)" mask="url(#mask-2)" fill="#555555">
                            <g transform="translate(-25.000000, -26.000000)" id="Colour">
                                <rect x="0" y="0" width="64" height="64"></rect>
                            </g>
                        </g>
                    </g>
                </g>
            </g>
        </g>
    </g>
</svg>