<?xml version="1.0" encoding="UTF-8"?>
<svg width="20px" height="20px" viewBox="0 0 20 20" version="1.1" xmlns="http://www.w3.org/2000/svg" xmlns:xlink="http://www.w3.org/1999/xlink">
    <!-- Generator: Sketch 56.2 (81672) - https://sketch.com -->
    <title>people-2-20px</title>
    <desc>Created with Sketch.</desc>
    <defs>
        <path d="M16.6666667,5.83333333 C15.7458333,5.83333333 15,5.0875 15,4.16666667 C15,3.24583333 15.7458333,2.5 16.6666667,2.5 C17.5875,2.5 18.3333333,3.24583333 18.3333333,4.16666667 C18.3333333,5.0875 17.5875,5.83333333 16.6666667,5.83333333 Z M10,5 C8.61916667,5 7.5,3.88083333 7.5,2.5 C7.5,1.11916667 8.61916667,0 10,0 C11.3808333,0 12.5,1.11916667 12.5,2.5 C12.5,3.88083333 11.3808333,5 10,5 Z M3.33333333,15.8333333 L5,15.8333333 L5,17.5 C5,17.96 4.62666667,18.3333333 4.16666667,18.3333333 L2.5,18.3333333 C2.04,18.3333333 1.66666667,17.96 1.66666667,17.5 L1.66666667,13.3333333 L0,13.3333333 L0,8.33333333 C0,7.4125 0.745833333,6.66666667 1.66666667,6.66666667 L4.18833333,6.66666667 C3.65916667,7.365 3.33333333,8.225 3.33333333,9.16666667 L3.33333333,15.8333333 Z M11.6666667,20 L8.33333333,20 C7.87333333,20 7.5,19.6266667 7.5,19.1666667 L7.5,14.1666667 L5,14.1666667 L5,9.16666667 C5,7.78583333 6.11916667,6.66666667 7.5,6.66666667 L12.5,6.66666667 C13.8808333,6.66666667 15,7.78583333 15,9.16666667 L15,14.1666667 L12.5,14.1666667 L12.5,19.1666667 C12.5,19.6266667 12.1266667,20 11.6666667,20 Z M3.33333333,5.83333333 C2.4125,5.83333333 1.66666667,5.0875 1.66666667,4.16666667 C1.66666667,3.24583333 2.4125,2.5 3.33333333,2.5 C4.25416667,2.5 5,3.24583333 5,4.16666667 C5,5.0875 4.25416667,5.83333333 3.33333333,5.83333333 Z M16.6666667,15.8333333 L16.6666667,9.16666667 C16.6666667,8.225 16.3408333,7.365 15.8116667,6.66666667 L18.3333333,6.66666667 C19.2541667,6.66666667 20,7.4125 20,8.33333333 L20,13.3333333 L18.3333333,13.3333333 L18.3333333,17.5 C18.3333333,17.96 17.96,18.3333333 17.5,18.3333333 L15.8333333,18.3333333 C15.3733333,18.3333333 15,17.96 15,17.5 L15,15.8333333 L16.6666667,15.8333333 Z" id="path-1"></path>
    </defs>
    <g id="Solo-Icons-Final" stroke="none" stroke-width="1" fill="none" fill-rule="evenodd">
        <g id="All-Nucleo-Icons" transform="translate(-463.000000, -5270.000000)">
            <g id="Solo/Nucleo/20px/people-2" transform="translate(463.000000, 5270.000000)">
                <g id="multiple-11">
                    <g>
                        <g id="Colour/Default-Colour">
                            <mask id="mask-2" fill="white">
                                <use xlink:href="#path-1"></use>
                            </mask>
                            <g id="Mask" fill-rule="nonzero"></g>
                            <g id="Colour/Vault-Text-Grey-(Default)" mask="url(#mask-2)" fill="#555555">
                                <g transform="translate(-22.000000, -22.000000)" id="Colour">
                                    <rect x="0" y="0" width="64" height="64"></rect>
                                </g>
                            </g>
                        </g>
                    </g>
                </g>
            </g>
        </g>
    </g>
</svg>