<?xml version="1.0" encoding="UTF-8"?>
<svg width="24px" height="24px" viewBox="0 0 24 24" version="1.1" xmlns="http://www.w3.org/2000/svg" xmlns:xlink="http://www.w3.org/1999/xlink">
    <!-- Generator: Sketch 56.2 (81672) - https://sketch.com -->
    <title>people-2-24px</title>
    <desc>Created with Sketch.</desc>
    <defs>
        <path d="M20,7 C18.895,7 18,6.105 18,5 C18,3.895 18.895,3 20,3 C21.105,3 22,3.895 22,5 C22,6.105 21.105,7 20,7 Z M12,6 C10.343,6 9,4.657 9,3 C9,1.343 10.343,0 12,0 C13.657,0 15,1.343 15,3 C15,4.657 13.657,6 12,6 Z M4,19 L6,19 L6,21 C6,21.552 5.552,22 5,22 L3,22 C2.448,22 2,21.552 2,21 L2,16 L0,16 L0,10 C0,8.895 0.895,8 2,8 L5.026,8 C4.391,8.838 4,9.87 4,11 L4,19 Z M14,24 L10,24 C9.448,24 9,23.552 9,23 L9,17 L6,17 L6,11 C6,9.343 7.343,8 9,8 L15,8 C16.657,8 18,9.343 18,11 L18,17 L15,17 L15,23 C15,23.552 14.552,24 14,24 Z M4,7 C2.895,7 2,6.105 2,5 C2,3.895 2.895,3 4,3 C5.105,3 6,3.895 6,5 C6,6.105 5.105,7 4,7 Z M20,19 L20,11 C20,9.87 19.609,8.838 18.974,8 L22,8 C23.105,8 24,8.895 24,10 L24,16 L22,16 L22,21 C22,21.552 21.552,22 21,22 L19,22 C18.448,22 18,21.552 18,21 L18,19 L20,19 Z" id="path-1"></path>
    </defs>
    <g id="Solo-Icons-Final" stroke="none" stroke-width="1" fill="none" fill-rule="evenodd">
        <g id="All-Nucleo-Icons" transform="translate(-608.000000, -5270.000000)">
            <g id="Solo/Nucleo/24px/people-2" transform="translate(608.000000, 5270.000000)">
                <g id="multiple-11">
                    <g id="Colour/Default-Colour">
                        <mask id="mask-2" fill="white">
                            <use xlink:href="#path-1"></use>
                        </mask>
                        <use id="Mask" fill="#000000" fill-rule="nonzero" xlink:href="#path-1"></use>
                        <g id="Colour/Vault-Text-Grey-(Default)" mask="url(#mask-2)" fill="#555555">
                            <g transform="translate(-20.000000, -20.000000)" id="Colour">
                                <rect x="0" y="0" width="64" height="64"></rect>
                            </g>
                        </g>
                    </g>
                </g>
            </g>
        </g>
    </g>
</svg>