<?xml version="1.0" encoding="UTF-8"?>
<svg width="12px" height="12px" viewBox="0 0 12 12" version="1.1" xmlns="http://www.w3.org/2000/svg" xmlns:xlink="http://www.w3.org/1999/xlink">
    <!-- Generator: Sketch 56.2 (81672) - https://sketch.com -->
    <title>status-warning-12px</title>
    <desc>Created with Sketch.</desc>
    <defs>
        <path d="M6,9.06417112 C5.63673249,9.06417112 5.34224599,8.76968462 5.34224599,8.40641711 C5.34224599,8.0431496 5.63673249,7.7486631 6,7.7486631 C6.36326751,7.7486631 6.65775401,8.0431496 6.65775401,8.40641711 C6.65775401,8.76968462 6.36326751,9.06417112 6,9.06417112 Z M6,12 C2.6862915,12 0,9.3137085 0,6 C0,2.6862915 2.6862915,0 6,0 C9.3137085,0 12,2.6862915 12,6 C12,9.3137085 9.3137085,12 6,12 Z M6,10.5882353 C8.53401238,10.5882353 10.5882353,8.53401238 10.5882353,6 C10.5882353,3.46598762 8.53401238,1.41176471 6,1.41176471 C3.46598762,1.41176471 1.41176471,3.46598762 1.41176471,6 C1.41176471,8.53401238 3.46598762,10.5882353 6,10.5882353 Z M5.29411765,3.59358289 C5.29411765,3.20373483 5.61015194,2.88770053 6,2.88770053 C6.38984806,2.88770053 6.70588235,3.20373483 6.70588235,3.59358289 L6.70588235,6.48128342 C6.70588235,6.87113148 6.38984806,7.18716578 6,7.18716578 C5.61015194,7.18716578 5.29411765,6.87113148 5.29411765,6.48128342 L5.29411765,3.59358289 Z" id="path-1"></path>
    </defs>
    <g id="Solo-Icons-Final" stroke="none" stroke-width="1" fill="none" fill-rule="evenodd">
        <g id="All-Nucleo-Icons" transform="translate(-173.000000, -5915.000000)">
            <g id="Solo/Nucleo/12px/status-warning" transform="translate(173.000000, 5915.000000)">
                <g id="c-warning">
                    <g id="Colour/Default-Colour">
                        <mask id="mask-2" fill="white">
                            <use xlink:href="#path-1"></use>
                        </mask>
                        <g id="Mask" fill-rule="nonzero"></g>
                        <g id="Colour/Vault-Text-Grey-(Default)" mask="url(#mask-2)" fill="#555555">
                            <g transform="translate(-16.941176, -16.235294)" id="Colour">
                                <rect x="0" y="0" width="45" height="45"></rect>
                            </g>
                        </g>
                    </g>
                </g>
            </g>
        </g>
    </g>
</svg>