<?xml version="1.0" encoding="UTF-8"?>
<svg width="20px" height="20px" viewBox="0 0 20 20" version="1.1" xmlns="http://www.w3.org/2000/svg" xmlns:xlink="http://www.w3.org/1999/xlink">
    <!-- Generator: Sketch 56.2 (81672) - https://sketch.com -->
    <title>status-information-20px</title>
    <desc>Created with Sketch.</desc>
    <defs>
        <path d="M10,15.1069519 C9.39455415,15.1069519 8.90374332,14.616141 8.90374332,14.0106952 C8.90374332,13.4052493 9.39455415,12.9144385 10,12.9144385 C10.6054458,12.9144385 11.0962567,13.4052493 11.0962567,14.0106952 C11.0962567,14.616141 10.6054458,15.1069519 10,15.1069519 Z M10,20 C4.4771525,20 0,15.5228475 0,10 C0,4.4771525 4.4771525,0 10,0 C15.5228475,0 20,4.4771525 20,10 C20,15.5228475 15.5228475,20 10,20 Z M10,17.6470588 C14.223354,17.6470588 17.6470588,14.223354 17.6470588,10 C17.6470588,5.77664603 14.223354,2.35294118 10,2.35294118 C5.77664603,2.35294118 2.35294118,5.77664603 2.35294118,10 C2.35294118,14.223354 5.77664603,17.6470588 10,17.6470588 Z M8.82352941,5.98930481 C8.82352941,5.33955805 9.35025324,4.81283422 10,4.81283422 C10.6497468,4.81283422 11.1764706,5.33955805 11.1764706,5.98930481 L11.1764706,10.802139 C11.1764706,11.4518858 10.6497468,11.9786096 10,11.9786096 C9.35025324,11.9786096 8.82352941,11.4518858 8.82352941,10.802139 L8.82352941,5.98930481 Z" id="path-1"></path>
    </defs>
    <g id="Solo-Icons-Final" stroke="none" stroke-width="1" fill="none" fill-rule="evenodd">
        <g id="All-Nucleo-Icons" transform="translate(-463.000000, -5782.000000)">
            <g id="Solo/Nucleo/20px/status-information" transform="translate(463.000000, 5782.000000)">
                <g id="icons/c-info-16">
                    <g>
                        <g id="c-info" transform="translate(10.000000, 10.000000) rotate(-180.000000) translate(-10.000000, -10.000000) ">
                            <g id="Colour/Default-Colour">
                                <mask id="mask-2" fill="white">
                                    <use xlink:href="#path-1"></use>
                                </mask>
                                <g id="Mask" fill-rule="nonzero"></g>
                                <g id="Colour/Vault-Text-Grey-(Default)" mask="url(#mask-2)" fill="#555555">
                                    <g transform="translate(-23.588235, -22.647059)" id="Colour">
                                        <rect x="0" y="0" width="64" height="64"></rect>
                                    </g>
                                </g>
                            </g>
                        </g>
                    </g>
                </g>
            </g>
        </g>
    </g>
</svg>