<?xml version="1.0" encoding="UTF-8"?>
<svg width="24px" height="24px" viewBox="0 0 24 24" version="1.1" xmlns="http://www.w3.org/2000/svg" xmlns:xlink="http://www.w3.org/1999/xlink">
    <!-- Generator: Sketch 56.2 (81672) - https://sketch.com -->
    <title>swap-horizontal-24px</title>
    <desc>Created with Sketch.</desc>
    <defs>
        <path d="M16.5,16.5 L16.5,12 L24,18 L16.5,24 L16.5,19.5 L4.5,19.5 C3.672,19.5 3,18.828 3,18 C3,17.172 3.672,16.5 4.5,16.5 L16.5,16.5 Z M7.5,4.5 L19.5,4.5 C20.328,4.5 21,5.172 21,6 C21,6.828 20.328,7.5 19.5,7.5 L7.5,7.5 L7.5,12 L0,6 L7.5,0 L7.5,4.5 Z" id="path-1"></path>
    </defs>
    <g id="Solo-Icons-Final" stroke="none" stroke-width="1" fill="none" fill-rule="evenodd">
        <g id="All-Nucleo-Icons" transform="translate(-608.000000, -6166.000000)">
            <g id="Solo/Nucleo/24px/swap-horizontal" transform="translate(608.000000, 6166.000000)">
                <g id="swap-horizontal">
                    <g id="Colour/Default-Colour">
                        <mask id="mask-2" fill="white">
                            <use xlink:href="#path-1"></use>
                        </mask>
                        <g id="Mask" fill-rule="nonzero"></g>
                        <g id="Colour/Vault-Text-Grey-(Default)" mask="url(#mask-2)" fill="#555555">
                            <g transform="translate(-20.000000, -20.000000)" id="Colour">
                                <rect x="0" y="0" width="64" height="64"></rect>
                            </g>
                        </g>
                    </g>
                </g>
            </g>
        </g>
    </g>
</svg>