<?xml version="1.0" encoding="UTF-8"?>
<svg width="16px" height="16px" viewBox="0 0 16 16" version="1.1" xmlns="http://www.w3.org/2000/svg" xmlns:xlink="http://www.w3.org/1999/xlink">
    <!-- Generator: Sketch 56.2 (81672) - https://sketch.com -->
    <title>swap-horizontal-16px</title>
    <desc>Created with Sketch.</desc>
    <defs>
        <path d="M11,11 L11,8 L16,12 L11,16 L11,13 L3,13 C2.448,13 2,12.552 2,12 C2,11.448 2.448,11 3,11 L11,11 Z M5,3 L13,3 C13.552,3 14,3.448 14,4 C14,4.552 13.552,5 13,5 L5,5 L5,8 L0,4 L5,0 L5,3 Z" id="path-1"></path>
    </defs>
    <g id="Solo-Icons-Final" stroke="none" stroke-width="1" fill="none" fill-rule="evenodd">
        <g id="All-Nucleo-Icons" transform="translate(-318.000000, -6168.000000)">
            <g id="Solo/Nucleo/16px/swap-horizontal" transform="translate(318.000000, 6168.000000)">
                <g id="swap-horizontal">
                    <g id="Colour/Default-Colour">
                        <mask id="mask-2" fill="white">
                            <use xlink:href="#path-1"></use>
                        </mask>
                        <g id="Mask" fill-rule="nonzero"></g>
                        <g id="Colour/Vault-Text-Grey-(Default)" mask="url(#mask-2)" fill="#555555">
                            <g transform="translate(-24.000000, -24.000000)" id="Colour">
                                <rect x="0" y="0" width="64" height="64"></rect>
                            </g>
                        </g>
                    </g>
                </g>
            </g>
        </g>
    </g>
</svg>