<?xml version="1.0" encoding="UTF-8"?>
<svg width="23px" height="23px" viewBox="0 0 23 23" version="1.1" xmlns="http://www.w3.org/2000/svg" xmlns:xlink="http://www.w3.org/1999/xlink">
    <!-- Generator: Sketch 56.2 (81672) - https://sketch.com -->
    <title>zoom-search-24px</title>
    <desc>Created with Sketch.</desc>
    <defs>
        <path d="M22,19.878 L17.328,15.206 C20.0494304,11.3812248 19.3857055,6.10905629 15.8011981,3.07814957 C12.2166907,0.0472428527 6.90753675,0.268999449 3.5882681,3.5882681 C0.268999449,6.90753675 0.0472428527,12.2166907 3.07814957,15.8011981 C6.10905629,19.3857055 11.3812248,20.0494304 15.206,17.328 L19.878,22 C20.4639741,22.5859741 21.4140259,22.5859741 22,22 C22.5859741,21.4140259 22.5859741,20.4639741 22,19.878 Z M3,10 C3,6.13400675 6.13400675,3 10,3 C13.8659932,3 17,6.13400675 17,10 C17,13.8659932 13.8659932,17 10,17 C6.13583434,16.9955914 3.00440864,13.8641657 3,10 Z" id="path-1"></path>
    </defs>
    <g id="Solo-Icons-Final" stroke="none" stroke-width="1" fill="none" fill-rule="evenodd">
        <g id="All-Nucleo-Icons" transform="translate(-608.000000, -6804.000000)">
            <g id="Solo/Nucleo/24px/zoom-search" transform="translate(608.000000, 6804.000000)">
                <g id="zoom">
                    <g id="Colour/Default-Colour">
                        <mask id="mask-2" fill="white">
                            <use xlink:href="#path-1"></use>
                        </mask>
                        <use id="Mask" fill="#000000" fill-rule="nonzero" xlink:href="#path-1"></use>
                        <g id="Colour/Vault-Text-Grey-(Default)" mask="url(#mask-2)" fill="#555555">
                            <g transform="translate(-20.000000, -19.000000)" id="Colour">
                                <rect x="0" y="0" width="64" height="64"></rect>
                            </g>
                        </g>
                    </g>
                </g>
            </g>
        </g>
    </g>
</svg>