<svg width="11" height="16" xmlns="http://www.w3.org/2000/svg" xmlns:xlink="http://www.w3.org/1999/xlink"><defs><path d="M10.313 2.667H.687A.677.677 0 000 3.333v12c0 .369.308.667.688.667h9.624c.38 0 .688-.298.688-.667v-12a.677.677 0 00-.688-.666zm-2.063 11h-5.5v-1.334h5.5v1.334zm0-2.334h-5.5V10h5.5v1.333zM8.25 9h-5.5V7.667h5.5V9zm0-3.667v1.334h-5.5V5.333h5.5zM8.25 0v1.333h-5.5V0h5.5z" id="battery-full-16px_svg__a"/></defs><use fill="#737373" xlink:href="#battery-full-16px_svg__a" fill-rule="evenodd"/></svg>