<svg width="16" height="10" xmlns="http://www.w3.org/2000/svg" xmlns:xlink="http://www.w3.org/1999/xlink"><defs><path d="M14.047.199c2.604 2.652 2.604 6.95 0 9.602a.657.657 0 01-.86.072l-.082-.072a.687.687 0 010-.96c2.082-2.12 2.083-5.558.002-7.679l-.003-.003a.688.688 0 01-.07-.876l.07-.084a.659.659 0 01.943 0zm-11.152 0c.26.265.26.695 0 .96-2.023 2.06-2.08 5.365-.173 7.496l.174.185a.69.69 0 01.07.876l-.07.085a.657.657 0 01-.86.072L1.952 9.8c-2.604-2.652-2.604-6.95 0-9.602a.659.659 0 01.942 0zm9.267 1.921a4.126 4.126 0 010 5.76.657.657 0 01-.86.072l-.083-.071a.688.688 0 010-.96 2.751 2.751 0 000-3.84.688.688 0 010-.96.657.657 0 01.943 0zm-7.381 0c.26.264.26.694 0 .959a2.751 2.751 0 000 3.84v.002c.26.264.26.693 0 .959a.657.657 0 01-.86.072l-.083-.071a4.126 4.126 0 01-.002-5.759l.002-.003a.657.657 0 01.943 0zM8 2.962c1.102 0 2 .914 2 2.037 0 1.123-.898 2.037-2 2.037-1.103 0-2-.914-2-2.037 0-1.123.897-2.037 2-2.037z" id="beacon-16px_svg__a"/></defs><use fill="#737373" xlink:href="#beacon-16px_svg__a" fill-rule="evenodd"/></svg>