<?xml version="1.0" encoding="UTF-8"?>
<svg width="20px" height="13px" viewBox="0 0 20 13" version="1.1" xmlns="http://www.w3.org/2000/svg" xmlns:xlink="http://www.w3.org/1999/xlink">
    <!-- Generator: Sketch 59.1 (86144) - https://sketch.com -->
    <title>beacon-20px</title>
    <desc>Created with Sketch.</desc>
    <defs>
        <path d="M17.5593242,0.248255844 C20.8135586,3.56342619 20.8135586,8.936786 17.5593242,12.2511076 C17.2606374,12.5553094 16.7931913,12.5806596 16.466378,12.3271581 L16.3809663,12.2511076 C16.0551261,11.9192511 16.0551261,11.3828487 16.3809663,11.0509922 C18.9835205,8.40123237 18.9851872,4.10407224 16.3842997,1.45261496 L16.3801329,1.44837127 C16.08221,1.14494746 16.0573831,0.668221979 16.3062941,0.335260813 L16.3809663,0.248255844 C16.7068064,-0.0827519479 17.233484,-0.0827519479 17.5593242,0.248255844 Z M3.61903373,0.248255844 C3.94487385,0.580112373 3.94487385,1.11736348 3.61903373,1.44837127 C1.07763158,4.03669862 1.017122,8.19491255 3.437505,10.8579964 L3.61986708,11.0501434 C3.94487385,11.382 3.94487385,11.9184023 3.61986708,12.2502589 L3.61903373,12.2511076 C3.32034695,12.5553094 2.85290087,12.5806596 2.52608754,12.3271581 L2.44067585,12.2511076 C-0.813558616,8.936786 -0.813558616,3.56342619 2.44067585,0.248255844 C2.76651597,-0.0827519479 3.29319361,-0.0827519479 3.61903373,0.248255844 Z M15.2025251,2.6500993 C17.1550657,4.63784353 17.1550657,7.86219891 15.2025251,9.85079187 C14.9046022,10.1549937 14.4365195,10.1803438 14.1095948,9.92684233 L14.0241672,9.85079187 C13.6991604,9.51893534 13.6991604,8.98253297 14.0241672,8.65067644 C15.325861,7.3249478 15.325861,5.17509463 14.0241672,3.85021473 C13.6991604,3.5183582 13.6991604,2.98025836 14.0241672,2.6500993 C14.3500073,2.31824277 14.8775183,2.31824277 15.2025251,2.6500993 Z M5.97583283,2.64925056 C6.30167295,2.98025836 6.30167295,3.51750946 5.97583283,3.84851725 L5.97583283,3.84936599 C4.67413904,5.1742459 4.67413904,7.32409906 5.97583283,8.64982771 L5.97583283,8.65067644 C6.30167295,8.98168424 6.30167295,9.51808661 5.97666618,9.84994313 L5.97583283,9.85079187 C5.67714605,10.1549937 5.20969997,10.1803438 4.88288664,9.92684233 L4.79747495,9.85079187 C2.84576762,7.86304765 2.84493427,4.64038974 4.7949749,2.65264552 L4.79747495,2.64925056 C5.12331507,2.31739404 5.65082606,2.31739404 5.97583283,2.64925056 Z M10.00025,3.70321332 C11.3786121,3.70321332 12.5003021,4.84646331 12.5003021,6.2494271 C12.5003021,7.65323963 11.3786121,8.79564088 10.00025,8.79564088 C8.62188796,8.79564088 7.50019792,7.65323963 7.50019792,6.2494271 C7.50019792,4.84646331 8.62188796,3.70321332 10.00025,3.70321332 Z" id="path-1"></path>
    </defs>
    <g id="Final" stroke="none" stroke-width="1" fill="none" fill-rule="evenodd">
        <g id="All-Nucleo-Icons" transform="translate(-463.000000, -7319.000000)">
            <g id="Solo/Nucleo/20px/beacon" transform="translate(461.000000, 7313.000000)">
                <g transform="translate(2.000000, 6.000000)" id="Solo/Nucleo/16px/beacon">
                    <g>
                        <g>
                            <mask id="mask-2" fill="white">
                                <use xlink:href="#path-1"></use>
                            </mask>
                            <use id="Mask" fill="#000000" xlink:href="#path-1"></use>
                            <g id="colour/neutral/chia" mask="url(#mask-2)" fill="#737373">
                                <g transform="translate(-22.000000, -24.750000)" id="Colour">
                                    <rect x="0" y="0" width="64" height="64"></rect>
                                </g>
                            </g>
                        </g>
                    </g>
                </g>
            </g>
        </g>
    </g>
</svg>