<svg width="12" height="8" xmlns="http://www.w3.org/2000/svg" xmlns:xlink="http://www.w3.org/1999/xlink"><defs><path d="M10.536.159c1.952 2.122 1.952 5.56 0 7.682a.47.47 0 01-.638.063l-.07-.063a.576.576 0 010-.768c1.562-1.696 1.563-4.446.003-6.143L9.828.927a.579.579 0 01-.057-.693L9.829.16a.473.473 0 01.707 0zm-8.365 0a.576.576 0 010 .768c-1.51 1.64-1.56 4.266-.15 5.972l.15.173a.58.58 0 01.059.693l-.059.076a.47.47 0 01-.637.063l-.07-.063C-.488 5.72-.488 2.28 1.464.159a.473.473 0 01.707 0zm6.95 1.537c1.172 1.272 1.172 3.336 0 4.609a.47.47 0 01-.637.062l-.07-.062a.577.577 0 010-.769c.782-.848.782-2.224 0-3.072a.577.577 0 010-.768.472.472 0 01.708 0zm-5.536 0c.174.188.194.48.058.692l-.058.076c-.78.848-.78 2.223 0 3.072a.576.576 0 01.001.768.47.47 0 01-.638.063l-.07-.062c-1.17-1.273-1.171-3.335-.001-4.607l.001-.002a.472.472 0 01.707 0zM6 2.37c.827 0 1.5.732 1.5 1.63 0 .898-.673 1.63-1.5 1.63S4.5 4.897 4.5 4c0-.898.673-1.63 1.5-1.63z" id="beacon-12px_svg__a"/></defs><use fill="#737373" xlink:href="#beacon-12px_svg__a" fill-rule="evenodd"/></svg>