<svg width="20" height="13" xmlns="http://www.w3.org/2000/svg" xmlns:xlink="http://www.w3.org/1999/xlink"><defs><path d="M17.56.248c3.254 3.315 3.254 8.689 0 12.003a.821.821 0 01-1.094.076l-.085-.076a.859.859 0 010-1.2c2.603-2.65 2.604-6.947.003-9.598l-.004-.005a.86.86 0 01-.074-1.113l.075-.087a.823.823 0 011.178 0zm-13.941 0a.859.859 0 010 1.2c-2.541 2.589-2.602 6.747-.181 9.41l.182.192a.86.86 0 010 1.2l-.001.001a.821.821 0 01-1.093.076l-.085-.076C-.814 8.937-.814 3.563 2.44.248a.823.823 0 011.178 0zM15.203 2.65c1.952 1.988 1.952 5.212 0 7.2a.821.821 0 01-1.093.077l-.086-.076a.86.86 0 010-1.2 3.439 3.439 0 000-4.8.86.86 0 010-1.2.822.822 0 011.179 0zm-9.227 0a.858.858 0 010 1.199 3.439 3.439 0 000 4.8v.002a.859.859 0 010 1.199.821.821 0 01-1.093.077l-.086-.076c-1.951-1.988-1.952-5.21-.002-7.198l.002-.004a.822.822 0 011.179 0zM10 3.702c1.379 0 2.5 1.143 2.5 2.546 0 1.404-1.121 2.547-2.5 2.547-1.378 0-2.5-1.143-2.5-2.547 0-1.403 1.122-2.546 2.5-2.546z" id="beacon-20px_svg__a"/></defs><use fill="#737373" xlink:href="#beacon-20px_svg__a" fill-rule="evenodd"/></svg>