<svg width="24" height="15" xmlns="http://www.w3.org/2000/svg" xmlns:xlink="http://www.w3.org/1999/xlink"><defs><path d="M21.071.298c3.905 3.978 3.905 10.426 0 14.403a.986.986 0 01-1.32.085l-.094-.085a1.03 1.03 0 010-1.44c3.123-3.18 3.125-8.336.004-11.518l-.005-.005a1.032 1.032 0 01-.082-1.344l.083-.096a.988.988 0 011.414 0zm-16.728 0a1.03 1.03 0 010 1.44c-3.124 3.182-3.124 8.34 0 11.522.39.398.39 1.042 0 1.44v.001a.986.986 0 01-1.32.085l-.094-.085C-.976 10.724-.976 4.276 2.929.298a.988.988 0 011.414 0zm13.9 2.882c2.343 2.385 2.343 6.255 0 8.641a.985.985 0 01-1.32.085l-.094-.085a1.033 1.033 0 010-1.44 4.126 4.126 0 000-5.76 1.033 1.033 0 010-1.44.986.986 0 011.414 0zm-11.072 0a1.03 1.03 0 010 1.438v.001a4.126 4.126 0 000 5.76v.002a1.03 1.03 0 01.001 1.439l-.001.001a.986.986 0 01-1.32.085l-.094-.085c-2.342-2.385-2.343-6.253-.003-8.638l.003-.004a.986.986 0 011.414 0zm4.83 1.264c1.653 0 3 1.372 3 3.055 0 1.685-1.347 3.056-3 3.056-1.655 0-3-1.371-3-3.056 0-1.683 1.345-3.055 3-3.055z" id="beacon-24px_svg__a"/></defs><use fill="#737373" xlink:href="#beacon-24px_svg__a" fill-rule="evenodd"/></svg>