<svg width="14" height="20" xmlns="http://www.w3.org/2000/svg"><path d="M7.425 20a.823.823 0 01-.813-.833v-7.879l-4.355 3.694a.805.805 0 01-1.147-.108.846.846 0 01.111-1.176l4.929-4.18-4.929-4.18a.845.845 0 01-.11-1.176.805.805 0 011.146-.108L6.612 7.75V.833c0-.307.164-.589.428-.734a.795.795 0 01.833.04l5.689 3.86a.838.838 0 01.36.648.843.843 0 01-.291.685L8.7 9.514l4.93 4.183a.842.842 0 01.295.642.842.842 0 01-.294.642l-5.689 4.825a.8.8 0 01-.517.194zm.812-8.712v6.108l3.601-3.054-3.6-3.054zm0-8.905V7.75l3.513-2.98-3.513-2.387z" fill="#737373" fill-rule="evenodd"/></svg>