<svg width="12" height="16" xmlns="http://www.w3.org/2000/svg"><path d="M6.058 16a.659.659 0 01-.65-.667V9.031l-3.484 2.955a.644.644 0 01-.918-.087.676.676 0 01.09-.94l3.942-3.345L1.095 4.27a.676.676 0 01-.089-.94.644.644 0 01.918-.087L5.408 6.2V.667A.67.67 0 015.75.079a.636.636 0 01.667.032l4.55 3.088a.674.674 0 01.055 1.067L7.079 7.61l3.945 3.346c.15.127.236.315.236.514a.674.674 0 01-.236.514l-4.55 3.86a.64.64 0 01-.415.155zm.65-6.97v4.887l2.88-2.443-2.88-2.443zm0-7.123V6.2l2.81-2.383-2.81-1.91z" fill="#737373" fill-rule="evenodd"/></svg>