<svg width="9" height="12" xmlns="http://www.w3.org/2000/svg"><path d="M4.544 12a.494.494 0 01-.488-.5V6.773L1.443 8.989a.483.483 0 01-.688-.065.507.507 0 01.066-.705L3.78 5.71.822 3.203a.507.507 0 01-.067-.706.483.483 0 01.688-.065L4.056 4.65V.5c0-.184.099-.353.257-.44a.477.477 0 01.5.023l3.413 2.316a.506.506 0 01.041.8L5.31 5.709l2.958 2.509a.505.505 0 010 .77l-3.413 2.895a.48.48 0 01-.31.117zm.487-5.227v3.664l2.16-1.832-2.16-1.832zm0-5.343v3.22L7.14 2.862 5.03 1.43z" fill="#737373" fill-rule="evenodd"/></svg>