<svg width="16" height="24" xmlns="http://www.w3.org/2000/svg"><path d="M7.791 24a.988.988 0 01-.975-1v-9.454L1.59 17.979a.966.966 0 01-1.376-.13 1.015 1.015 0 01.133-1.411l5.914-5.017L.347 6.405a1.015 1.015 0 01-.133-1.41.966.966 0 011.376-.13L6.816 9.3V1c0-.368.197-.707.514-.881a.955.955 0 011 .047l6.826 4.632c.255.175.416.464.432.779.016.315-.113.62-.35.821l-5.917 5.019 5.917 5.019c.224.19.354.472.354.77 0 .299-.13.581-.354.771l-6.826 5.79a.96.96 0 01-.62.233zm.975-10.454v7.329l4.321-3.664-4.32-3.665zm0-10.686V9.3l4.216-3.575L8.766 2.86z" fill="#737373" fill-rule="evenodd"/></svg>