<svg width="24" height="14" xmlns="http://www.w3.org/2000/svg" xmlns:xlink="http://www.w3.org/1999/xlink"><defs><path d="M21.436 7.314l-8.264-2.427c-.292-.086-.378-.345-.19-.576l1.671-2.066c.186-.231.579-.35.871-.264l5.477 1.608c.292.086.559.399.594.695l.31 2.647c.034.296-.177.468-.469.383m-.239 2.202a.831.831 0 01-1.032.57.84.84 0 01-.567-1.04.832.832 0 011.032-.57.839.839 0 01.567 1.04m-1.513 2.313l2.195.645-.152.521a.691.691 0 01-.856.475l-.867-.255a.699.699 0 01-.47-.864l.15-.522zm-6.603.41v.543a.694.694 0 01-.69.697h-.904a.696.696 0 01-.69-.697v-.543h2.284zm-10.05 0v.543c0 .384-.31.697-.692.697h-.903a.696.696 0 01-.691-.697v-.543H3.03zM13.925 1.713c.317-.4.972-.61 1.46-.466l6.124 1.798c.489.144.93.675.984 1.185l.189 1.798.098.925.798.234a.592.592 0 01-.329 1.136l-.358-.105c.002.447-.059.986-.163 1.345l-.692 2.396-2.194-.644v-.001l-6.234-1.831v-.275c0-.24-.032-.54-.088-.844.478-.127.83-.565.83-1.085 0-.62-.499-1.122-1.112-1.122h-.479l-.216-.531-.681-1.674c-.037-.09-.102-.167-.155-.251l.525.154.576-.73zm-3.822 1.58c.404 0 .84.247 1.101.586.071.085.131.176.171.274l.682 1.674.304.746.046.113h.831a.59.59 0 01.587.592.59.59 0 01-.587.592h-.373l.014.053c.059.21.11.438.145.662l.001.01c.035.22.056.435.056.612v2.496H.745V9.207c0-.374.091-.909.216-1.337H.587A.59.59 0 010 7.278a.59.59 0 01.587-.592h.833l.352-.862.68-1.67c.193-.475.763-.86 1.272-.86zm.663 5.461a.837.837 0 00-.833.84c0 .463.373.84.833.84.46 0 .832-.377.832-.84a.836.836 0 00-.832-.84zm-7.705 0a.836.836 0 00-.832.84c0 .463.372.84.832.84.46 0 .833-.377.833-.84a.837.837 0 00-.833-.84zM9.766 3.96H4.061c-.305 0-.648.225-.763.5L2.267 6.911c-.115.275.039.5.343.5h8.607c.153 0 .267-.056.329-.147a.304.304 0 00.052-.159.446.446 0 00-.038-.194l-1.03-2.454c-.117-.274-.459-.499-.764-.499zm.295-3.598l.024.01a.135.135 0 01.057.062l.355.778.387-.28c.018-.014.047-.01.074.01.027.02.048.051.055.083l.409 2.078c.006.028-.001.052-.018.064a.041.041 0 01-.022.007c-.031.003-.07-.022-.091-.06L10.61 1.96l-.346.251c-.016.011-.04.011-.062-.002a.133.133 0 01-.057-.062L9.51.827C9.49.79 9.494.75 9.516.733l.506-.365c.016-.012.039-.01.063.002zm2.018-.36l.618.064c.02.002.038.019.046.044a.14.14 0 01.002.086l-.248.819.473.049c.022.003.042.025.05.058a.144.144 0 01-.014.098L11.94 3.046c-.012.025-.034.038-.053.036a.039.039 0 01-.023-.01c-.025-.018-.037-.061-.028-.105l.252-1.318-.424-.044c-.02-.002-.037-.018-.046-.043a.134.134 0 01-.002-.084l.396-1.413c.011-.041.04-.067.067-.064z" id="car-collision-24px_svg__a"/></defs><use fill="#737373" xlink:href="#car-collision-24px_svg__a" fill-rule="evenodd"/></svg>