<?xml version="1.0" encoding="UTF-8"?>
<svg width="12px" height="9px" viewBox="0 0 12 9" version="1.1" xmlns="http://www.w3.org/2000/svg" xmlns:xlink="http://www.w3.org/1999/xlink">
    <!-- Generator: Sketch 56.2 (81672) - https://sketch.com -->
    <title>car-driving-12px</title>
    <desc>Created with Sketch.</desc>
    <defs>
        <path d="M11.7488571,4.41759375 L10.8208571,3.50409375 L9.82857143,0.57684375 C9.71203926,0.232835662 9.38524231,0.000597815109 9.01685714,0 L2.98314286,0 C2.61475769,0.000597815109 2.28796074,0.232835662 2.17142857,0.57684375 L1.17885714,3.50409375 L0.250857143,4.417875 C0.0902752868,4.57604909 0,4.7905047 0,5.014125 L0,7.3125 L12,7.3125 L12,5.01440625 C12,4.79055066 11.9096838,4.57585965 11.7488571,4.41759375 Z M2.712,0.754875 C2.7508777,0.63997235 2.86011217,0.562470837 2.98314286,0.562499992 L9.01685714,0.562499992 C9.13988783,0.562470837 9.2491223,0.63997235 9.288,0.754875 L10.1751429,3.375 L1.82485714,3.375 L2.712,0.754875 Z M1.71428571,6.1875 C1.39869443,6.1875 1.14285714,5.93566017 1.14285714,5.625 C1.14285714,5.31433983 1.39869443,5.0625 1.71428571,5.0625 C2.029877,5.0625 2.28571429,5.31433983 2.28571429,5.625 C2.28571429,5.93566017 2.029877,6.1875 1.71428571,6.1875 Z M10.2857143,6.1875 C9.970123,6.1875 9.71428571,5.93566017 9.71428571,5.625 C9.71428571,5.31433983 9.970123,5.0625 10.2857143,5.0625 C10.6013056,5.0625 10.8571429,5.31433983 10.8571429,5.625 C10.8571429,5.93566017 10.6013056,6.1875 10.2857143,6.1875 Z M0,7.875 L2.85714286,7.875 L2.85714286,8.71875 C2.85714286,8.87408009 2.72922421,9 2.57142857,9 L0.285714286,9 C0.127918643,9 0,8.87408009 0,8.71875 L0,7.875 Z M9.14285714,7.875 L12,7.875 L12,8.71875 C12,8.87408009 11.8720814,9 11.7142857,9 L9.42857143,9 C9.27077579,9 9.14285714,8.87408009 9.14285714,8.71875 L9.14285714,7.875 Z" id="path-1"></path>
    </defs>
    <g id="Solo-Icons-Final" stroke="none" stroke-width="1" fill="none" fill-rule="evenodd">
        <g id="All-Nucleo-Icons" transform="translate(-173.000000, -1050.000000)">
            <g id="Solo/Nucleo/12px/car-driving" transform="translate(173.000000, 1050.000000)">
                <g id="driving">
                    <g id="Colour/Default-Colour">
                        <mask id="mask-2" fill="white">
                            <use xlink:href="#path-1"></use>
                        </mask>
                        <g id="Mask" fill-rule="nonzero"></g>
                        <g id="Colour/Vault-Text-Grey-(Default)" mask="url(#mask-2)" fill="#555555">
                            <g transform="translate(-18.000000, -18.750000)" id="Colour">
                                <rect x="0" y="0" width="48" height="48"></rect>
                            </g>
                        </g>
                    </g>
                </g>
            </g>
        </g>
    </g>
</svg>