<?xml version="1.0" encoding="UTF-8"?>
<svg width="20px" height="15px" viewBox="0 0 20 15" version="1.1" xmlns="http://www.w3.org/2000/svg" xmlns:xlink="http://www.w3.org/1999/xlink">
    <!-- Generator: Sketch 56.2 (81672) - https://sketch.com -->
    <title>car-driving-20px</title>
    <desc>Created with Sketch.</desc>
    <defs>
        <path d="M19.5814286,7.36265625 L18.0347619,5.84015625 L16.3809524,0.96140625 C16.1867321,0.388059437 15.6420705,0.000996358515 15.0280952,0 L4.97190476,0 C4.35792948,0.000996358515 3.81326789,0.388059437 3.61904762,0.96140625 L1.9647619,5.84015625 L0.418095238,7.363125 C0.150458811,7.62674849 0,7.98417449 0,8.356875 L0,12.1875 L20,12.1875 L20,8.35734375 C20,7.98425111 19.8494729,7.62643275 19.5814286,7.36265625 Z M4.52,1.258125 C4.58479616,1.06662058 4.76685361,0.937451395 4.97190476,0.937499986 L15.0280952,0.937499986 C15.2331464,0.937451395 15.4152038,1.06662058 15.48,1.258125 L16.9585714,5.625 L3.04142857,5.625 L4.52,1.258125 Z M2.85714286,10.3125 C2.33115738,10.3125 1.9047619,9.89276695 1.9047619,9.375 C1.9047619,8.85723305 2.33115738,8.4375 2.85714286,8.4375 C3.38312833,8.4375 3.80952381,8.85723305 3.80952381,9.375 C3.80952381,9.89276695 3.38312833,10.3125 2.85714286,10.3125 Z M17.1428571,10.3125 C16.6168717,10.3125 16.1904762,9.89276695 16.1904762,9.375 C16.1904762,8.85723305 16.6168717,8.4375 17.1428571,8.4375 C17.6688426,8.4375 18.0952381,8.85723305 18.0952381,9.375 C18.0952381,9.89276695 17.6688426,10.3125 17.1428571,10.3125 Z M0,13.125 L4.76190476,13.125 L4.76190476,14.53125 C4.76190476,14.7901335 4.54870702,15 4.28571428,15 L0.476190476,15 C0.213197738,15 0,14.7901335 0,14.53125 L0,13.125 Z M15.2380952,13.125 L20,13.125 L20,14.53125 C20,14.7901335 19.7868023,15 19.5238095,15 L15.7142857,15 C15.451293,15 15.2380952,14.7901335 15.2380952,14.53125 L15.2380952,13.125 Z" id="path-1"></path>
    </defs>
    <g id="Solo-Icons-Final" stroke="none" stroke-width="1" fill="none" fill-rule="evenodd">
        <g id="All-Nucleo-Icons" transform="translate(-463.000000, -1047.000000)">
            <g id="Solo/Nucleo/20px/car-driving" transform="translate(463.000000, 1047.000000)">
                <g id="driving">
                    <g>
                        <g id="Colour/Default-Colour">
                            <mask id="mask-2" fill="white">
                                <use xlink:href="#path-1"></use>
                            </mask>
                            <g id="Mask" fill-rule="nonzero"></g>
                            <g id="Colour/Vault-Text-Grey-(Default)" mask="url(#mask-2)" fill="#555555">
                                <g transform="translate(-22.000000, -24.000000)" id="Colour">
                                    <rect x="0" y="0" width="64" height="64"></rect>
                                </g>
                            </g>
                        </g>
                    </g>
                </g>
            </g>
        </g>
    </g>
</svg>