<svg width="16" height="9" xmlns="http://www.w3.org/2000/svg" xmlns:xlink="http://www.w3.org/1999/xlink"><defs><path d="M7.177 6.844a.557.557 0 01-.555-.56.557.557 0 111.111 0c0 .31-.249.56-.556.56m-5.137 0a.557.557 0 01-.554-.56c0-.31.249-.56.554-.56.307 0 .556.25.556.56 0 .31-.249.56-.556.56m-.529-2.347l.687-1.636a.598.598 0 01.509-.333h3.804c.202 0 .432.15.509.333l.687 1.636a.298.298 0 01.025.129.208.208 0 01-.034.106c-.042.06-.119.098-.22.098H1.74c-.203 0-.305-.15-.229-.333m11.612 3.277l1.462.43-.1.348a.46.46 0 01-.571.316l-.578-.17a.466.466 0 01-.313-.576l.1-.348zm-4.402.273v.362a.463.463 0 01-.46.464h-.602a.463.463 0 01-.462-.464v-.362H8.72zm-6.702 0v.362a.462.462 0 01-.46.464H.957a.463.463 0 01-.46-.464v-.362h1.522zM9.283 1.03c.211-.268.648-.407.974-.31l4.082 1.197c.326.096.62.45.655.79l.127 1.2.065.615.532.157a.394.394 0 01.266.49.39.39 0 01-.485.267l-.238-.07c.001.297-.04.657-.11.897l-.46 1.597-1.463-.43-4.157-1.22v-.184a3.3 3.3 0 00-.058-.563.747.747 0 00.553-.723.745.745 0 00-.74-.748h-.32l-.145-.354-.454-1.116c-.024-.06-.067-.112-.102-.167l.35.102.383-.486zM6.736 2.084c.269 0 .559.165.734.39a.697.697 0 01.113.183l.454 1.116.203.497.032.076h.553c.216 0 .391.177.391.394a.393.393 0 01-.391.395h-.249l.01.036a4.357 4.357 0 01.098.447c.022.147.037.29.037.409V7.69H.496V6.028c0-.25.062-.606.145-.892H.392A.393.393 0 010 4.74c0-.217.175-.394.392-.394h.555l.234-.575.454-1.114c.128-.316.509-.573.848-.573zm7.017 3.454a.56.56 0 00-.311 1.074.555.555 0 00.69-.38.559.559 0 00-.379-.694zm-3.404-4.33a.594.594 0 00-.58.176L8.653 2.761c-.125.154-.067.327.127.384l5.51 1.618c.194.057.335-.058.311-.255l-.206-1.765A.6.6 0 0014 2.28zM6.716.235l.023.007a.093.093 0 01.037.041l.23.51.254-.184c.013-.009.032-.007.049.006a.091.091 0 01.035.055l.269 1.358c.003.02-.001.034-.012.041a.025.025 0 01-.015.005c-.02.002-.044-.014-.06-.039l-.444-.754-.227.164c-.01.008-.024.007-.04 0a.085.085 0 01-.037-.04L6.362.54c-.012-.026-.01-.05.005-.06l.33-.24c.01-.008.026-.008.042.001zM8.042 0l.405.043c.012.001.024.011.03.028a.09.09 0 010 .056l-.162.535.31.033c.015.001.028.016.033.037a.097.097 0 01-.01.065l-.695 1.194c-.01.016-.024.025-.036.024a.047.047 0 01-.015-.006c-.016-.013-.024-.04-.02-.069l.166-.862-.277-.029c-.013 0-.023-.012-.03-.028A.093.093 0 017.74.966l.259-.923c.007-.027.025-.045.043-.043z" id="car-collision-16px_svg__a"/></defs><use fill="#737373" xlink:href="#car-collision-16px_svg__a" fill-rule="evenodd"/></svg>