<svg width="12" height="8" xmlns="http://www.w3.org/2000/svg" xmlns:xlink="http://www.w3.org/1999/xlink"><defs><path d="M5.383 5.265c.23 0 .416.188.416.42a.42.42 0 01-.416.42.419.419 0 010-.84zm-3.853 0c.23 0 .416.188.416.42 0 .231-.186.42-.416.42a.418.418 0 01-.416-.42c0-.232.186-.42.416-.42zm3.353-2.398c.152 0 .323.112.381.25l.515 1.226a.228.228 0 01.02.097.165.165 0 01-.026.08c-.032.045-.088.073-.164.073H1.305c-.152 0-.23-.112-.172-.25l.516-1.226a.445.445 0 01.381-.25h2.853zm4.959 3.935l1.097.322-.075.261a.347.347 0 01-.429.237l-.434-.127a.35.35 0 01-.234-.432l.075-.26zm-3.301.205v.272a.347.347 0 01-.345.348h-.452a.347.347 0 01-.346-.348v-.272H6.54zm-5.026 0v.272a.348.348 0 01-.346.348H.72a.347.347 0 01-.347-.348v-.272h1.143zm5.447-5.263a.743.743 0 01.731-.234l3.061.9a.748.748 0 01.492.592l.095.9.05.461.397.118a.297.297 0 01.201.366.294.294 0 01-.365.201l-.178-.052c.001.223-.03.493-.082.673l-.346 1.198-1.098-.323h.001l-3.118-.916v-.137c0-.12-.016-.269-.043-.422a.561.561 0 00-.142-1.103H6.38L6.272 3.7l-.34-.837c-.02-.045-.052-.084-.078-.126l.261.078.29-.365zm-1.91.79c.201 0 .42.124.55.293a.582.582 0 01.086.137l.341.837.151.373.023.056h.415a.296.296 0 010 .592h-.186l.008.027c.03.105.053.22.072.331.017.115.028.222.028.311V6.74H.372V5.491c0-.187.046-.455.11-.669h-.19A.294.294 0 010 4.526c0-.163.131-.296.293-.296H.71l.175-.43.341-.836a.743.743 0 01.636-.43zm5.263 2.591a.416.416 0 00-.516.285.421.421 0 00.283.521.42.42 0 00.233-.806zM7.762 1.877a.446.446 0 00-.436.133L6.49 3.043c-.093.115-.05.245.096.288l4.132 1.213c.146.043.251-.043.233-.19l-.154-1.325a.448.448 0 00-.297-.347zM4.926.25l.026.01c.016.01.03.03.039.05l.22.598.304-.188c.015-.008.036-.004.055.012a.106.106 0 01.036.065l.192 1.568c.003.02-.004.039-.015.046a.037.037 0 01-.018.005c-.023 0-.05-.02-.064-.05l-.445-.895-.271.168c-.012.008-.03.006-.046-.004a.097.097 0 01-.04-.05L4.5.57C4.487.54 4.49.51 4.509.5l.396-.245c.012-.008.029-.006.047.005z" id="car-collision-12px_svg__a"/></defs><use fill="#737373" xlink:href="#car-collision-12px_svg__a" transform="translate(0 -.25)" fill-rule="evenodd"/></svg>