<svg width="20" height="12" xmlns="http://www.w3.org/2000/svg" xmlns:xlink="http://www.w3.org/1999/xlink"><defs><path d="M8.971 8.52a.696.696 0 01-.693-.7c0-.385.31-.7.693-.7.384 0 .694.315.694.7 0 .387-.31.7-.694.7m-6.42 0a.696.696 0 01-.694-.7c0-.385.31-.7.693-.7.384 0 .694.315.694.7 0 .387-.31.7-.694.7m-.66-2.934l.858-2.045a.744.744 0 01.636-.416h4.754c.254 0 .54.187.636.416l.86 2.045a.352.352 0 01.03.162.25.25 0 01-.043.132c-.05.076-.147.122-.274.122H2.174c-.253 0-.382-.187-.285-.416m14.514 4.097l1.828.538-.125.434a.575.575 0 01-.714.395l-.722-.212a.582.582 0 01-.392-.72l.125-.435zm-5.502.34v.454c0 .32-.258.58-.575.58h-.754a.579.579 0 01-.574-.58v-.453H10.9zm-8.376 0v.454a.58.58 0 01-.576.58h-.752a.58.58 0 01-.576-.58v-.453h1.904zm9.079-8.77c.264-.334.81-.51 1.217-.39l5.104 1.5c.406.119.774.562.819.987l.158 1.499.08.77.666.195a.493.493 0 01-.273.947l-.3-.088c.003.372-.05.822-.135 1.122l-.577 1.996-1.828-.537v-.001L11.34 7.728v-.23c0-.2-.027-.45-.074-.703a.935.935 0 00.693-.904.932.932 0 00-.927-.935h-.4l-.18-.443-.568-1.394c-.03-.075-.084-.14-.127-.21l.436.128.48-.607zM8.419 2.57c.336 0 .7.206.917.489.06.07.11.146.143.228l.568 1.394.253.622.04.095h.692c.27 0 .488.22.488.493a.491.491 0 01-.488.493h-.31l.01.045a4.6 4.6 0 01.121.55l.001.008c.03.185.047.364.047.512v2.079H.621v-2.08c0-.311.076-.757.18-1.114H.49A.491.491 0 010 5.89c0-.272.22-.493.49-.493h.693l.293-.72.567-1.391c.16-.395.636-.717 1.06-.717zm8.773 4.318a.7.7 0 00-.389 1.343.7.7 0 00.389-1.343zm-4.256-5.412c-.243-.072-.57.027-.725.22l-1.393 1.72c-.155.194-.084.41.159.482l6.886 2.022c.244.07.419-.072.39-.32l-.257-2.205a.751.751 0 00-.495-.58zM8.42.286l.027.008a.11.11 0 01.046.05l.281.62.309-.223c.015-.01.037-.008.06.007a.12.12 0 01.043.067l.325 1.654c.006.022 0 .041-.013.05a.036.036 0 01-.018.007c-.024.002-.055-.018-.072-.048l-.542-.918-.275.2c-.013.008-.031.008-.05-.002a.107.107 0 01-.046-.049L7.99.66c-.014-.03-.013-.062.005-.075l.401-.292c.013-.009.032-.008.051.002zM10.036 0l.492.052c.016 0 .029.015.036.035a.105.105 0 010 .068l-.196.652.377.039c.018.002.033.02.039.046a.11.11 0 01-.012.078l-.846 1.454c-.012.02-.03.03-.044.029a.036.036 0 01-.017-.007c-.02-.015-.03-.05-.022-.085l.2-1.048-.338-.036c-.016-.001-.03-.014-.036-.034a.11.11 0 01-.002-.067L9.982.052c.009-.033.032-.054.054-.052z" id="car-collision-20px_svg__a"/></defs><use fill="#737373" xlink:href="#car-collision-20px_svg__a" fill-rule="evenodd"/></svg>