<svg width="20" height="16" xmlns="http://www.w3.org/2000/svg" xmlns:xlink="http://www.w3.org/1999/xlink"><defs><path d="M15.575 10.779a1.268 1.268 0 110-2.535 1.268 1.268 0 010 2.535m-11.146 0a1.267 1.267 0 11-.002-2.534 1.267 1.267 0 01.002 2.534m-1.15-5.315L4.77 1.759c.167-.414.664-.754 1.104-.754h8.255c.439 0 .936.34 1.103.754l1.491 3.705c.167.415-.055.754-.496.754H3.775c-.44 0-.663-.339-.496-.754m15.646 7.862v.82c0 .58-.45 1.052-1 1.052H16.62c-.551 0-1-.472-1-1.052v-.82h3.306zm-14.541 0v.82c0 .58-.45 1.052-1 1.052H2.077c-.551 0-1-.472-1-1.052v-.82h3.307zM14.615 0c.735 0 1.562.582 1.841 1.298l.986 2.527.507 1.298h1.202c.469 0 .849.4.849.893s-.38.893-.849.893h-.54c.182.646.314 1.455.314 2.019v3.768h-3.306v-.001H4.384v.001H1.077V8.928c0-.565.132-1.373.313-2.019H.849c-.469 0-.849-.4-.849-.893s.38-.893.849-.893h1.205l.508-1.302.985-2.523C3.826.582 4.651 0 5.387 0z" id="car-driving-20px_svg__a"/></defs><use fill="#737373" xlink:href="#car-driving-20px_svg__a" fill-rule="evenodd"/></svg>