<svg width="24" height="19" xmlns="http://www.w3.org/2000/svg" xmlns:xlink="http://www.w3.org/1999/xlink"><defs><path d="M18.689 12.935a1.52 1.52 0 110-3.042 1.52 1.52 0 010 3.042m-13.376 0a1.52 1.52 0 110-3.04 1.52 1.52 0 010 3.04M3.934 6.557l1.79-4.445c.2-.498.797-.906 1.324-.906h9.906c.528 0 1.124.408 1.324.906l1.79 4.445c.2.498-.067.905-.596.905H4.53c-.529 0-.796-.407-.596-.905m18.776 9.435v.984c0 .696-.538 1.263-1.2 1.263h-1.567c-.662 0-1.2-.567-1.2-1.263v-.984h3.967zm-17.45 0v.984c0 .696-.538 1.263-1.2 1.263H2.494c-.662 0-1.2-.567-1.2-1.263v-.984H5.26zM17.538 0c.882 0 1.874.699 2.209 1.558L20.93 4.59l.609 1.558h1.442c.562 0 1.019.48 1.019 1.072 0 .592-.457 1.071-1.019 1.071h-.647c.217.776.376 1.747.376 2.424v4.521h-3.967v-.002H5.259v.002H1.293v-4.521c0-.678.158-1.648.375-2.424h-.65C.456 8.291 0 7.812 0 7.22s.456-1.072 1.018-1.072h1.446l.61-1.562 1.181-3.028C4.59.699 5.582 0 6.464 0z" id="car-driving-24px_svg__a"/></defs><use fill="#737373" xlink:href="#car-driving-24px_svg__a" fill-rule="evenodd"/></svg>