<?xml version="1.0" encoding="UTF-8"?>
<svg width="20px" height="11px" viewBox="0 0 20 11" version="1.1" xmlns="http://www.w3.org/2000/svg" xmlns:xlink="http://www.w3.org/1999/xlink">
    <!-- Generator: Sketch 56.2 (81672) - https://sketch.com -->
    <title>car-collision-20px</title>
    <desc>Created with Sketch.</desc>
    <defs>
        <path d="M11.4353297,3.03360195 L12.9802898,0.949660302 C13.049038,0.85734978 13.167785,0.820678477 13.2765321,0.856085252 L18.6151443,2.62895309 C18.7238915,2.66435986 18.7976396,2.76678661 18.7988895,2.8805941 L18.8226389,5.48678569 L11.4353297,3.03360195 Z M18.7726402,7.70097369 C18.6826425,7.97916978 18.3826503,8.12964858 18.1039075,8.03607353 C17.8251647,7.943763 17.6714187,7.64280541 17.7614163,7.36460932 C17.851414,7.08767775 18.1514063,6.93719896 18.4301491,7.02950948 C18.7101418,7.12182 18.8626379,7.42277759 18.7726402,7.70097369 L18.7726402,7.70097369 Z M9.41263193,3.84378485 L9.8901196,5.27017209 L9.90136931,5.27017209 L9.42013173,3.8324041 C9.4176322,3.83619707 9.41513267,3.83999003 9.41263314,3.843783 L10.0766148,5.82352941 L10.9403425,6.68340825 C11.0903386,6.83262252 11.1740864,7.03494695 11.1740864,7.24612307 L11.1740864,9.41099449 L0.00062498386,9.41099449 L0.00062498386,7.24485855 C0.00062498386,7.03494695 0.0843728212,6.83262252 0.234368948,6.68340825 L1.09809664,5.82352941 L2.02182279,3.0655945 C2.13056998,2.74187541 2.4355621,2.52311212 2.77805326,2.52184759 L8.39665816,2.52184759 C8.73914932,2.52311212 9.04289148,2.74187541 9.15163867,3.0655945 L9.41263314,3.843783 Z M19.9126108,6.88155974 C20.0088583,7.07123889 20.0263578,7.29000218 19.9613595,7.48979756 L19.2938768,9.54718413 L11.6003254,6.99283817 L11.6003254,6.81453977 C11.6003254,6.60336364 11.5165776,6.40103921 11.3665815,6.25182494 L10.6453501,5.53483774 C10.8840939,5.55380565 11.112838,5.41976572 11.1890861,5.18329904 C11.2790837,4.90510294 11.1265877,4.60414535 10.8465949,4.51183483 C10.6278505,4.43849222 10.4003564,4.519422 10.2666099,4.69013324 L9.85162059,3.44836703 L10.8265954,2.95899482 L12.5540508,0.630999322 C12.7577955,0.357861339 13.1140363,0.245318374 13.4402779,0.352803228 L18.7776401,2.12567106 C19.1038817,2.23442044 19.3251259,2.53790709 19.3288758,2.8805941 L19.3563751,5.79153686 L19.9126108,6.88155974 Z M11.5482018,0.565749692 L10.2107363,2.3006817 L10.8607195,0.16615894 C10.881969,0.0612031406 10.9682168,0.00050581108 11.0282152,0.00050581108 C11.0507146,0.00050581108 11.0682142,0.0207382543 11.1107131,0.0397061697 L11.4419545,0.210417409 L11.5669513,0.271114739 C11.6769485,0.339399234 11.654449,0.439296923 11.5482018,0.565749692 Z M8.64365179,0.270608928 L8.76864856,0.209911598 L9.09864004,0.0392003587 C9.14113894,0.0214969709 9.16113842,0 9.18113791,0 C9.24238632,0 9.32738413,0.0606973295 9.34863358,0.165653129 L9.99986676,2.30017588 L8.6624013,0.565243881 C8.55615405,0.438791112 8.53490459,0.338893423 8.64365179,0.270608928 Z M16.6029462,9.21119912 L19.130381,10.0508455 L18.8853873,10.8057685 C18.8403885,10.9448666 18.6903923,11.0194737 18.5516459,10.9739507 L16.5291981,10.3024865 C16.3892018,10.255699 16.3129537,10.1052202 16.3579526,9.96612215 L16.6029462,9.21119912 Z M2.52555978,3.23251216 L1.69933112,5.70213475 L9.47538031,5.70213475 L8.64915164,3.23251216 C8.61290258,3.1250273 8.51040523,3.0516847 8.39665816,3.0516847 L2.77805326,3.0516847 C2.66305623,3.0516847 2.56180884,3.1250273 2.52555978,3.23251216 Z M1.59683376,8.35132028 C1.89057618,8.35132028 2.12932001,8.11358907 2.12932001,7.82021865 C2.12932001,7.52811275 1.89057618,7.29038154 1.59683376,7.29038154 C1.30309135,7.29038154 1.06434751,7.52811275 1.06434751,7.82021865 C1.06434751,8.11358907 1.30309135,8.35132028 1.59683376,8.35132028 Z M9.57787766,8.35132028 C9.87162007,8.35132028 10.1091139,8.11358907 10.1091139,7.82021865 C10.1091139,7.52811275 9.87162007,7.29038154 9.57787766,7.29038154 C9.28413525,7.29038154 9.04539141,7.52811275 9.04539141,7.82021865 C9.04539141,8.11358907 9.28413525,8.35132028 9.57787766,8.35132028 Z M8.51365514,9.94032579 L11.1735865,9.94032579 L11.1735865,10.7344492 C11.1735865,10.8811344 11.0548395,11 10.9085933,11 L8.77989827,11 C8.63240208,11 8.51365514,10.8811344 8.51365514,10.7344492 L8.51365514,9.94032579 Z M0,9.94032579 L2.65993131,9.94032579 L2.65993131,10.7344492 C2.65993131,10.8811344 2.54118438,11 2.39493815,11 L0.266243125,11 C0.119996901,11 0,10.8811344 0,10.7344492 L0,9.94032579 Z" id="path-1"></path>
    </defs>
    <g id="Solo-Icons-Final" stroke="none" stroke-width="1" fill="none" fill-rule="evenodd">
        <g id="All-Nucleo-Icons" transform="translate(-463.000000, -923.000000)">
            <g id="Solo/Nucleo/20px/car-collision" transform="translate(463.000000, 922.000000)">
                <g id="collision">
                    <g>
                        <g id="Group-15" transform="translate(0.000000, 0.698820)">
                            <g id="Colour/Default-Colour" transform="translate(0.000000, 0.301180)">
                                <mask id="mask-2" fill="white">
                                    <use xlink:href="#path-1"></use>
                                </mask>
                                <g id="Mask"></g>
                                <g id="Colour/Vault-Text-Grey-(Default)" mask="url(#mask-2)" fill="#555555">
                                    <g transform="translate(-22.000000, -27.000000)" id="Colour">
                                        <rect x="0" y="0" width="64" height="64"></rect>
                                    </g>
                                </g>
                            </g>
                        </g>
                    </g>
                </g>
            </g>
        </g>
    </g>
</svg>