<?xml version="1.0" encoding="UTF-8"?>
<svg width="16px" height="12px" viewBox="0 0 16 12" version="1.1" xmlns="http://www.w3.org/2000/svg" xmlns:xlink="http://www.w3.org/1999/xlink">
    <!-- Generator: Sketch 56.2 (81672) - https://sketch.com -->
    <title>car-driving-16px</title>
    <desc>Created with Sketch.</desc>
    <defs>
        <path d="M15.6651429,5.890125 L14.4278095,4.672125 L13.1047619,0.769125 C12.9493857,0.31044755 12.5136564,0.000797086812 12.0224762,0 L3.97752381,0 C3.48634358,0.000797086812 3.05061432,0.31044755 2.8952381,0.769125 L1.57180952,4.672125 L0.33447619,5.8905 C0.120367049,6.10139879 0,6.38733959 0,6.6855 L0,9.75 L16,9.75 L16,6.685875 C16,6.38740089 15.8795784,6.1011462 15.6651429,5.890125 Z M3.616,1.0065 C3.66783693,0.853296467 3.81348289,0.749961116 3.97752381,0.749999989 L12.0224762,0.749999989 C12.1865171,0.749961116 12.3321631,0.853296467 12.384,1.0065 L13.5668571,4.5 L2.43314286,4.5 L3.616,1.0065 Z M2.28571429,8.25 C1.8649259,8.25 1.52380952,7.91421356 1.52380952,7.5 C1.52380952,7.08578644 1.8649259,6.75 2.28571429,6.75 C2.70650267,6.75 3.04761905,7.08578644 3.04761905,7.5 C3.04761905,7.91421356 2.70650267,8.25 2.28571429,8.25 Z M13.7142857,8.25 C13.2934973,8.25 12.952381,7.91421356 12.952381,7.5 C12.952381,7.08578644 13.2934973,6.75 13.7142857,6.75 C14.1350741,6.75 14.4761905,7.08578644 14.4761905,7.5 C14.4761905,7.91421356 14.1350741,8.25 13.7142857,8.25 Z M0,10.5 L3.80952381,10.5 L3.80952381,11.625 C3.80952381,11.8321068 3.63896562,12 3.42857143,12 L0.380952381,12 C0.170558191,12 0,11.8321068 0,11.625 L0,10.5 Z M12.1904762,10.5 L16,10.5 L16,11.625 C16,11.8321068 15.8294418,12 15.6190476,12 L12.5714286,12 C12.3610344,12 12.1904762,11.8321068 12.1904762,11.625 L12.1904762,10.5 Z" id="path-1"></path>
    </defs>
    <g id="Solo-Icons-Final" stroke="none" stroke-width="1" fill="none" fill-rule="evenodd">
        <g id="All-Nucleo-Icons" transform="translate(-318.000000, -1049.000000)">
            <g id="Solo/Nucleo/16px/car-driving" transform="translate(318.000000, 1049.000000)">
                <g id="driving">
                    <g id="Colour/Default-Colour">
                        <mask id="mask-2" fill="white">
                            <use xlink:href="#path-1"></use>
                        </mask>
                        <g id="Mask" fill-rule="nonzero"></g>
                        <g id="Colour/Vault-Text-Grey-(Default)" mask="url(#mask-2)" fill="#555555">
                            <g transform="translate(-24.000000, -25.000000)" id="Colour">
                                <rect x="0" y="0" width="64" height="64"></rect>
                            </g>
                        </g>
                    </g>
                </g>
            </g>
        </g>
    </g>
</svg>