<?xml version="1.0" encoding="UTF-8"?>
<svg width="12px" height="8px" viewBox="0 0 12 8" version="1.1" xmlns="http://www.w3.org/2000/svg" xmlns:xlink="http://www.w3.org/1999/xlink">
    <!-- Generator: Sketch 56.2 (81672) - https://sketch.com -->
    <title>car-collision-12px</title>
    <desc>Created with Sketch.</desc>
    <defs>
        <path d="M6.861225,1.799115 L7.788225,0.563115 C7.829475,0.508365 7.900725,0.486615 7.965975,0.507615 L11.169225,1.559115 C11.234475,1.580115 11.278725,1.640865 11.279475,1.708365 L11.293725,3.254115 L6.861225,1.799115 Z M11.263725,4.567365 C11.209725,4.732365 11.029725,4.821615 10.862475,4.766115 C10.695225,4.711365 10.602975,4.532865 10.656975,4.367865 C10.710975,4.203615 10.890975,4.114365 11.058225,4.169115 C11.226225,4.223865 11.317725,4.402365 11.263725,4.567365 L11.263725,4.567365 Z M5.647575,2.27964 L5.934075,3.12564 L5.940825,3.12564 L5.652075,2.27289 C5.65057524,2.27513964 5.64907549,2.27738927 5.64757573,2.27963891 L6.045975,3.45384 L6.564225,3.96384 C6.654225,4.05234 6.704475,4.17234 6.704475,4.29759 L6.704475,5.58159 L0.000225,5.58159 L0.000225,4.29684 C0.000225,4.17234 0.050475,4.05234 0.140475,3.96384 L0.658725,3.45384 L1.212975,1.81809 C1.278225,1.62609 1.461225,1.49634 1.666725,1.49559 L5.037975,1.49559 C5.243475,1.49634 5.425725,1.62609 5.490975,1.81809 L5.64757573,2.27963891 Z M11.947725,4.081365 C12.005475,4.193865 12.015975,4.323615 11.976975,4.442115 L11.576475,5.662365 L6.960225,4.147365 L6.960225,4.041615 C6.960225,3.916365 6.909975,3.796365 6.819975,3.707865 L6.387225,3.282615 C6.530475,3.293865 6.667725,3.214365 6.713475,3.074115 C6.767475,2.909115 6.675975,2.730615 6.507975,2.675865 C6.376725,2.632365 6.240225,2.680365 6.159975,2.781615 L5.910975,2.045115 L6.495975,1.754865 L7.532475,0.374115 C7.654725,0.212115 7.868475,0.145365 8.064225,0.209115 L11.266725,1.260615 C11.462475,1.325115 11.595225,1.505115 11.597475,1.708365 L11.613975,3.434865 L11.947725,4.081365 Z M6.92895,0.335415 L6.12645,1.364415 L6.51645,0.098415 C6.5292,0.036165 6.58095,0.000165 6.61695,0.000165 C6.63045,0.000165 6.64095,0.012165 6.66645,0.023415 L6.8652,0.124665 L6.9402,0.160665 C7.0062,0.201165 6.9927,0.260415 6.92895,0.335415 Z M5.186175,0.160365 L5.261175,0.124365 L5.459175,0.023115 C5.484675,0.012615 5.496675,-0.000135 5.508675,-0.000135 C5.545425,-0.000135 5.596425,0.035865 5.609175,0.098115 L5.999925,1.364115 L5.197425,0.335115 C5.133675,0.260115 5.120925,0.200865 5.186175,0.160365 Z M9.961875,5.46309 L11.478375,5.96109 L11.331375,6.40884 C11.304375,6.49134 11.214375,6.53559 11.131125,6.50859 L9.917625,6.11034 C9.833625,6.08259 9.787875,5.99334 9.814875,5.91084 L9.961875,5.46309 Z M1.515225,1.91709 L1.019475,3.38184 L5.685225,3.38184 L5.189475,1.91709 C5.167725,1.85334 5.106225,1.80984 5.037975,1.80984 L1.666725,1.80984 C1.597725,1.80984 1.536975,1.85334 1.515225,1.91709 Z M0.957975,4.95309 C1.134225,4.95309 1.277475,4.81209 1.277475,4.63809 C1.277475,4.46484 1.134225,4.32384 0.957975,4.32384 C0.781725,4.32384 0.638475,4.46484 0.638475,4.63809 C0.638475,4.81209 0.781725,4.95309 0.957975,4.95309 Z M5.746725,4.95309 C5.922975,4.95309 6.065475,4.81209 6.065475,4.63809 C6.065475,4.46484 5.922975,4.32384 5.746725,4.32384 C5.570475,4.32384 5.427225,4.46484 5.427225,4.63809 C5.427225,4.81209 5.570475,4.95309 5.746725,4.95309 Z M5.108175,5.89554 L6.704175,5.89554 L6.704175,6.36654 C6.704175,6.45354 6.632925,6.52404 6.545175,6.52404 L5.267925,6.52404 C5.179425,6.52404 5.108175,6.45354 5.108175,6.36654 L5.108175,5.89554 Z M-0.00015,5.89554 L1.59585,5.89554 L1.59585,6.36654 C1.59585,6.45354 1.5246,6.52404 1.43685,6.52404 L0.1596,6.52404 C0.07185,6.52404 -0.00015,6.45354 -0.00015,6.36654 L-0.00015,5.89554 Z" id="path-1"></path>
    </defs>
    <g id="Solo-Icons-Final" stroke="none" stroke-width="1" fill="none" fill-rule="evenodd">
        <g id="All-Nucleo-Icons" transform="translate(-173.000000, -925.000000)">
            <g id="Solo/Nucleo/12px/car-collision" transform="translate(173.000000, 925.000000)">
                <g id="collision">
                    <g id="Group-15" transform="translate(0.000000, 0.524115)">
                        <g id="Colour/Default-Colour" transform="translate(0.000000, 0.225885)">
                            <mask id="mask-2" fill="white">
                                <use xlink:href="#path-1"></use>
                            </mask>
                            <g id="Mask"></g>
                            <g id="Colour/Vault-Text-Grey-(Default)" mask="url(#mask-2)" fill="#555555">
                                <g transform="translate(-18.000000, -21.000000)" id="Colour">
                                    <rect x="0" y="0" width="48" height="48"></rect>
                                </g>
                            </g>
                        </g>
                    </g>
                </g>
            </g>
        </g>
    </g>
</svg>