<svg width="12" height="10" xmlns="http://www.w3.org/2000/svg" xmlns:xlink="http://www.w3.org/1999/xlink"><defs><path d="M9.345 6.467a.76.76 0 11-.001-1.521.76.76 0 01.001 1.521m-6.688 0a.76.76 0 110-1.52.76.76 0 010 1.52m-.69-3.189l.896-2.223a.772.772 0 01.662-.452h4.952c.264 0 .561.203.662.452l.895 2.223c.1.249-.034.453-.297.453H2.265c-.264 0-.398-.204-.298-.453m9.387 4.837v.492c0 .348-.269.631-.599.631h-.783c-.33 0-.6-.283-.6-.63v-.493h1.982zm-8.724 0v.492c0 .348-.27.631-.6.631h-.783c-.331 0-.6-.283-.6-.63v-.493H2.63zM8.769 0c.441 0 .937.349 1.104.779l.592 1.516.304.778h.722c.281 0 .509.24.509.537a.523.523 0 01-.509.535h-.324c.109.388.188.873.188 1.212v2.26H.647v-2.26c0-.339.079-.824.187-1.212H.509A.523.523 0 010 3.61c0-.297.228-.537.509-.537h.724l.304-.781.591-1.513C2.295.349 2.791 0 3.233 0z" id="car-driving-12px_svg__a"/></defs><use fill="#737373" xlink:href="#car-driving-12px_svg__a" fill-rule="evenodd"/></svg>