<?xml version="1.0" encoding="UTF-8"?>
<svg width="13px" height="13px" viewBox="0 0 13 13" version="1.1" xmlns="http://www.w3.org/2000/svg" xmlns:xlink="http://www.w3.org/1999/xlink">
    <!-- Generator: Sketch 59.1 (86144) - https://sketch.com -->
    <title>check-12px</title>
    <desc>Created with Sketch.</desc>
    <defs>
        <path d="M3.72047046,5.73468615 C3.47926428,5.49347997 3.08819179,5.49347997 2.84698561,5.73468615 C2.60577943,5.97589233 2.60577943,6.36696481 2.84698561,6.608171 L4.7721193,8.53330468 C5.01332548,8.77451087 5.40439797,8.77451087 5.64560415,8.53330468 L9.49587153,4.68303731 C9.73707771,4.44183113 9.73707771,4.05075864 9.49587153,3.80955246 C9.25466535,3.56834628 8.86359286,3.56834628 8.62238668,3.80955246 L5.20886173,7.22307741 L3.72047046,5.73468615 Z M6.17142857,12.1714286 C9.48513707,12.1714286 12.1714286,9.48513707 12.1714286,6.17142857 C12.1714286,2.85772007 9.48513707,0.171428571 6.17142857,0.171428571 C2.85772007,0.171428571 0.171428571,2.85772007 0.171428571,6.17142857 C0.171428571,9.48513707 2.85772007,12.1714286 6.17142857,12.1714286 Z M6.17142857,10.7596639 C3.63741619,10.7596639 1.58319328,8.70544095 1.58319328,6.17142857 C1.58319328,3.63741619 3.63741619,1.58319328 6.17142857,1.58319328 C8.70544095,1.58319328 10.7596639,3.63741619 10.7596639,6.17142857 C10.7596639,8.70544095 8.70544095,10.7596639 6.17142857,10.7596639 Z" id="path-1"></path>
    </defs>
    <g id="Final" stroke="none" stroke-width="1" fill="none" fill-rule="evenodd">
        <g id="All-Nucleo-Icons" transform="translate(-174.000000, -6175.000000)">
            <g id="Solo/Nucleo/12px/check" transform="translate(168.000000, 6169.000000)">
                <g transform="translate(6.000000, 6.000000)">
                    <mask id="mask-2" fill="white">
                        <use xlink:href="#path-1"></use>
                    </mask>
                    <use id="Mask" fill="#737373" fill-rule="nonzero" xlink:href="#path-1"></use>
                    <g id="colour/neutral/chia" mask="url(#mask-2)" fill="#737373">
                        <g transform="translate(-21.428571, -21.428571)" id="Colour">
                            <rect x="0" y="0" width="54.8571429" height="54.8571429"></rect>
                        </g>
                    </g>
                </g>
            </g>
        </g>
    </g>
</svg>