<?xml version="1.0" encoding="UTF-8"?>
<svg width="16px" height="16px" viewBox="0 0 16 16" version="1.1" xmlns="http://www.w3.org/2000/svg" xmlns:xlink="http://www.w3.org/1999/xlink">
    <!-- Generator: Sketch 59.1 (86144) - https://sketch.com -->
    <title>check-16px</title>
    <desc>Created with Sketch.</desc>
    <defs>
        <path d="M8,-1.89570581e-14 C12.418278,-1.89570581e-14 16,3.581722 16,8 C16,12.418278 12.418278,16 8,16 C3.581722,16 -2.02116102e-13,12.418278 -2.02116102e-13,8 C-2.02116102e-13,3.581722 3.581722,-1.89570581e-14 8,-1.89570581e-14 Z M8,1.88235294 C4.62131682,1.88235294 1.88235294,4.62131682 1.88235294,8 C1.88235294,11.3786832 4.62131682,14.1176471 8,14.1176471 C11.3786832,14.1176471 14.1176471,11.3786832 14.1176471,8 C14.1176471,4.62131682 11.3786832,1.88235294 8,1.88235294 Z M11.3131025,4.84845599 C11.6255219,4.53603656 12.1320539,4.53603656 12.4444733,4.84845599 C12.7568927,5.16087542 12.7568927,5.66740741 12.4444733,5.97982684 L12.4444733,5.97982684 L7.27275613,11.151544 C6.9603367,11.4639634 6.45380472,11.4639634 6.14138528,11.151544 L6.14138528,11.151544 L3.5555267,8.56568542 C3.24310726,8.25326599 3.24310726,7.74673401 3.5555267,7.43431458 C3.86794613,7.12189514 4.37447811,7.12189514 4.68689755,7.43431458 L4.68689755,7.43431458 L6.70707071,9.45448774 Z" id="path-1"></path>
    </defs>
    <g id="Final" stroke="none" stroke-width="1" fill="none" fill-rule="evenodd">
        <g id="All-Nucleo-Icons" transform="translate(-319.000000, -6172.000000)">
            <g id="Solo/Nucleo/16px/check" transform="translate(315.000000, 6168.000000)">
                <g transform="translate(4.000000, 4.000000)">
                    <mask id="mask-2" fill="white">
                        <use xlink:href="#path-1"></use>
                    </mask>
                    <use id="Mask" fill="#737373" fill-rule="nonzero" xlink:href="#path-1"></use>
                    <g id="colour/neutral/chia" mask="url(#mask-2)" fill="#737373">
                        <g transform="translate(-20.444444, -21.333333)" id="Colour">
                            <rect x="0" y="0" width="56.8888889" height="56.8888889"></rect>
                        </g>
                    </g>
                </g>
            </g>
        </g>
    </g>
</svg>