<?xml version="1.0" encoding="UTF-8"?>
<svg width="24px" height="10px" viewBox="0 0 24 10" version="1.1" xmlns="http://www.w3.org/2000/svg" xmlns:xlink="http://www.w3.org/1999/xlink">
    <!-- Generator: Sketch 59.1 (86144) - https://sketch.com -->
    <title>chevron-up-24px</title>
    <desc>Created with Sketch.</desc>
    <defs>
        <path d="M12,10 C11.793,10 11.587,9.937 11.412,9.809 L1.2207379,2.39717302 C0.774264869,2.07246536 0.67555453,1.44729988 1.00026219,1.00082685 C1.00034144,1.00071788 1.00042071,1.00060893 1.0005,1.0005 C1.32555589,0.553927892 1.95102838,0.455306009 2.39772447,0.780191496 L12,7.764 L12,7.764 L21.6032487,0.780154547 C22.0499656,0.455285123 22.6754398,0.553921919 23.0005,1.0005 C23.3253882,1.4468417 23.2269306,2.07204704 22.7805889,2.39693521 C22.78048,2.3970145 22.7803711,2.39709377 22.7802621,2.39717302 L12.589,9.809 L12.589,9.809 C12.413,9.937 12.207,10 12,10 Z" id="path-1"></path>
    </defs>
    <g id="Final" stroke="none" stroke-width="1" fill="none" fill-rule="evenodd">
        <g id="All-Nucleo-Icons" transform="translate(-608.000000, -1706.000000)">
            <g id="Solo/Nucleo/24px/chevron-up" transform="translate(608.000000, 1699.000000)">
                <g id="ctrl-up" transform="translate(12.000000, 12.000000) rotate(-180.000000) translate(-12.000000, -12.000000) translate(0.000000, 7.000000)">
                    <g id="Colour/Default-Colour">
                        <mask id="mask-2" fill="white">
                            <use xlink:href="#path-1"></use>
                        </mask>
                        <use id="Mask" fill="#000000" fill-rule="nonzero" xlink:href="#path-1"></use>
                        <g id="colour/neutral/chia" mask="url(#mask-2)" fill="#737373">
                            <g transform="translate(-20.000000, -27.000000)" id="Colour">
                                <rect x="0" y="0" width="64" height="64"></rect>
                            </g>
                        </g>
                    </g>
                </g>
            </g>
        </g>
    </g>
</svg>