<?xml version="1.0" encoding="UTF-8"?>
<svg width="12px" height="8px" viewBox="0 0 12 8" version="1.1" xmlns="http://www.w3.org/2000/svg" xmlns:xlink="http://www.w3.org/1999/xlink">
    <!-- Generator: Sketch 59.1 (86144) - https://sketch.com -->
    <title>chevron-down-12px</title>
    <desc>Created with Sketch.</desc>
    <defs>
        <path d="M7.12428944,0.293091795 C6.73376576,-0.097697265 6.10072684,-0.097697265 5.71020316,0.293091795 L0.709898078,5.2983062 C0.31949232,5.68921329 0.31949232,6.32287373 0.709898078,6.71378083 L5.71020316,11.7189952 C6.10260599,12.0983627 6.72634994,12.0929372 7.11210727,11.7068011 C7.49786461,11.320665 7.50328477,10.6963087 7.12428944,10.3035206 L2.83102749,6.00604351 L7.12428944,1.70856643 C7.5146952,1.31765933 7.5146952,0.683998891 7.12428944,0.293091795 Z" id="path-1"></path>
    </defs>
    <g id="Final" stroke="none" stroke-width="1" fill="none" fill-rule="evenodd">
        <g id="All-Nucleo-Icons" transform="translate(-174.000000, -1313.000000)">
            <g id="Solo/Nucleo/12px/chevron-down" transform="translate(168.000000, 1305.000000)">
                <g transform="translate(5.000000, 8.000000)" id="ctrl-down">
                    <g transform="translate(7.000000, 4.000000) rotate(-90.000000) translate(-7.000000, -4.000000) translate(3.000000, -2.500000)">
                        <g id="Colour/Default-Colour" transform="translate(0.000000, 0.500000)">
                            <mask id="mask-2" fill="white">
                                <use xlink:href="#path-1"></use>
                            </mask>
                            <g id="Mask" fill-rule="nonzero"></g>
                            <g id="colour/neutral/chia" mask="url(#mask-2)" fill="#737373">
                                <g transform="translate(-28.000000, -26.000000)" id="Colour">
                                    <rect x="0" y="0" width="64" height="64"></rect>
                                </g>
                            </g>
                        </g>
                    </g>
                </g>
            </g>
        </g>
    </g>
</svg>