<?xml version="1.0" encoding="UTF-8"?>
<svg width="20px" height="10px" viewBox="0 0 20 10" version="1.1" xmlns="http://www.w3.org/2000/svg" xmlns:xlink="http://www.w3.org/1999/xlink">
    <!-- Generator: Sketch 56.2 (81672) - https://sketch.com -->
    <title>chevron-down-20px</title>
    <desc>Created with Sketch.</desc>
    <defs>
        <path d="M10,10 C9.72413793,10 9.44946492,9.90487515 9.22592152,9.71343639 L0.903124422,2.58022325 C0.404363753,2.15275084 0.346573203,1.40189057 0.774045615,0.903129899 C0.774056569,0.903117119 0.774067523,0.903104338 0.774078478,0.903091558 C1.20157536,0.404345198 1.95244386,0.346586082 2.45119022,0.774082962 C2.45120068,0.77409193 2.45121115,0.774100898 2.45122161,0.774109866 L10,7.24494649 L17.5487784,0.774109866 C18.0475099,0.346595652 18.7983804,0.40432867 19.2258946,0.903060171 C19.2259036,0.903070633 19.2259126,0.903081095 19.2259215,0.903091558 C19.6534151,1.40183408 19.5956564,2.1526968 19.0969139,2.58019039 C19.0969011,2.58020134 19.0968884,2.5802123 19.0968756,2.58022325 L10.7740785,9.71343639 C10.5505351,9.90487515 10.2758621,10 10,10 Z" id="path-1"></path>
    </defs>
    <g id="Solo-Icons-Final" stroke="none" stroke-width="1" fill="none" fill-rule="evenodd">
        <g id="All-Nucleo-Icons" transform="translate(-463.000000, -1308.000000)">
            <g id="Solo/Nucleo/20px/chevron-down" transform="translate(463.000000, 1308.000000)">
                <g id="ctrl-down">
                    <g>
                        <g id="Colour/Default-Colour">
                            <mask id="mask-2" fill="white">
                                <use xlink:href="#path-1"></use>
                            </mask>
                            <g id="Mask" fill-rule="nonzero"></g>
                            <g id="Colour/Vault-Text-Grey-(Default)" mask="url(#mask-2)" fill="#555555">
                                <g transform="translate(-22.000000, -28.000000)" id="Colour">
                                    <rect x="0" y="0" width="64" height="64"></rect>
                                </g>
                            </g>
                        </g>
                    </g>
                </g>
            </g>
        </g>
    </g>
</svg>