<?xml version="1.0" encoding="UTF-8"?>
<svg width="6px" height="6px" viewBox="0 0 6 6" version="1.1" xmlns="http://www.w3.org/2000/svg" xmlns:xlink="http://www.w3.org/1999/xlink">
    <!-- Generator: Sketch 60.1 (88133) - https://sketch.com -->
    <title>clear-12px</title>
    <desc>Created with Sketch.</desc>
    <defs>
        <path d="M3,0 C1.34314575,0 0,1.34314575 0,3 C0,4.65685425 1.34314575,6 3,6 C4.65685425,6 6,4.65685425 6,3 C5.99519432,1.34514042 4.65485958,0.00480567944 3,0 Z M4.28575758,4.28575758 C4.16743475,4.4040804 3.97559555,4.4040804 3.85727273,4.28575758 L3,3.42848485 L3,3.42848485 L2.14272727,4.28575758 C2.02440445,4.4040804 1.83256525,4.4040804 1.71424242,4.28575758 C1.5959196,4.16743475 1.5959196,3.97559555 1.71424242,3.85727273 L2.57151515,3 L2.57151515,3 L1.71424242,2.14272727 C1.5959196,2.02440445 1.5959196,1.83256525 1.71424242,1.71424242 C1.83256525,1.5959196 2.02440445,1.5959196 2.14272727,1.71424242 L3,2.57151515 L3,2.57151515 L3.85727273,1.71424242 C3.97559555,1.5959196 4.16743475,1.5959196 4.28575758,1.71424242 C4.4040804,1.83256525 4.4040804,2.02440445 4.28575758,2.14272727 L3.42848485,3 L3.42848485,3 L4.28575758,3.85727273 C4.4040804,3.97559555 4.4040804,4.16743475 4.28575758,4.28575758 Z" id="path-1"></path>
    </defs>
    <g id="Final" stroke="none" stroke-width="1" fill="none" fill-rule="evenodd">
        <g id="All-Nucleo-Icons" transform="translate(-176.000000, -7965.000000)">
            <g id="Solo/Nucleo/12px/clear-12px" transform="translate(173.000000, 7962.000000)">
                <g id="Colour/Default-Colour" transform="translate(3.000000, 3.000000)">
                    <mask id="mask-2" fill="white">
                        <use xlink:href="#path-1"></use>
                    </mask>
                    <g id="Mask" fill-rule="nonzero"></g>
                    <g id="colour/neutral/chia" mask="url(#mask-2)" fill="#737373">
                        <g transform="translate(-13.000000, -13.000000)" id="Colour">
                            <rect x="0" y="0" width="32" height="32"></rect>
                        </g>
                    </g>
                </g>
            </g>
        </g>
    </g>
</svg>