<svg width="20" height="20" xmlns="http://www.w3.org/2000/svg" xmlns:xlink="http://www.w3.org/1999/xlink"><defs><path d="M10 0C4.477 0 0 4.477 0 10s4.477 10 10 10 10-4.477 10-10C19.984 4.484 15.516.016 10 0zm3.429 13.429a.808.808 0 01-1.143 0L10 11.143l-2.286 2.286a.808.808 0 01-1.143-1.143L8.857 10 6.571 7.714A.808.808 0 117.714 6.57L10 8.857l2.286-2.286a.808.808 0 011.143 1.143L11.143 10l2.286 2.286a.808.808 0 010 1.143z" id="clear-20px_svg__a"/></defs><use fill="#737373" xlink:href="#clear-20px_svg__a" fill-rule="evenodd"/></svg>