<?xml version="1.0" encoding="UTF-8"?>
<svg width="12px" height="12px" viewBox="0 0 12 12" version="1.1" xmlns="http://www.w3.org/2000/svg" xmlns:xlink="http://www.w3.org/1999/xlink">
    <!-- Generator: Sketch 60.1 (88133) - https://sketch.com -->
    <title>clear-16px</title>
    <desc>Created with Sketch.</desc>
    <defs>
        <path d="M5.33333333,0 C2.38781467,0 0,2.38781467 0,5.33333333 C0,8.278852 2.38781467,10.6666667 5.33333333,10.6666667 C8.278852,10.6666667 10.6666667,8.278852 10.6666667,5.33333333 C10.6581232,2.39136074 8.27530593,0.00854343011 5.33333333,0 Z M7.61912458,7.61912458 C7.40877289,7.82947627 7.06772542,7.82947627 6.85737374,7.61912458 L5.33333333,6.09508418 L5.33333333,6.09508418 L3.80929293,7.61912458 C3.59894124,7.82947627 3.25789377,7.82947627 3.04754209,7.61912458 C2.8371904,7.40877289 2.8371904,7.06772542 3.04754209,6.85737374 L4.57158249,5.33333333 L4.57158249,5.33333333 L3.04754209,3.80929293 C2.8371904,3.59894124 2.8371904,3.25789377 3.04754209,3.04754209 C3.25789377,2.8371904 3.59894124,2.8371904 3.80929293,3.04754209 L5.33333333,4.57158249 L5.33333333,4.57158249 L6.85737374,3.04754209 C7.06772542,2.8371904 7.40877289,2.8371904 7.61912458,3.04754209 C7.82947627,3.25789377 7.82947627,3.59894124 7.61912458,3.80929293 L6.09508418,5.33333333 L6.09508418,5.33333333 L7.61912458,6.85737374 C7.82947627,7.06772542 7.82947627,7.40877289 7.61912458,7.61912458 Z" id="path-1"></path>
    </defs>
    <g id="Final" stroke="none" stroke-width="1" fill="none" fill-rule="evenodd">
        <g id="All-Nucleo-Icons" transform="translate(-320.000000, -7962.000000)">
            <g id="Solo/Nucleo/16px/clear-16px" transform="translate(318.000000, 7960.000000)">
                <g id="Colour/Default-Colour" transform="translate(2.666667, 2.666667)">
                    <mask id="mask-2" fill="white">
                        <use xlink:href="#path-1"></use>
                    </mask>
                    <g id="Mask" fill-rule="nonzero"></g>
                    <g id="colour/neutral/chia" mask="url(#mask-2)" fill="#737373">
                        <g transform="translate(-16.000000, -16.000000)" id="Colour">
                            <rect x="0" y="0" width="42.6666667" height="42.6666667"></rect>
                        </g>
                    </g>
                </g>
            </g>
        </g>
    </g>
</svg>