<svg width="24" height="24" xmlns="http://www.w3.org/2000/svg" xmlns:xlink="http://www.w3.org/1999/xlink"><defs><path d="M12 0C5.373 0 0 5.373 0 12s5.373 12 12 12 12-5.373 12-12C23.98 5.38 18.62.02 12 0zm4.243 16.243a1 1 0 01-1.414 0L12 13.414l-2.829 2.829a1 1 0 01-1.414-1.414L10.586 12 7.757 9.171a1 1 0 111.414-1.414L12 10.586l2.829-2.829a1 1 0 111.414 1.414L13.414 12l2.829 2.829a1 1 0 010 1.414z" id="clear-24px_svg__a"/></defs><use fill="#737373" xlink:href="#clear-24px_svg__a" fill-rule="evenodd"/></svg>