<?xml version="1.0" encoding="UTF-8"?>
<svg width="18px" height="18px" viewBox="0 0 18 18" version="1.1" xmlns="http://www.w3.org/2000/svg" xmlns:xlink="http://www.w3.org/1999/xlink">
    <!-- Generator: Sketch 60.1 (88133) - https://sketch.com -->
    <title>clear-20px</title>
    <desc>Created with Sketch.</desc>
    <defs>
        <path d="M8.33333333,0 C3.73096042,0 0,3.73096042 0,8.33333333 C0,12.9357062 3.73096042,16.6666667 8.33333333,16.6666667 C12.9357062,16.6666667 16.6666667,12.9357062 16.6666667,8.33333333 C16.6533176,3.73650115 12.9301655,0.0133491096 8.33333333,0 Z M11.1905724,11.1905724 C10.9276328,11.453512 10.5013234,11.453512 10.2383838,11.1905724 L8.33333333,9.28552189 L8.33333333,9.28552189 L6.42828283,11.1905724 C6.16534322,11.453512 5.73903388,11.453512 5.47609428,11.1905724 C5.21315467,10.9276328 5.21315467,10.5013234 5.47609428,10.2383838 L7.38114478,8.33333333 L7.38114478,8.33333333 L5.47609428,6.42828283 C5.21315467,6.16534322 5.21315467,5.73903388 5.47609428,5.47609428 C5.73903388,5.21315467 6.16534322,5.21315467 6.42828283,5.47609428 L8.33333333,7.38114478 L8.33333333,7.38114478 L10.2383838,5.47609428 C10.5013234,5.21315467 10.9276328,5.21315467 11.1905724,5.47609428 C11.453512,5.73903388 11.453512,6.16534322 11.1905724,6.42828283 L9.28552189,8.33333333 L9.28552189,8.33333333 L11.1905724,10.2383838 C11.453512,10.5013234 11.453512,10.9276328 11.1905724,11.1905724 Z" id="path-1"></path>
    </defs>
    <g id="Final" stroke="none" stroke-width="1" fill="none" fill-rule="evenodd">
        <g id="All-Nucleo-Icons" transform="translate(-464.000000, -7959.000000)">
            <g id="Solo/Nucleo/20px/clear-20px" transform="translate(463.000000, 7958.000000)">
                <g id="Colour/Default-Colour" transform="translate(1.666667, 1.666667)">
                    <mask id="mask-2" fill="white">
                        <use xlink:href="#path-1"></use>
                    </mask>
                    <g id="Mask" fill-rule="nonzero"></g>
                    <g id="colour/neutral/chia" mask="url(#mask-2)" fill="#737373">
                        <g transform="translate(-18.333333, -18.333333)" id="Colour">
                            <rect x="0" y="0" width="53.3333333" height="53.3333333"></rect>
                        </g>
                    </g>
                </g>
            </g>
        </g>
    </g>
</svg>