<svg width="20" height="20" xmlns="http://www.w3.org/2000/svg" xmlns:xlink="http://www.w3.org/1999/xlink"><defs><path d="M9.99 0C4.47 0 0 4.48 0 10s4.47 10 9.99 10C15.52 20 20 15.52 20 10S15.52 0 9.99 0zM10 18c-4.42 0-8-3.58-8-8s3.58-8 8-8 8 3.58 8 8-3.58 8-8 8zM9.75 5a.75.75 0 00-.75.75V11l4.632 2.78a.725.725 0 00.993-.245.712.712 0 00-.244-.983L10.5 10.25v-4.5A.75.75 0 009.75 5z" id="clock-time-20px_svg__a"/></defs><use fill="#737373" xlink:href="#clock-time-20px_svg__a" fill-rule="evenodd"/></svg>