<svg width="24" height="24" xmlns="http://www.w3.org/2000/svg" xmlns:xlink="http://www.w3.org/1999/xlink"><defs><path d="M11.988 0C5.364 0 0 5.376 0 12s5.364 12 11.988 12C18.624 24 24 18.624 24 12S18.624 0 11.988 0zM12 21.6A9.597 9.597 0 012.4 12c0-5.304 4.296-9.6 9.6-9.6 5.304 0 9.6 4.296 9.6 9.6 0 5.304-4.296 9.6-9.6 9.6zM11.7 6a.9.9 0 00-.9.9v6.3l5.559 3.335a.87.87 0 001.191-.293.854.854 0 00-.293-1.18L12.6 12.3V6.9a.9.9 0 00-.9-.9z" id="clock-time-24px_svg__a"/></defs><use fill="#737373" xlink:href="#clock-time-24px_svg__a" fill-rule="evenodd"/></svg>