<svg width="16" height="16" xmlns="http://www.w3.org/2000/svg" xmlns:xlink="http://www.w3.org/1999/xlink"><defs><path d="M7.992 0C3.576 0 0 3.584 0 8s3.576 8 7.992 8C12.416 16 16 12.416 16 8s-3.584-8-8.008-8zM8 14.4A6.398 6.398 0 011.6 8c0-3.536 2.864-6.4 6.4-6.4 3.536 0 6.4 2.864 6.4 6.4 0 3.536-2.864 6.4-6.4 6.4zM7.8 4a.6.6 0 00-.6.6v4.2l3.706 2.224a.58.58 0 00.794-.196.57.57 0 00-.196-.786L8.4 8.2V4.6a.6.6 0 00-.6-.6z" id="clock-time-16px_svg__a"/></defs><use fill="#737373" xlink:href="#clock-time-16px_svg__a" fill-rule="evenodd"/></svg>