<svg width="12" height="12" xmlns="http://www.w3.org/2000/svg" xmlns:xlink="http://www.w3.org/1999/xlink"><defs><path d="M5.994 0A5.997 5.997 0 000 6c0 3.312 2.682 6 5.994 6A6.003 6.003 0 0012 6c0-3.312-2.688-6-6.006-6zM6 10.8A4.799 4.799 0 011.2 6c0-2.652 2.148-4.8 4.8-4.8 2.652 0 4.8 2.148 4.8 4.8 0 2.652-2.148 4.8-4.8 4.8zM5.85 3a.45.45 0 00-.45.45V6.6l2.78 1.668a.435.435 0 00.595-.147.427.427 0 00-.147-.59L6.3 6.15v-2.7A.45.45 0 005.85 3z" id="clock-time-12px_svg__a"/></defs><use fill="#737373" xlink:href="#clock-time-12px_svg__a" fill-rule="evenodd"/></svg>