<svg width="24" height="24" xmlns="http://www.w3.org/2000/svg" xmlns:xlink="http://www.w3.org/1999/xlink"><defs><path d="M23.55.45c-.6-.6-1.5-.6-2.1 0L12 9.9 2.55.45c-.6-.6-1.5-.6-2.1 0-.6.6-.6 1.5 0 2.1L9.9 12 .45 21.45c-.6.6-.6 1.5 0 2.1.3.3.6.45 1.05.45.45 0 .75-.15 1.05-.45L12 14.1l9.45 9.45c.3.3.75.45 1.05.45.3 0 .75-.15 1.05-.45.6-.6.6-1.5 0-2.1L14.1 12l9.45-9.45c.6-.6.6-1.5 0-2.1z" id="close-clear-24px_svg__a"/></defs><use fill="#737373" xlink:href="#close-clear-24px_svg__a" fill-rule="evenodd"/></svg>