<svg width="20" height="20" xmlns="http://www.w3.org/2000/svg" xmlns:xlink="http://www.w3.org/1999/xlink"><defs><path d="M19.571.429c-.571-.572-1.428-.572-2 0L10 8 2.429.429c-.572-.572-1.429-.572-2 0-.572.571-.572 1.428 0 2L8 10 .429 17.571c-.572.572-.572 1.429 0 2 .285.286.571.429 1 .429.428 0 .714-.143 1-.429L10 12l7.571 7.571c.286.286.715.429 1 .429a1.54 1.54 0 001-.429c.572-.571.572-1.428 0-2L12 10l7.571-7.571c.572-.572.572-1.429 0-2z" id="close-clear-20px_svg__a"/></defs><use fill="#737373" xlink:href="#close-clear-20px_svg__a" fill-rule="evenodd"/></svg>