<svg width="18" height="20" xmlns="http://www.w3.org/2000/svg" xmlns:xlink="http://www.w3.org/1999/xlink"><defs><path d="M.51 3.046a.462.462 0 01.671-.061l16.14 14.188a.515.515 0 01.059.703l-.398.497a.461.461 0 01-.671.062l-1.306-1.147a2.22 2.22 0 01-.5.166l-.456 1.915a.804.804 0 01-.771.631H5.323a.805.805 0 01-.772-.63l-.457-1.916C2.985 17.24 2.141 16.224 2.141 15V5.98L.17 4.246a.517.517 0 01-.059-.704zm3.222 4.332V15c0 .46.357.833.796.833h8.823L3.732 7.378zM13.227 0c.365 0 .683.26.772.63l.457 1.916c1.11.215 1.953 1.23 1.953 2.454v2.5H18v5h-1.59v1.283l-1.592-1.399V5c0-.46-.357-.833-.795-.833H5.47L3.735 2.642c.102-.035.201-.075.309-.096L4.5.63A.803.803 0 015.273 0z" id="device-smartwatch-disconnected-20px_svg__a"/></defs><use fill="#737373" xlink:href="#device-smartwatch-disconnected-20px_svg__a" fill-rule="evenodd"/></svg>