<svg width="10" height="12" xmlns="http://www.w3.org/2000/svg" xmlns:xlink="http://www.w3.org/1999/xlink"><defs><path d="M8.775 3a1.49 1.49 0 00-1.197-1.472l-.28-1.15A.49.49 0 006.825 0H1.95a.49.49 0 00-.473.379l-.28 1.149A1.49 1.49 0 000 3v6a1.49 1.49 0 001.197 1.473l.28 1.148A.49.49 0 001.95 12h4.875a.49.49 0 00.473-.379l.28-1.149A1.49 1.49 0 008.775 9V7.5h.975v-3h-.975V3zM7.8 9c0 .275-.219.5-.487.5h-5.85A.495.495 0 01.975 9V3c0-.276.219-.5.487-.5h5.85c.27 0 .488.224.488.5v6z" id="device-smartwatch-12px_svg__a"/></defs><use fill="#737373" xlink:href="#device-smartwatch-12px_svg__a" fill-rule="evenodd"/></svg>