<svg width="13" height="16" xmlns="http://www.w3.org/2000/svg" xmlns:xlink="http://www.w3.org/1999/xlink"><defs><path d="M11.704 12.821l1.296.192a3.273 3.273 0 01-2.896 2.773 3.281 3.281 0 01-2.563-.858l-.88.794-.02-2.861 2.844.318-.968.871a1.963 1.963 0 003.187-1.229zM7.856 0C8.941 0 9.82.88 9.82 1.964v5.508a4.7 4.7 0 00-1.45.237v-5.21a.982.982 0 00-.982-.982H2.472a.982.982 0 00-.982.982v10.758c0 .544.44.983.982.983h2.98v1.473H1.964A1.965 1.965 0 010 13.749V1.964C0 .88.88 0 1.964 0zM5.452 12.275v.982H3.437a.491.491 0 010-.982h2.015zm6.646-2.792l.881-.794.021 2.862-2.845-.318.968-.871a1.965 1.965 0 00-3.188 1.229l-1.295-.192a3.275 3.275 0 012.895-2.774 3.28 3.28 0 012.563.858z" id="device-mobile-sync-16px_svg__a"/></defs><use fill="#737373" xlink:href="#device-mobile-sync-16px_svg__a" fill-rule="evenodd"/></svg>