<svg width="10" height="12" xmlns="http://www.w3.org/2000/svg" xmlns:xlink="http://www.w3.org/1999/xlink"><defs><path d="M9.003 9.616L10 9.76c-.17 1.107-1.086 1.963-2.228 2.08a2.565 2.565 0 01-1.971-.644l-.677.596-.016-2.146 2.188.238-.745.653c.31.246.711.368 1.115.327a1.494 1.494 0 001.337-1.248zM6.043 0c.835 0 1.511.66 1.511 1.473v4.131a3.7 3.7 0 00-1.116.178V1.874a.746.746 0 00-.755-.736H1.901a.746.746 0 00-.755.736v8.07c0 .406.338.736.755.736h2.293v1.104H1.511c-.834 0-1.511-.66-1.511-1.473V1.473C0 .66.677 0 1.51 0zM4.194 9.207v.736h-1.55a.373.373 0 01-.378-.368c0-.203.17-.368.378-.368h1.55zm5.113-2.095l.677-.595L10 8.663l-2.188-.238.744-.654a1.543 1.543 0 00-1.115-.326 1.495 1.495 0 00-1.337 1.248l-.996-.144c.17-1.108 1.085-1.963 2.227-2.08a2.566 2.566 0 011.972.643z" id="device-mobile-sync-12px_svg__a"/></defs><use fill="#737373" xlink:href="#device-mobile-sync-12px_svg__a" fill-rule="evenodd"/></svg>