<svg width="23" height="24" xmlns="http://www.w3.org/2000/svg" xmlns:xlink="http://www.w3.org/1999/xlink"><defs><path d="M.64 3.655a.6.6 0 01.845-.073l20.29 17.025c.254.213.287.59.074.844l-.5.597a.598.598 0 01-.844.074l-1.642-1.377a2.885 2.885 0 01-.627.2l-.574 2.298a1 1 0 01-.97.757h-10a1 1 0 01-.971-.757l-.574-2.298A3.001 3.001 0 012.692 18V7.175L.214 5.096a.6.6 0 01-.074-.844zm4.052 5.199V18c0 .551.449 1 1 1h11.092L4.692 8.854zM16.628 0a1 1 0 01.97.757l.575 2.298A3.001 3.001 0 0120.628 6v3h2v6h-2v1.539l-2-1.678V6c0-.551-.449-1-1-1H6.876l-2.18-1.83c.127-.042.252-.09.387-.115L5.658.757A1 1 0 016.628 0z" id="device-smartwatch-disconnected-24px_svg__a"/></defs><use fill="#737373" xlink:href="#device-smartwatch-disconnected-24px_svg__a" fill-rule="evenodd"/></svg>