<svg width="16" height="16" xmlns="http://www.w3.org/2000/svg" xmlns:xlink="http://www.w3.org/1999/xlink"><defs><path d="M6.426 13.5h3a.5.5 0 000-1h-3a.5.5 0 000 1m5.022 0a1 1 0 01-1 1H5.442a1 1 0 01-1-1V4.746l7.006 5.878V13.5zM.438.165a.4.4 0 01.561-.05l14.71 12.343a.4.4 0 01.05.563l-.345.41a.4.4 0 01-.563.048l-.926-.777-.999-.84V14a2 2 0 01-2 2h-6a2 2 0 01-2-2V3.473l-1-.84L.141 1.139A.4.4 0 01.094.574zM10.925 0a2 2 0 012 2v6.386l-1.478-1.239V2.545a1 1 0 00-1-1H5.442a.973.973 0 00-.493.148L3.572.538A1.971 1.971 0 014.926 0z" id="device-mobile-disconnected-16px_svg__a"/></defs><use fill="#737373" xlink:href="#device-mobile-disconnected-16px_svg__a" fill-rule="evenodd"/></svg>