<svg width="12" height="12" xmlns="http://www.w3.org/2000/svg" xmlns:xlink="http://www.w3.org/1999/xlink"><defs><path d="M4.82 10.125h2.25a.375.375 0 000-.75H4.82a.375.375 0 000 .75m3.766 0a.75.75 0 01-.75.75H4.082a.75.75 0 01-.75-.75V3.559l5.254 4.409v2.157zM.328.123A.3.3 0 01.75.086l11.03 9.257a.3.3 0 01.039.422l-.26.308a.3.3 0 01-.421.036l-.695-.583-.75-.629V10.5a1.5 1.5 0 01-1.5 1.5h-4.5a1.5 1.5 0 01-1.5-1.5V2.604l-.75-.629L.107.853A.3.3 0 01.07.43zM8.195 0a1.5 1.5 0 011.5 1.5v4.79l-1.109-.93V1.91a.75.75 0 00-.75-.75H4.082a.73.73 0 00-.37.11L2.68.405C2.946.153 3.3 0 3.695 0z" id="device-mobile-disconnected-12px_svg__a"/></defs><use fill="#737373" xlink:href="#device-mobile-disconnected-12px_svg__a" fill-rule="evenodd"/></svg>