<svg width="13" height="16" xmlns="http://www.w3.org/2000/svg" xmlns:xlink="http://www.w3.org/1999/xlink"><defs><path d="M11.7 4c0-.979-.69-1.791-1.596-1.963L9.731.505A.653.653 0 009.1 0H2.6a.653.653 0 00-.63.505l-.374 1.532A1.986 1.986 0 000 4v8c0 .979.69 1.791 1.596 1.963l.373 1.532A.654.654 0 002.6 16h6.5a.653.653 0 00.63-.505l.374-1.532A1.986 1.986 0 0011.7 12v-2H13V6h-1.3V4zm-1.3 8a.66.66 0 01-.65.667h-7.8A.66.66 0 011.3 12V4a.66.66 0 01.65-.667h7.8c.358 0 .65.3.65.667v8z" id="device-smartwatch-16px_svg__a"/></defs><use fill="#737373" xlink:href="#device-smartwatch-16px_svg__a" fill-rule="evenodd"/></svg>