<?xml version="1.0" encoding="UTF-8"?>
<svg width="15px" height="16px" viewBox="0 0 15 16" version="1.1" xmlns="http://www.w3.org/2000/svg" xmlns:xlink="http://www.w3.org/1999/xlink">
    <!-- Generator: Sketch 56.2 (81672) - https://sketch.com -->
    <title>device-smartwatch-disconnected-16px</title>
    <desc>Created with Sketch.</desc>
    <defs>
        <path d="M13.4533043,6 L14.7576522,6 L14.7576522,10 L13.4533043,10 L13.4533043,11.026 L12.1489565,9.90733333 L12.1489565,4 C12.1489565,3.63266667 11.8561304,3.33333333 11.4967826,3.33333333 L4.4846087,3.33333333 L3.06221739,2.11333333 C3.14569565,2.08533333 3.22721739,2.05333333 3.31526087,2.03666667 L3.69026087,0.504666667 C3.76265217,0.208 4.02352174,0 4.32286957,0 L10.8446087,0 C11.1439565,0 11.4048261,0.208 11.4772174,0.504666667 L11.8522174,2.03666667 C12.7613478,2.20866667 13.4533043,3.02133333 13.4533043,4 L13.4533043,6 Z M3.7121087,12.6666667 L10.9460217,12.6666667 L3.05993478,5.90266667 L3.05993478,12 C3.05993478,12.3673333 3.35276087,12.6666667 3.7121087,12.6666667 Z M14.2010217,13.738 C14.3666739,13.88 14.3881957,14.1313333 14.2492826,14.3006667 L13.9231957,14.6986667 C13.7842826,14.868 13.5377609,14.89 13.3727609,14.748 L12.3018913,13.83 C12.1721087,13.888 12.0364565,13.936 11.8929783,13.9633333 L11.5186304,15.4953333 C11.4462391,15.7913333 11.1853696,16 10.8860217,16 L4.36428261,16 C4.06493478,16 3.80406522,15.7913333 3.73102174,15.4953333 L3.35667391,13.9633333 C2.44754348,13.7913333 1.75558696,12.9786667 1.75558696,12 L1.75558696,4.78333333 L0.1395,3.39733333 C-0.0255,3.256 -0.0470217391,3.004 0.0912391304,2.83466667 L0.417978261,2.43666667 C0.556891304,2.268 0.803413043,2.246 0.968413043,2.388 L14.2010217,13.738 Z" id="path-1"></path>
    </defs>
    <g id="Solo-Icons-Final" stroke="none" stroke-width="1" fill="none" fill-rule="evenodd">
        <g id="All-Nucleo-Icons" transform="translate(-318.000000, -2584.000000)">
            <g id="Solo/Nucleo/16px/device-smartwatch-disconnected" transform="translate(318.000000, 2584.000000)">
                <g id="watch-lost">
                    <g id="Colour/Default-Colour">
                        <mask id="mask-2" fill="white">
                            <use xlink:href="#path-1"></use>
                        </mask>
                        <g id="Mask"></g>
                        <g id="Colour/Vault-Text-Grey-(Default)" mask="url(#mask-2)" fill="#555555">
                            <g transform="translate(-24.000000, -24.000000)" id="Colour">
                                <rect x="0" y="0" width="64" height="64"></rect>
                            </g>
                        </g>
                    </g>
                </g>
            </g>
        </g>
    </g>
</svg>