<svg width="13" height="20" xmlns="http://www.w3.org/2000/svg" xmlns:xlink="http://www.w3.org/1999/xlink"><defs><path d="M10.5 0A2.5 2.5 0 0113 2.5v15a2.5 2.5 0 01-2.5 2.5h-8A2.5 2.5 0 010 17.5v-15A2.5 2.5 0 012.5 0h8zm-.67 1.931H3.223c-.69 0-1.25.56-1.25 1.25v13.694c0 .69.56 1.25 1.25 1.25H9.83c.69 0 1.25-.56 1.25-1.25V3.181c0-.69-.56-1.25-1.25-1.25zM4.525 15.625h3.95a.625.625 0 110 1.25h-3.95a.625.625 0 110-1.25z" id="device-mobile-20px_svg__a"/></defs><use fill="#737373" xlink:href="#device-mobile-20px_svg__a" fill-rule="evenodd"/></svg>