<svg width="20" height="20" xmlns="http://www.w3.org/2000/svg" xmlns:xlink="http://www.w3.org/1999/xlink"><defs><path d="M8.108 16.875h3.785c.348 0 .63-.28.63-.625a.628.628 0 00-.63-.625H8.108c-.349 0-.631.28-.631.625s.282.625.63.625m6.337 0c0 .691-.564 1.25-1.261 1.25H6.867a1.256 1.256 0 01-1.262-1.25V5.932l8.84 7.348v3.595zM.552.205A.508.508 0 011.26.144l18.558 15.43a.498.498 0 01.065.703l-.436.513a.507.507 0 01-.71.06l-1.168-.972-1.26-1.048v2.67c0 1.381-1.131 2.501-2.524 2.501h-7.57c-1.394 0-2.524-1.12-2.524-2.5V4.34L2.43 3.293.18 1.422A.497.497 0 01.12.717zM13.786 0c1.393 0 2.523 1.119 2.523 2.5v7.983l-1.865-1.549V3.181c0-.69-.565-1.25-1.261-1.25H6.867c-.23 0-.437.078-.622.185L4.507.673A2.5 2.5 0 016.216 0z" id="device-mobile-disconnected-20px_svg__a"/></defs><use fill="#737373" xlink:href="#device-mobile-disconnected-20px_svg__a" fill-rule="evenodd"/></svg>