<svg width="16" height="20" xmlns="http://www.w3.org/2000/svg" xmlns:xlink="http://www.w3.org/1999/xlink"><defs><path d="M14.4 5c0-1.223-.849-2.24-1.964-2.454L11.976.63A.806.806 0 0011.2 0h-8a.806.806 0 00-.776.63l-.46 1.916C.849 2.76 0 3.776 0 5v10c0 1.223.849 2.24 1.964 2.454l.46 1.915A.807.807 0 003.2 20h8c.367 0 .687-.26.776-.63l.46-1.916C13.55 17.24 14.4 16.224 14.4 15v-2.5H16v-5h-1.6V5zm-1.6 10c0 .46-.36.833-.8.833H2.4c-.44 0-.8-.374-.8-.833V5c0-.46.36-.833.8-.833H12c.44 0 .8.374.8.833v10z" id="device-smartwatch-20px_svg__a"/></defs><use fill="#737373" xlink:href="#device-smartwatch-20px_svg__a" fill-rule="evenodd"/></svg>