<svg width="20" height="24" xmlns="http://www.w3.org/2000/svg" xmlns:xlink="http://www.w3.org/1999/xlink"><defs><path d="M18 6a3.001 3.001 0 00-2.455-2.945L14.97.757A1 1 0 0014 0H4a1 1 0 00-.97.757l-.575 2.298A3.001 3.001 0 000 6v12a3.001 3.001 0 002.455 2.945l.574 2.298c.112.445.512.757.971.757h10a1 1 0 00.97-.757l.574-2.298A3 3 0 0018 18v-3h2V9h-2V6zm-2 12c0 .551-.449 1-1 1H3c-.551 0-1-.449-1-1V6c0-.551.449-1 1-1h12c.551 0 1 .449 1 1v12z" id="device-smartwatch-24px_svg__a"/></defs><use fill="#737373" xlink:href="#device-smartwatch-24px_svg__a" fill-rule="evenodd"/></svg>