<svg width="20" height="24" xmlns="http://www.w3.org/2000/svg" xmlns:xlink="http://www.w3.org/1999/xlink"><defs><path d="M18.006 19.47l1.994.291c-.339 2.243-2.171 3.975-4.456 4.212a5.09 5.09 0 01-3.943-1.304l-1.354 1.207-.031-4.346 4.377.483-1.49 1.323a3.07 3.07 0 002.23.66c1.372-.142 2.472-1.182 2.673-2.525zM12.086 0c1.67 0 3.022 1.336 3.022 2.983v8.364c-.78 0-1.526.135-2.231.36V3.795a1.5 1.5 0 00-1.511-1.49H3.803a1.5 1.5 0 00-1.511 1.49v16.338a1.5 1.5 0 001.51 1.491h4.586v2.237H3.022C1.354 23.861 0 22.525 0 20.878V2.983C0 1.336 1.354 0 3.022 0zM8.389 18.641v1.492h-3.1a.75.75 0 01-.755-.746.75.75 0 01.755-.746h3.1zm10.225-4.24l1.355-1.205L20 17.54l-4.377-.483 1.49-1.323a3.06 3.06 0 00-2.23-.66c-1.372.143-2.472 1.182-2.674 2.526l-1.993-.29c.338-2.244 2.171-3.975 4.454-4.214a5.091 5.091 0 013.943 1.304z" id="device-mobile-sync-24px_svg__a"/></defs><use fill="#737373" xlink:href="#device-mobile-sync-24px_svg__a" fill-rule="evenodd"/></svg>