<svg width="16" height="20" xmlns="http://www.w3.org/2000/svg" xmlns:xlink="http://www.w3.org/1999/xlink"><defs><path d="M14.404 16.226l1.596.242c-.27 1.869-1.737 3.312-3.564 3.51A3.97 3.97 0 019.28 18.89l-1.083 1.006-.025-3.622 3.501.403-1.192 1.102c.496.414 1.138.62 1.784.55 1.098-.119 1.978-.985 2.138-2.104zM9.67 0c1.336 0 2.418 1.114 2.418 2.486v6.97a5.64 5.64 0 00-1.786.3V3.163c0-.686-.541-1.243-1.208-1.243h-6.05c-.668 0-1.21.557-1.21 1.243v13.614c0 .688.542 1.243 1.21 1.243H6.71v1.864H2.417C1.083 19.884 0 18.771 0 17.4V2.486C0 1.114 1.083 0 2.417 0zM6.711 15.535v1.242H4.23a.613.613 0 01-.605-.621c0-.343.271-.621.605-.621h2.48zM14.89 12l1.084-1.005.025 3.622-3.501-.403 1.191-1.102a2.38 2.38 0 00-1.784-.55c-1.097.119-1.977.985-2.14 2.105l-1.593-.243c.27-1.869 1.737-3.312 3.563-3.51A3.971 3.971 0 0114.89 12z" id="device-mobile-sync-20px_svg__a"/></defs><use fill="#737373" xlink:href="#device-mobile-sync-20px_svg__a" fill-rule="evenodd"/></svg>