<svg width="12" height="13" xmlns="http://www.w3.org/2000/svg" xmlns:xlink="http://www.w3.org/1999/xlink"><defs><path d="M.313 1.827a.289.289 0 01.413-.036l9.925 8.512c.124.107.14.295.036.422l-.245.299a.288.288 0 01-.412.037l-.804-.688a1.443 1.443 0 01-.306.1l-.281 1.148a.491.491 0 01-.474.379H3.273a.492.492 0 01-.475-.379l-.28-1.149A1.492 1.492 0 011.317 9V3.588L.105 2.548a.305.305 0 01-.037-.422zm1.982 2.6V9c0 .275.22.5.49.5H8.21L2.295 4.427zM8.133 0a.49.49 0 01.475.379l.281 1.149A1.491 1.491 0 0110.09 3v1.5h.978v3h-.978v.77l-.978-.84V3c0-.276-.22-.5-.49-.5H3.364l-1.066-.915c.062-.021.123-.045.19-.057l.28-1.15A.49.49 0 013.243 0z" id="device-smartwatch-disconnected-12px_svg__a"/></defs><use fill="#737373" xlink:href="#device-smartwatch-disconnected-12px_svg__a" transform="translate(.375 .75)" fill-rule="evenodd"/></svg>