<svg width="8" height="12" xmlns="http://www.w3.org/2000/svg" xmlns:xlink="http://www.w3.org/1999/xlink"><defs><path d="M5.5 0a2 2 0 012 2v8a2 2 0 01-2 2H2a2 2 0 01-2-2V2a2 2 0 012-2h3.5zm.142 1.159H1.888l-.102.007a.75.75 0 00-.648.743v8.216l.007.102a.75.75 0 00.743.648h3.754l.102-.007a.75.75 0 00.648-.743V1.909a.75.75 0 00-.75-.75zM2.625 9.375h2.25a.375.375 0 010 .75h-2.25a.375.375 0 010-.75z" id="device-mobile-12px_svg__a"/></defs><use fill="#737373" xlink:href="#device-mobile-12px_svg__a" fill-rule="evenodd"/></svg>