<svg width="24" height="24" xmlns="http://www.w3.org/2000/svg" xmlns:xlink="http://www.w3.org/1999/xlink"><defs><path d="M9.639 20.25h4.5a.75.75 0 000-1.5h-4.5a.75.75 0 000 1.5m7.534 0c0 .829-.67 1.5-1.5 1.5h-7.51a1.5 1.5 0 01-1.5-1.5V7.117l10.51 8.817v4.314zM.656.246A.6.6 0 011.5.172l22.064 18.514a.601.601 0 01.076.845l-.517.615a.6.6 0 01-.845.072l-1.389-1.166-1.498-1.258v3.205c0 1.656-1.344 3-3 3h-9a3 3 0 01-3-3V5.21L2.888 3.95.214 1.706A.6.6 0 01.142.86zM16.39 0a3 3 0 013 3v9.579l-2.217-1.859V3.817a1.5 1.5 0 00-1.5-1.5h-7.51c-.272 0-.518.093-.739.222L5.36.807A2.956 2.956 0 017.389 0z" id="device-mobile-disconnected-24px_svg__a"/></defs><use fill="#737373" xlink:href="#device-mobile-disconnected-24px_svg__a" fill-rule="evenodd"/></svg>