<svg width="15" height="16" xmlns="http://www.w3.org/2000/svg" xmlns:xlink="http://www.w3.org/1999/xlink"><defs><path d="M.418 2.437a.385.385 0 01.55-.049l13.233 11.35a.405.405 0 01.048.563l-.326.398a.384.384 0 01-.55.049l-1.071-.918c-.13.058-.266.106-.409.133l-.374 1.532a.655.655 0 01-.633.505H4.364c-.3 0-.56-.209-.633-.505l-.374-1.532A1.99 1.99 0 011.756 12V4.783L.139 3.397a.406.406 0 01-.048-.562zM3.06 5.903V12a.66.66 0 00.652.667h7.234L3.06 5.903zM10.845 0c.299 0 .56.208.632.505l.375 1.532A1.99 1.99 0 0113.453 4v2h1.305v4h-1.305v1.026L12.15 9.907V4a.66.66 0 00-.652-.667H4.485l-1.423-1.22c.084-.028.165-.06.253-.076L3.69.505A.655.655 0 014.323 0z" id="device-smartwatch-disconnected-16px_svg__a"/></defs><use fill="#737373" xlink:href="#device-smartwatch-disconnected-16px_svg__a" fill-rule="evenodd"/></svg>