<?xml version="1.0" encoding="UTF-8"?>
<svg width="20px" height="20px" viewBox="0 0 20 20" version="1.1" xmlns="http://www.w3.org/2000/svg" xmlns:xlink="http://www.w3.org/1999/xlink">
    <!-- Generator: Sketch 59.1 (86144) - https://sketch.com -->
    <title>edit-1-20px</title>
    <desc>Created with Sketch.</desc>
    <defs>
        <path d="M7.5,0 C8.25,0 8.75,0.5 8.75,1.25 C8.75,2 8.25,2.5 7.5,2.5 L7.5,2.5 L2.5,2.5 L2.5,17.5 L17.5,17.5 L17.5,12.5 C17.5,11.75 18,11.25 18.75,11.25 C19.5,11.25 20,11.75 20,12.5 L20,12.5 L20,18.75 C20,19.5 19.5,20 18.75,20 L18.75,20 L1.25,20 C0.5,20 0,19.5 0,18.75 L0,18.75 L0,1.25 C0,0.5 0.5,0 1.25,0 L1.25,0 Z M15.875,0.375 C16.375,-0.125 17.125,-0.125 17.625,0.375 L17.625,0.375 L19.625,2.375 C20.125,2.875 20.125,3.625 19.625,4.125 L19.625,4.125 L11.25,12.5 L7.5,12.5 L7.5,8.75 Z" id="path-1"></path>
    </defs>
    <g id="Final" stroke="none" stroke-width="1" fill="none" fill-rule="evenodd">
        <g id="All-Nucleo-Icons" transform="translate(-463.000000, -2838.000000)">
            <g id="Solo/Nucleo/20px/edit-1" transform="translate(461.000000, 2836.000000)">
                <g transform="translate(2.000000, 2.000000)" id="n-edit">
                    <g>
                        <mask id="mask-2" fill="white">
                            <use xlink:href="#path-1"></use>
                        </mask>
                        <g id="Path-5" fill-rule="nonzero"></g>
                        <g id="colour/neutral/chia" mask="url(#mask-2)" fill="#737373">
                            <g transform="translate(-22.000000, -22.000000)" id="Colour">
                                <rect x="0" y="0" width="64" height="64"></rect>
                            </g>
                        </g>
                    </g>
                </g>
            </g>
        </g>
    </g>
</svg>