<?xml version="1.0" encoding="UTF-8"?>
<svg width="22px" height="22px" viewBox="0 0 22 22" version="1.1" xmlns="http://www.w3.org/2000/svg" xmlns:xlink="http://www.w3.org/1999/xlink">
    <!-- Generator: Sketch 59.1 (86144) - https://sketch.com -->
    <title>edit-2-24px</title>
    <desc>Created with Sketch.</desc>
    <defs>
        <path d="M0.915,16.329 L5.671,21.085 L1.196,21.98 C1.131,21.994 1.065,22 1,22 C0.737,22 0.482,21.896 0.293,21.707 C0.0865,21.5005 -0.018171875,21.2151406 0.0031015625,20.927293 L0.02,20.804 L0.915,16.329 Z M12.586,4 L18,9.414 L7.414,20 L2,14.586 L12.586,4 Z M16.293,0.293 C16.684,-0.098 17.316,-0.098 17.707,0.293 L17.707,0.293 L21.707,4.293 C22.098,4.684 22.098,5.316 21.707,5.707 L21.707,5.707 L19.414,8 L14,2.586 Z" id="path-1"></path>
    </defs>
    <g id="Final" stroke="none" stroke-width="1" fill="none" fill-rule="evenodd">
        <g id="All-Nucleo-Icons" transform="translate(-609.000000, -2975.000000)">
            <g id="Solo/Nucleo/24px/edit-2" transform="translate(608.000000, 2974.000000)">
                <g id="pen-01" transform="translate(1.000000, 1.000000)">
                    <g id="Colour/Default-Colour">
                        <mask id="mask-2" fill="white">
                            <use xlink:href="#path-1"></use>
                        </mask>
                        <use id="Mask" fill="#000000" fill-rule="nonzero" xlink:href="#path-1"></use>
                        <g id="colour/neutral/chia" mask="url(#mask-2)" fill="#737373">
                            <g transform="translate(-21.000000, -21.000000)" id="Colour">
                                <rect x="0" y="0" width="64" height="64"></rect>
                            </g>
                        </g>
                    </g>
                </g>
            </g>
        </g>
    </g>
</svg>