<?xml version="1.0" encoding="UTF-8"?>
<svg width="16px" height="14px" viewBox="0 0 16 14" version="1.1" xmlns="http://www.w3.org/2000/svg" xmlns:xlink="http://www.w3.org/1999/xlink">
    <!-- Generator: Sketch 56.2 (81672) - https://sketch.com -->
    <title>email-16px</title>
    <desc>Created with Sketch.</desc>
    <defs>
        <path d="M7.5,8.9 C7.78,9.04 8.22,9.04 8.5,8.9 L16,4.7 L16,13 C16,13.6 15.6,14 15,14 L1,14 C0.4,14 0,13.6 0,13 L0,4.7 L7.5,8.9 Z M15,0 C15.6,0 16,0.4 16,1 L16,2.5 L8,6.9 L0,2.4 L0,1 C0,0.4 0.4,0 1,0 L15,0 Z" id="path-1"></path>
    </defs>
    <g id="Solo-Icons-Final" stroke="none" stroke-width="1" fill="none" fill-rule="evenodd">
        <g id="All-Nucleo-Icons" transform="translate(-318.000000, -3097.000000)">
            <g id="Solo/Nucleo/16px/email" transform="translate(318.000000, 3097.000000)">
                <g id="letter">
                    <mask id="mask-2" fill="white">
                        <use xlink:href="#path-1"></use>
                    </mask>
                    <g id="Path-2" fill-rule="nonzero"></g>
                    <g id="Colour/Vault-Text-Grey-(Default)" mask="url(#mask-2)" fill="#555555">
                        <g transform="translate(-24.000000, -25.000000)" id="Colour">
                            <rect x="0" y="0" width="64" height="64"></rect>
                        </g>
                    </g>
                </g>
            </g>
        </g>
    </g>
</svg>