<?xml version="1.0" encoding="UTF-8"?>
<svg width="20px" height="17px" viewBox="0 0 20 17" version="1.1" xmlns="http://www.w3.org/2000/svg" xmlns:xlink="http://www.w3.org/1999/xlink">
    <!-- Generator: Sketch 59.1 (86144) - https://sketch.com -->
    <title>email-20px</title>
    <desc>Created with Sketch.</desc>
    <defs>
        <path d="M20,5.70714286 L20,15.7857143 C20,16.5142857 19.5,17 18.75,17 L18.75,17 L1.25,17 C0.5,17 0,16.5142857 0,15.7857143 L0,15.7857143 L0,5.70714286 L9.375,10.8071429 C9.725,10.9771429 10.275,10.9771429 10.625,10.8071429 L10.625,10.8071429 L20,5.70714286 Z M18.75,0 C19.5,0 20,0.485714286 20,1.21428571 L20,1.21428571 L20,3.03571429 L10,8.37857143 L0,2.91428571 L0,1.21428571 C0,0.485714286 0.5,0 1.25,0 L1.25,0 Z" id="path-1"></path>
    </defs>
    <g id="Final" stroke="none" stroke-width="1" fill="none" fill-rule="evenodd">
        <g id="All-Nucleo-Icons" transform="translate(-463.000000, -3097.000000)">
            <g id="Solo/Nucleo/20px/email" transform="translate(461.000000, 3093.000000)">
                <g transform="translate(2.000000, 4.000000)" id="letter">
                    <g>
                        <mask id="mask-2" fill="white">
                            <use xlink:href="#path-1"></use>
                        </mask>
                        <g id="Path-2" fill-rule="nonzero"></g>
                        <g id="colour/neutral/chia" mask="url(#mask-2)" fill="#737373">
                            <g transform="translate(-22.000000, -23.000000)" id="Colour">
                                <rect x="0" y="0" width="64" height="64"></rect>
                            </g>
                        </g>
                    </g>
                </g>
            </g>
        </g>
    </g>
</svg>