<?xml version="1.0" encoding="UTF-8"?>
<svg width="22px" height="22px" viewBox="0 0 22 22" version="1.1" xmlns="http://www.w3.org/2000/svg" xmlns:xlink="http://www.w3.org/1999/xlink">
    <!-- Generator: Sketch 59.1 (86144) - https://sketch.com -->
    <title>expand-24px</title>
    <desc>Created with Sketch.</desc>
    <defs>
        <path d="M2,12 L2,18.586 L8.293,12.293 L9.707,13.707 L3.414,20 L10,20 L10,22 L1,22 C0.448,22 0,21.553 0,21 L0,21 L0,12 L2,12 Z M21,0 C21.552,0 22,0.447 22,1 L22,1 L22,10 L20,10 L20,3.414 L13.707,9.707 L12.293,8.293 L18.586,2 L12,2 L12,0 Z" id="path-1"></path>
    </defs>
    <g id="Final" stroke="none" stroke-width="1" fill="none" fill-rule="evenodd">
        <g id="All-Nucleo-Icons" transform="translate(-609.000000, -3230.000000)">
            <g id="Solo/Nucleo/24px/expand" transform="translate(608.000000, 3229.000000)">
                <g id="fullscreen-double-74" transform="translate(1.000000, 1.000000)">
                    <g id="Colour/Default-Colour">
                        <mask id="mask-2" fill="white">
                            <use xlink:href="#path-1"></use>
                        </mask>
                        <use id="Mask" fill="#000000" fill-rule="nonzero" xlink:href="#path-1"></use>
                        <g id="colour/neutral/chia" mask="url(#mask-2)" fill="#737373">
                            <g transform="translate(-20.000000, -21.000000)" id="Colour">
                                <rect x="0" y="0" width="64" height="64"></rect>
                            </g>
                        </g>
                    </g>
                </g>
            </g>
        </g>
    </g>
</svg>