<svg width="12" height="10" xmlns="http://www.w3.org/2000/svg" xmlns:xlink="http://www.w3.org/1999/xlink"><defs><path d="M9.733 5.338l1.86.183c.248.03.428.262.405.524a.522.522 0 01-.488.487l-2.354-.054-.95-.89L5.8 8.173a1.21 1.21 0 01-1.302.324l-2.22-.102-1.276 1.187a.612.612 0 01-.83.012.536.536 0 01-.052-.73l1.476-1.799a.6.6 0 01.442-.071l1.626-.084a1.38 1.38 0 01.338-.666l1.473-1.58.753-.775-.818-.629a.612.612 0 01-.225-.377L4.794.66a.564.564 0 01.382-.64h.001a.485.485 0 01.599.355l.531 2.008 1.037.592a.605.605 0 01.131.104s1.328 1.19 1.36 1.276l.898.984zm.712-2.147c-.579.62-1.518.62-2.098 0a1.674 1.674 0 010-2.25 1.414 1.414 0 012.098 0c.58.62.58 1.628 0 2.25zm-6.312 2.03s-.854.92-.94 1.041l-1.148-1.47-1.591-.297A.576.576 0 010 3.898v-.023a.464.464 0 01.5-.434l2.206.235 1.428 1.545z" id="fall-detected-12px_svg__a"/></defs><use fill="#737373" xlink:href="#fall-detected-12px_svg__a" fill-rule="evenodd"/></svg>