<svg width="20" height="16" xmlns="http://www.w3.org/2000/svg" xmlns:xlink="http://www.w3.org/1999/xlink"><defs><path d="M16.222 8.76l3.1.3c.412.05.713.43.675.86a.864.864 0 01-.814.799l-3.923-.089-1.584-1.46-4.01 4.241a2.038 2.038 0 01-2.169.533l-3.7-.167-2.127 1.947a1.032 1.032 0 01-1.383.02.87.87 0 01-.087-1.2l2.46-2.95c.225-.131.485-.173.736-.117l2.711-.137c.085-.415.28-.793.562-1.093l2.457-2.593 1.254-1.272L9.017 5.35a1.001 1.001 0 01-.375-.618L7.99 1.084A.924.924 0 018.626.03h.002a.809.809 0 01.998.584l.886 3.295 1.728.972c.08.045.153.103.219.17 0 0 2.213 1.953 2.266 2.094l1.497 1.614zm1.186-3.523a2.382 2.382 0 01-3.496 0c-.965-1.021-.965-2.674 0-3.694a2.382 2.382 0 013.496 0c.966 1.02.966 2.673 0 3.694zm-10.52 3.33s-1.423 1.512-1.566 1.71L3.408 7.865.756 7.376a.947.947 0 01-.755-.979l.002-.038a.77.77 0 01.83-.713l3.676.387 2.379 2.534z" id="fall-detected-20px_svg__a"/></defs><use fill="#737373" xlink:href="#fall-detected-20px_svg__a" fill-rule="evenodd"/></svg>