<svg width="16" height="13" xmlns="http://www.w3.org/2000/svg" xmlns:xlink="http://www.w3.org/1999/xlink"><defs><path d="M12.978 7.117l2.48.244c.33.041.57.35.54.699a.696.696 0 01-.652.649l-3.138-.072-1.267-1.186-3.207 3.446a1.613 1.613 0 01-1.736.432l-2.96-.135-1.702 1.582a.816.816 0 01-1.107.017.715.715 0 01-.07-.976L2.13 9.42a.799.799 0 01.588-.095l2.169-.112c.067-.336.224-.644.45-.887L7.3 6.218l1.003-1.033-1.09-.838a.816.816 0 01-.3-.503L6.392.88a.752.752 0 01.509-.855h.002c.345-.1.702.111.798.474l.709 2.677 1.382.79a.806.806 0 01.175.137s1.77 1.588 1.813 1.702l1.198 1.312zm.949-2.862a1.886 1.886 0 01-2.797 0c-.773-.83-.773-2.172 0-3.001a1.886 1.886 0 012.797 0c.772.829.772 2.171 0 3zM5.51 6.96S4.372 8.189 4.258 8.35L2.726 6.39.605 5.993A.767.767 0 010 5.198c0-.01 0-.02.002-.031a.62.62 0 01.663-.58l2.941.315L5.51 6.96z" id="fall-detected-16px_svg__a"/></defs><use fill="#737373" xlink:href="#fall-detected-16px_svg__a" fill-rule="evenodd"/></svg>