<svg width="24" height="20" xmlns="http://www.w3.org/2000/svg" xmlns:xlink="http://www.w3.org/1999/xlink"><defs><path d="M19.466 10.949l3.72.376c.495.063.856.538.81 1.075-.047.55-.465.978-.977.998l-4.707-.11-1.9-1.825-4.812 5.301c-.683.747-1.69 1.005-2.603.666l-4.44-.209-2.553 2.434a1.202 1.202 0 01-1.66.026 1.12 1.12 0 01-.104-1.5l2.953-3.689c.27-.164.581-.216.883-.146l3.253-.171c.1-.518.335-.992.674-1.366l2.948-3.242 1.506-1.59-1.637-1.29a1.26 1.26 0 01-.45-.773l-.782-4.56c-.1-.583.23-1.153.763-1.316h.003c.518-.154 1.053.172 1.198.73l1.063 4.118 2.073 1.215a1.2 1.2 0 01.262.212s2.657 2.442 2.72 2.618l1.796 2.018zm1.424-4.403c-1.157 1.273-3.036 1.273-4.195 0-1.159-1.276-1.159-3.342 0-4.617 1.159-1.273 3.038-1.273 4.195 0 1.159 1.275 1.159 3.34 0 4.617zM8.265 10.709s-1.707 1.89-1.879 2.137L4.09 9.831l-3.182-.61c-.544-.108-.93-.63-.906-1.224l.003-.048c.046-.542.491-.942.995-.891l4.412.483 2.854 3.168z" id="fall-detected-24px_svg__a"/></defs><use fill="#737373" xlink:href="#fall-detected-24px_svg__a" fill-rule="evenodd"/></svg>