<svg width="20" height="20" xmlns="http://www.w3.org/2000/svg" xmlns:xlink="http://www.w3.org/1999/xlink"><defs><path d="M10 0C4.5 0 0 4.5 0 10s4.5 10 10 10 10-4.5 10-10S15.5 0 10 0zm7.375 8.75H15a20.707 20.707 0 00-1-5.125c1.75 1.125 3 3 3.375 5.125zM10 17.5c-.75 0-2.25-2.375-2.5-6.25h5c-.25 3.875-1.75 6.25-2.5 6.25zM7.5 8.75C7.75 4.875 9.125 2.5 10 2.5s2.25 2.375 2.5 6.25h-5zM6.125 3.625c-.625 1.5-1 3.25-1.125 5.125H2.625c.375-2.125 1.625-4 3.5-5.125zm-3.5 7.625H5c.125 1.875.5 3.625 1 5.125-1.75-1.125-3-3-3.375-5.125zm11.25 5.125c.625-1.5.875-3.25 1-5.125h2.375c-.25 2.125-1.5 4-3.375 5.125z" id="globe-20px_svg__a"/></defs><use fill="#737373" xlink:href="#globe-20px_svg__a" fill-rule="evenodd"/></svg>