<?xml version="1.0" encoding="UTF-8"?>
<svg width="12px" height="12px" viewBox="0 0 12 12" version="1.1" xmlns="http://www.w3.org/2000/svg" xmlns:xlink="http://www.w3.org/1999/xlink">
    <!-- Generator: Sketch 59.1 (86144) - https://sketch.com -->
    <title>globe-12px</title>
    <desc>Created with Sketch.</desc>
    <defs>
        <path d="M6,0 C2.7,0 0,2.7 0,6 C0,9.3 2.7,12 6,12 C9.3,12 12,9.3 12,6 C12,2.7 9.3,0 6,0 Z M10.425,5.25 L9,5.25 C8.925,4.125 8.7,3.075 8.4,2.175 C9.45,2.85 10.2,3.975 10.425,5.25 Z M6,10.5 C5.55,10.5 4.65,9.075 4.5,6.75 L7.5,6.75 C7.35,9.075 6.45,10.5 6,10.5 Z M4.5,5.25 C4.65,2.925 5.475,1.5 6,1.5 C6.525,1.5 7.35,2.925 7.5,5.25 L4.5,5.25 Z M3.675,2.175 C3.3,3.075 3.075,4.125 3,5.25 L1.575,5.25 C1.8,3.975 2.55,2.85 3.675,2.175 Z M1.575,6.75 L3,6.75 C3.075,7.875 3.3,8.925 3.6,9.825 C2.55,9.15 1.8,8.025 1.575,6.75 Z M8.325,9.825 C8.7,8.925 8.85,7.875 8.925,6.75 L10.35,6.75 C10.2,8.025 9.45,9.15 8.325,9.825 Z" id="path-1"></path>
    </defs>
    <g id="Final" stroke="none" stroke-width="1" fill="none" fill-rule="evenodd">
        <g id="All-Nucleo-Icons" transform="translate(-174.000000, -3482.000000)">
            <g id="Solo/Nucleo/12px/globe" transform="translate(168.000000, 3476.000000)">
                <g id="globe" transform="translate(6.000000, 6.000000)">
                    <g id="Colour/Default-Colour">
                        <mask id="mask-2" fill="white">
                            <use xlink:href="#path-1"></use>
                        </mask>
                        <g id="Mask" fill-rule="nonzero"></g>
                        <g id="colour/neutral/chia" mask="url(#mask-2)" fill="#737373">
                            <g transform="translate(-18.000000, -18.000000)" id="Colour">
                                <rect x="0" y="0" width="48" height="48"></rect>
                            </g>
                        </g>
                    </g>
                </g>
            </g>
        </g>
    </g>
</svg>