<svg width="12" height="12" xmlns="http://www.w3.org/2000/svg" xmlns:xlink="http://www.w3.org/1999/xlink"><defs><path d="M6 0C2.7 0 0 2.7 0 6s2.7 6 6 6 6-2.7 6-6-2.7-6-6-6zm4.425 5.25H9a12.424 12.424 0 00-.6-3.075c1.05.675 1.8 1.8 2.025 3.075zM6 10.5c-.45 0-1.35-1.425-1.5-3.75h3C7.35 9.075 6.45 10.5 6 10.5zM4.5 5.25C4.65 2.925 5.475 1.5 6 1.5s1.35 1.425 1.5 3.75h-3zm-.825-3.075c-.375.9-.6 1.95-.675 3.075H1.575a4.476 4.476 0 012.1-3.075zm-2.1 4.575H3c.075 1.125.3 2.175.6 3.075A4.625 4.625 0 011.575 6.75zm6.75 3.075c.375-.9.525-1.95.6-3.075h1.425c-.15 1.275-.9 2.4-2.025 3.075z" id="globe-12px_svg__a"/></defs><use fill="#737373" xlink:href="#globe-12px_svg__a" fill-rule="evenodd"/></svg>