<svg width="24" height="23" xmlns="http://www.w3.org/2000/svg" xmlns:xlink="http://www.w3.org/1999/xlink"><defs><path d="M9.82 8.243l3.251 8.132a1 1 0 00.849.625H14a1 1 0 00.857-.485L17.566 12h4.786c-3.065 5.289-9.374 10.5-9.752 10.8-.182.11-.388.18-.6.2a.735.735 0 01-.6-.2c-.378-.3-6.687-5.511-9.752-10.8H7a1 1 0 00.857-.485L9.82 8.243zM17 0a6.958 6.958 0 017 7 8.164 8.164 0 01-.661 3H17a1 1 0 00-.857.482l-1.963 3.272-3.251-8.129a1 1 0 00-1.786-.14L6.434 10H.661A8.164 8.164 0 010 7a6.958 6.958 0 017-7 7.12 7.12 0 015 2.1A7.12 7.12 0 0117 0z" id="heartrate-active-24px_svg__a"/></defs><use fill="#737373" xlink:href="#heartrate-active-24px_svg__a" fill-rule="evenodd"/></svg>