<svg width="16" height="16" xmlns="http://www.w3.org/2000/svg" xmlns:xlink="http://www.w3.org/1999/xlink"><defs><path d="M6.547 5.495l2.167 5.422a.667.667 0 00.566.416h.053a.667.667 0 00.572-.323L11.71 8h3.19c-2.043 3.526-6.249 7-6.501 7.2a.947.947 0 01-.4.133.49.49 0 01-.4-.133c-.251-.2-4.457-3.674-6.5-7.2h3.568c.234 0 .45-.123.571-.323l1.309-2.182zM11.333 0A4.638 4.638 0 0116 4.667a5.443 5.443 0 01-.44 2h-4.227a.667.667 0 00-.571.321L9.453 9.169 7.286 3.75a.667.667 0 00-1.19-.093l-1.807 3.01H.441a5.443 5.443 0 01-.441-2A4.638 4.638 0 014.667 0 4.746 4.746 0 018 1.4 4.746 4.746 0 0111.333 0z" id="heartrate-active-16px_svg__a"/></defs><use fill="#737373" xlink:href="#heartrate-active-16px_svg__a" fill-rule="evenodd"/></svg>