<svg width="16" height="16" xmlns="http://www.w3.org/2000/svg" xmlns:xlink="http://www.w3.org/1999/xlink"><defs><path d="M14.901 8c-2.044 3.526-6.25 7-6.502 7.2a.946.946 0 01-.399.134.491.491 0 01-.4-.134C7.346 15 3.14 11.526 1.097 8H14.9zM4.29 6.667H.44a5.43 5.43 0 01-.44-2A4.638 4.638 0 014.666 0 4.753 4.753 0 018 1.4 4.75 4.75 0 0111.333 0 4.64 4.64 0 0116 4.667a5.451 5.451 0 01-.442 2H4.29z" id="heartrate-inactive-16px_svg__a"/></defs><use fill="#737373" xlink:href="#heartrate-inactive-16px_svg__a" fill-rule="evenodd"/></svg>