<svg width="20" height="19" xmlns="http://www.w3.org/2000/svg" xmlns:xlink="http://www.w3.org/1999/xlink"><defs><path d="M18.626 9.91c-2.555 4.368-7.812 8.672-8.127 8.92a1.19 1.19 0 01-.499.165.618.618 0 01-.501-.166c-.315-.247-5.573-4.55-8.126-8.919h17.253zM.55 8.26A6.673 6.673 0 010 5.781a5.719 5.719 0 011.698-4.099A5.824 5.824 0 015.833 0 5.968 5.968 0 0110 1.734 5.965 5.965 0 0114.166 0a5.826 5.826 0 014.135 1.682A5.726 5.726 0 0120 5.782a6.704 6.704 0 01-.553 2.477H.55z" id="heartrate-inactive-20px_svg__a"/></defs><use fill="#737373" xlink:href="#heartrate-inactive-20px_svg__a" fill-rule="evenodd"/></svg>