<svg width="24" height="23" xmlns="http://www.w3.org/2000/svg" xmlns:xlink="http://www.w3.org/1999/xlink"><defs><path d="M22.351 11.997c-3.066 5.287-9.374 10.497-9.752 10.797-.182.11-.387.18-.599.2a.737.737 0 01-.601-.2c-.378-.3-6.687-5.51-9.752-10.797h20.704zm-15.917-2H.66A8.14 8.14 0 010 7a6.954 6.954 0 017-7 7.13 7.13 0 015 2.1A7.127 7.127 0 0117 0a6.96 6.96 0 017 7 8.173 8.173 0 01-.663 2.999H6.434z" id="heartrate-inactive-24px_svg__a"/></defs><use fill="#737373" xlink:href="#heartrate-inactive-24px_svg__a" fill-rule="evenodd"/></svg>