<svg width="12" height="12" xmlns="http://www.w3.org/2000/svg" xmlns:xlink="http://www.w3.org/1999/xlink"><defs><path d="M4.91 4.122l1.625 4.066a.5.5 0 00.425.312H7a.5.5 0 00.428-.242L8.784 6h2.393C9.643 8.645 6.489 11.25 6.3 11.4a.71.71 0 01-.3.1.368.368 0 01-.3-.1C5.511 11.25 2.356 8.645.824 6H3.5a.5.5 0 00.429-.242l.981-1.636zM8.5 0A3.479 3.479 0 0112 3.5a4.082 4.082 0 01-.33 1.5H8.5a.5.5 0 00-.428.241L7.09 6.877 5.465 2.813a.5.5 0 00-.893-.07L3.217 5H.331A4.082 4.082 0 010 3.5 3.479 3.479 0 013.5 0 3.56 3.56 0 016 1.05 3.56 3.56 0 018.5 0z" id="heartrate-active-12px_svg__a"/></defs><use fill="#737373" xlink:href="#heartrate-active-12px_svg__a" fill-rule="evenodd"/></svg>