<svg width="20" height="19" xmlns="http://www.w3.org/2000/svg" xmlns:xlink="http://www.w3.org/1999/xlink"><defs><path d="M8.183 6.808l2.71 6.716a.833.833 0 00.707.516h.067a.835.835 0 00.714-.4l2.257-3.73h3.988c-2.554 4.369-7.811 8.672-8.126 8.92a1.191 1.191 0 01-.5.165.616.616 0 01-.5-.165c-.315-.248-5.572-4.551-8.126-8.92h4.46a.835.835 0 00.714-.4l1.635-2.702zM14.167 0a5.823 5.823 0 014.135 1.683A5.72 5.72 0 0120 5.781a6.692 6.692 0 01-.551 2.478h-5.282a.835.835 0 00-.715.398l-1.635 2.702-2.71-6.713A.833.833 0 008.4 4.13a.823.823 0 00-.78.4L5.361 8.26H.55A6.692 6.692 0 010 5.782a5.72 5.72 0 011.697-4.098A5.825 5.825 0 015.833 0 5.96 5.96 0 0110 1.735 5.96 5.96 0 0114.167 0z" id="heartrate-active-20px_svg__a"/></defs><use fill="#737373" xlink:href="#heartrate-active-20px_svg__a" fill-rule="evenodd"/></svg>