<svg width="20" height="20" xmlns="http://www.w3.org/2000/svg"><g fill="#737373" fill-rule="evenodd"><path d="M14.952 15.193a1.217 1.217 0 110-2.433 1.217 1.217 0 010 2.433m-10.702 0a1.215 1.215 0 110-2.43 1.215 1.215 0 010 2.43m13.918 2.446v.787c0 .557-.43 1.01-.96 1.01h-1.254c-.529 0-.96-.453-.96-1.01v-.787h3.174zm-13.96 0v.787c0 .557-.43 1.01-.96 1.01H1.994c-.53 0-.96-.453-.96-1.01v-.787h3.174zm6.175-12.794l-.54.965H5.638c-.422 0-.9.327-1.06.725l-1.432 3.556c-.16.398.055.724.477.724h11.954c.423 0 .636-.326.477-.724l-.131-.326h2.467c.447.004.809.385.809.856 0 .474-.365.857-.815.857h-.518c.174.621.301 1.398.301 1.94v3.616h-3.174v-.001H4.208v.001H1.034v-3.617c0-.542.127-1.318.301-1.939h-.52c-.45 0-.815-.383-.815-.857 0-.473.365-.857.814-.857h1.157l.489-1.25.944-2.422c.268-.687 1.062-1.247 1.767-1.247h5.212z"/><path d="M9.652 8.186c-.153.279.057.614.386.614h8.727c.328 0 .538-.335.385-.614L14.787.223A.436.436 0 0014.402 0a.434.434 0 00-.387.223L9.652 8.186zm4.75-6.776l3.538 6.46h-7.079l3.54-6.459zm-.437 4.038c0 .231.196.418.437.418.24 0 .436-.187.436-.418V3.771a.428.428 0 00-.436-.419.428.428 0 00-.437.42v1.676zm.437 1.676c.24 0 .436-.188.436-.42a.428.428 0 00-.436-.418.428.428 0 00-.437.418c0 .232.196.42.437.42z"/></g></svg>