<svg width="24" height="24" xmlns="http://www.w3.org/2000/svg"><g fill="#737373" fill-rule="evenodd"><path d="M17.942 18.232a1.46 1.46 0 110-2.92 1.46 1.46 0 010 2.92m-12.842 0a1.458 1.458 0 01-1.458-1.46 1.459 1.459 0 111.458 1.46m16.701 2.934v.945c0 .668-.516 1.212-1.15 1.212h-1.506c-.635 0-1.152-.544-1.152-1.212v-.945h3.808zm-16.75 0v.945c0 .668-.518 1.212-1.153 1.212H2.393c-.636 0-1.152-.544-1.152-1.212v-.945h3.81zM12.46 5.814l-.65 1.158H6.768c-.507 0-1.08.392-1.272.87l-1.718 4.267c-.192.478.065.869.572.869h14.344c.508 0 .764-.39.573-.869l-.157-.392h2.96c.536.005.971.463.971 1.029 0 .568-.438 1.028-.978 1.028h-.621c.208.745.36 1.677.36 2.327v4.34h-3.808v-.002H5.05v.002H1.24v-4.34c0-.651.152-1.582.361-2.327H.977c-.54 0-.977-.46-.977-1.028 0-.569.438-1.03.977-1.03h1.388l.587-1.499L4.085 7.31c.321-.825 1.274-1.496 2.12-1.496h6.255z"/><path d="M11.582 9.823c-.183.335.069.737.463.737h10.473c.393 0 .646-.402.462-.737L17.745.268A.523.523 0 0017.282 0a.521.521 0 00-.464.268l-5.236 9.555zm5.7-8.13l4.247 7.75h-8.494l4.247-7.75zm-.524 4.845c0 .277.235.502.524.502a.513.513 0 00.523-.502V4.525a.514.514 0 00-.523-.503.514.514 0 00-.524.503v2.013zm.524 2.01a.514.514 0 00.523-.503.513.513 0 00-.523-.502.514.514 0 00-.524.502c0 .278.235.504.524.504z"/></g></svg>