<svg width="16" height="16" xmlns="http://www.w3.org/2000/svg"><g fill="#737373" fill-rule="evenodd"><path d="M11.962 12.155a.973.973 0 110-1.947.973.973 0 010 1.947m-8.562 0a.972.972 0 110-1.945.972.972 0 010 1.945m11.134 1.956v.63c0 .445-.344.808-.767.808h-1.004c-.423 0-.768-.363-.768-.808v-.63h2.54zm-11.167 0v.63c0 .445-.345.808-.768.808H1.595c-.423 0-.768-.363-.768-.808v-.63h2.54zm4.94-10.235l-.433.772H4.51c-.338 0-.72.261-.848.58L2.518 8.073c-.128.318.043.579.381.579h9.563c.339 0 .51-.26.382-.58l-.105-.26h1.974c.357.003.647.308.647.685 0 .379-.292.686-.652.686h-.414c.139.496.24 1.118.24 1.55v2.894h-2.538v-.001h-8.63v.001H.828v-2.893c0-.434.1-1.055.24-1.551H.652c-.36 0-.652-.307-.652-.686 0-.379.292-.686.652-.686h.925l.391-1 .755-1.938c.215-.55.85-.997 1.414-.997h4.17z"/><path d="M7.722 6.548c-.123.224.045.492.308.492h6.982c.262 0 .43-.268.308-.492L11.83.178A.349.349 0 0011.52 0a.347.347 0 00-.309.179l-3.49 6.37zm3.8-5.42l2.83 5.167H8.69l2.831-5.167zm-.35 3.23c0 .185.157.335.35.335.191 0 .348-.15.348-.335V3.017a.342.342 0 00-.349-.335c-.192 0-.35.15-.35.335v1.341zm.35 1.341c.191 0 .348-.15.348-.336a.342.342 0 00-.349-.335c-.192 0-.35.15-.35.335 0 .186.158.336.35.336z"/></g></svg>