<svg width="12" height="12" xmlns="http://www.w3.org/2000/svg"><g fill="#737373" fill-rule="evenodd"><path d="M8.971 9.116a.73.73 0 110-1.46.73.73 0 010 1.46m-6.42 0a.73.73 0 110-1.458.73.73 0 010 1.458m8.35 1.467v.473c0 .334-.259.606-.576.606h-.753c-.317 0-.576-.272-.576-.606v-.473h1.905zm-8.376 0v.473c0 .334-.259.606-.576.606h-.753c-.317 0-.576-.272-.576-.606v-.473h1.905zM6.23 2.907l-.325.58H3.384a.745.745 0 00-.636.434l-.86 2.134c-.096.239.033.434.286.434h7.173c.253 0 .382-.195.286-.434l-.079-.196h1.48a.503.503 0 01.486.514.502.502 0 01-.49.514h-.31c.104.372.18.838.18 1.163v2.17H.622V8.05c0-.325.075-.79.18-1.163H.49A.502.502 0 010 6.373c0-.284.219-.515.489-.515h.694l.293-.75.566-1.453c.161-.412.637-.748 1.06-.748H6.23z"/><path d="M5.791 4.911c-.091.168.034.369.232.369h5.236c.197 0 .323-.201.231-.369L8.872.134A.261.261 0 008.641 0a.26.26 0 00-.232.134L5.791 4.91zM8.641.846l2.123 3.875H6.517L8.641.846zM8.379 3.27c0 .139.117.25.262.25a.257.257 0 00.262-.25V2.263a.257.257 0 00-.262-.252.257.257 0 00-.262.252v1.006zm.262 1.005a.257.257 0 00.262-.252.257.257 0 00-.262-.25.257.257 0 00-.262.25c0 .14.117.252.262.252z"/></g></svg>