<svg width="12" height="12" xmlns="http://www.w3.org/2000/svg" xmlns:xlink="http://www.w3.org/1999/xlink"><defs><path d="M6 0a6 6 0 110 12A6 6 0 016 0zm0 1.412a4.588 4.588 0 100 9.176 4.588 4.588 0 000-9.176zm0 6.337a.658.658 0 110 1.315.658.658 0 010-1.315zm0-4.861c.39 0 .706.316.706.706V6.48a.706.706 0 11-1.412 0V3.594c0-.39.316-.706.706-.706z" id="information-12px_svg__a"/></defs><use fill="#737373" xlink:href="#information-12px_svg__a" transform="rotate(-180 6 6)" fill-rule="evenodd"/></svg>