<svg width="20" height="20" xmlns="http://www.w3.org/2000/svg" xmlns:xlink="http://www.w3.org/1999/xlink"><defs><path d="M10 0c5.523 0 10 4.477 10 10s-4.477 10-10 10S0 15.523 0 10 4.477 0 10 0zm0 2a8 8 0 100 16 8 8 0 000-16zm0 10.914a1.096 1.096 0 110 2.193 1.096 1.096 0 010-2.193zm0-8.101c.65 0 1.176.527 1.176 1.176v4.813a1.176 1.176 0 11-2.352 0V5.99c0-.65.526-1.176 1.176-1.176z" id="information-20px_svg__a"/></defs><use fill="#737373" xlink:href="#information-20px_svg__a" transform="rotate(-180 10 10)" fill-rule="evenodd"/></svg>