<?xml version="1.0" encoding="UTF-8"?>
<svg width="20px" height="20px" viewBox="0 0 20 20" version="1.1" xmlns="http://www.w3.org/2000/svg" xmlns:xlink="http://www.w3.org/1999/xlink">
    <!-- Generator: Sketch 59.1 (86144) - https://sketch.com -->
    <title>list-bullet-20px</title>
    <desc>Created with Sketch.</desc>
    <defs>
        <path d="M2.5,15 C3.88071187,15 5,16.1192881 5,17.5 C5,18.8807119 3.88071187,20 2.5,20 C1.11928813,20 0,18.8807119 0,17.5 C0,16.1192881 1.11928813,15 2.5,15 Z M20,16.25 L20,18.75 L7.5,18.75 L7.5,16.25 L20,16.25 Z M2.5,7.5 C3.88071187,7.5 5,8.61928813 5,10 C5,11.3807119 3.88071187,12.5 2.5,12.5 C1.11928813,12.5 0,11.3807119 0,10 C0,8.61928813 1.11928813,7.5 2.5,7.5 Z M20,8.75 L20,11.25 L7.5,11.25 L7.5,8.75 L20,8.75 Z M2.5,0 C3.88071187,0 5,1.11928813 5,2.5 C5,3.88071187 3.88071187,5 2.5,5 C1.11928813,5 0,3.88071187 0,2.5 C0,1.11928813 1.11928813,0 2.5,0 Z M20,1.25 L20,3.75 L7.5,3.75 L7.5,1.25 L20,1.25 Z" id="path-1"></path>
    </defs>
    <g id="Final" stroke="none" stroke-width="1" fill="none" fill-rule="evenodd">
        <g id="All-Nucleo-Icons" transform="translate(-463.000000, -3862.000000)">
            <g id="Solo/Nucleo/20px/list-bullet" transform="translate(461.000000, 3860.000000)">
                <g transform="translate(2.000000, 2.000000)" id="list-bullet">
                    <g>
                        <g id="Colour/Default-Colour">
                            <mask id="mask-2" fill="white">
                                <use xlink:href="#path-1"></use>
                            </mask>
                            <g id="Mask" fill-rule="nonzero"></g>
                            <g id="colour/neutral/chia" mask="url(#mask-2)" fill="#737373">
                                <g transform="translate(-22.000000, -22.000000)" id="Colour">
                                    <rect x="0" y="0" width="64" height="64"></rect>
                                </g>
                            </g>
                        </g>
                    </g>
                </g>
            </g>
        </g>
    </g>
</svg>