<svg width="16" height="16" xmlns="http://www.w3.org/2000/svg" xmlns:xlink="http://www.w3.org/1999/xlink"><defs><path d="M12.5 8l.4 1.2c.2.05.4.1.55.2l1.05-.55.7.7-.55 1.05c.1.15.15.35.2.5l1.15.4v1l-1.15.4c-.05.2-.1.4-.2.55l.55 1.05-.7.7-1.05-.55c-.2.05-.35.15-.55.2L12.5 16h-1l-.4-1.15c-.2-.05-.4-.1-.55-.2l-1.05.55-.7-.7.55-1.05c-.05-.2-.15-.35-.2-.55L8 12.5v-1l1.15-.4c.05-.15.1-.35.2-.5L8.8 9.55l.75-.75 1.05.55c.15-.1.35-.15.5-.2L11.5 8h1zM6 0c2.95 0 6 2.244 6 6 0 .217-.02.44-.059.67A5.332 5.332 0 006.667 12c0 .843.201 1.638.549 2.347-.408.448-.695.741-.743.79a.667.667 0 01-.946 0C5.3 14.909 0 9.526 0 6c0-3.756 3.05-6 6-6zm6 10.5c-.85 0-1.5.65-1.5 1.5s.65 1.5 1.5 1.5 1.5-.65 1.5-1.5-.65-1.5-1.5-1.5zM6 4a2 2 0 100 4 2 2 0 000-4z" id="location-settings-16px_svg__a"/></defs><use fill="#737373" xlink:href="#location-settings-16px_svg__a" fill-rule="evenodd"/></svg>