<svg width="16" height="20" xmlns="http://www.w3.org/2000/svg" xmlns:xlink="http://www.w3.org/1999/xlink"><defs><path d="M8 0C4.089 0 0 2.957 0 7.826c0 4.609 7.111 11.652 7.378 11.913A.815.815 0 008 20a.815.815 0 00.622-.26C8.89 19.477 16 12.434 16 7.825 16 2.956 11.911 0 8 0zm0 10.435c-1.511 0-2.667-1.13-2.667-2.609C5.333 6.348 6.49 5.217 8 5.217s2.667 1.13 2.667 2.61c0 1.477-1.156 2.608-2.667 2.608z" id="location-pin-20px_svg__a"/></defs><use fill="#737373" xlink:href="#location-pin-20px_svg__a" fill-rule="evenodd"/></svg>