<svg width="24" height="24" xmlns="http://www.w3.org/2000/svg" xmlns:xlink="http://www.w3.org/1999/xlink"><defs><path d="M12 14a2 2 0 100-4 2 2 0 000 4zm12-3h-2.051c-.47-4.717-4.232-8.479-8.949-8.949V0h-2v2.051C6.283 2.521 2.521 6.283 2.051 11H0v2h2.051c.471 4.717 4.232 8.479 8.949 8.949V24h2v-2.051c4.717-.471 8.479-4.232 8.949-8.949H24v-2zm-11 8.931V18h-2v1.931A8.008 8.008 0 014.069 13H6v-2H4.069A8.008 8.008 0 0111 4.069V6h2V4.069A8.007 8.007 0 0119.931 11H18v2h1.931A8.008 8.008 0 0113 19.931z" id="location-crosshair-24px_svg__a"/></defs><use fill="#737373" xlink:href="#location-crosshair-24px_svg__a" fill-rule="evenodd"/></svg>