<svg width="20" height="20" xmlns="http://www.w3.org/2000/svg" xmlns:xlink="http://www.w3.org/1999/xlink"><defs><path d="M10 11.667a1.667 1.667 0 100-3.334 1.667 1.667 0 000 3.334zm10-2.5h-1.71a8.346 8.346 0 00-7.457-7.458V0H9.167v1.71a8.346 8.346 0 00-7.458 7.457H0v1.666h1.71a8.347 8.347 0 007.457 7.458V20h1.666v-1.71a8.347 8.347 0 007.458-7.457H20V9.167zm-9.167 7.442V15H9.167v1.61a6.674 6.674 0 01-5.776-5.777H5V9.167H3.39A6.674 6.674 0 019.168 3.39V5h1.666V3.39a6.673 6.673 0 015.776 5.777H15v1.666h1.61a6.674 6.674 0 01-5.777 5.776z" id="location-crosshair-20px_svg__a"/></defs><use fill="#737373" xlink:href="#location-crosshair-20px_svg__a" fill-rule="evenodd"/></svg>