<svg width="24" height="24" xmlns="http://www.w3.org/2000/svg" xmlns:xlink="http://www.w3.org/1999/xlink"><defs><path d="M18.75 12l.6 1.8c.3.075.6.15.825.3l1.575-.825 1.05 1.05-.825 1.575c.15.225.225.525.3.75l1.725.6v1.5l-1.725.6c-.075.3-.15.6-.3.825l.825 1.575-1.05 1.05-1.575-.825c-.3.075-.525.225-.825.3L18.75 24h-1.5l-.6-1.725c-.3-.075-.6-.15-.825-.3l-1.575.825-1.05-1.05.825-1.575c-.075-.3-.225-.525-.3-.825L12 18.75v-1.5l1.725-.6c.075-.225.15-.525.3-.75l-.825-1.575 1.125-1.125 1.575.825c.225-.15.525-.225.75-.3l.6-1.725h1.5zM9 0c4.424 0 9 3.366 9 9 0 .325-.031.661-.088 1.004A7.998 7.998 0 0010 18c0 1.265.302 2.457.824 3.52a43.354 43.354 0 01-1.114 1.185 1 1 0 01-1.42 0C7.952 22.363 0 14.289 0 9c0-5.634 4.576-9 9-9zm9 15.75c-1.275 0-2.25.975-2.25 2.25s.975 2.25 2.25 2.25 2.25-.975 2.25-2.25-.975-2.25-2.25-2.25zM9 6a3 3 0 100 6 3 3 0 000-6z" id="location-settings-24px_svg__a"/></defs><use fill="#737373" xlink:href="#location-settings-24px_svg__a" fill-rule="evenodd"/></svg>