<svg width="16" height="16" xmlns="http://www.w3.org/2000/svg" xmlns:xlink="http://www.w3.org/1999/xlink"><defs><path d="M8 0C5.378 0 2.667 1.995 2.667 5.333c0 3.067 4.362 7.552 4.86 8.054a.667.667 0 00.946 0c.498-.502 4.86-4.987 4.86-8.054C13.333 1.995 10.622 0 8 0zm4.235 11.026c2.031.37 3.765 1.072 3.765 2.307C16 15.44 10.971 16 8 16h-.201C4.808 15.973 0 15.391 0 13.332c0-1.235 1.734-1.936 3.765-2.308.308.424.619.825.924 1.197-2.037.294-3.232.813-3.36 1.139.186.418 2.642 1.305 6.671 1.305 3.95 0 6.388-.852 6.657-1.333-.183-.327-1.368-.824-3.347-1.11.305-.372.617-.774.925-1.197zM8 4a1.333 1.333 0 110 2.666A1.333 1.333 0 018 4z" id="location-pin-area-16px_svg__a"/></defs><use fill="#737373" xlink:href="#location-pin-area-16px_svg__a" fill-rule="evenodd"/></svg>