<svg width="16" height="16" xmlns="http://www.w3.org/2000/svg" xmlns:xlink="http://www.w3.org/1999/xlink"><defs><path d="M8 9.333a1.333 1.333 0 100-2.666 1.333 1.333 0 000 2.666zm8-2h-1.367a6.677 6.677 0 00-5.966-5.966V0H7.333v1.367a6.677 6.677 0 00-5.966 5.966H0v1.334h1.367a6.677 6.677 0 005.966 5.966V16h1.334v-1.367a6.677 6.677 0 005.966-5.966H16V7.333zm-7.333 5.954V12H7.333v1.287a5.339 5.339 0 01-4.62-4.62H4V7.333H2.713a5.339 5.339 0 014.62-4.62V4h1.334V2.713a5.338 5.338 0 014.62 4.62H12v1.334h1.287a5.339 5.339 0 01-4.62 4.62z" id="location-crosshair-16px_svg__a"/></defs><use fill="#737373" xlink:href="#location-crosshair-16px_svg__a" fill-rule="evenodd"/></svg>