<svg width="12" height="12" xmlns="http://www.w3.org/2000/svg" xmlns:xlink="http://www.w3.org/1999/xlink"><defs><path d="M6 7.5a1.5 1.5 0 100-3 1.5 1.5 0 000 3zM6 0C2.7 0 0 2.7 0 6s2.7 6 6 6 6-2.7 6-6-2.7-6-6-6zm.75 10.425V9h-1.5v1.425A4.46 4.46 0 011.575 6.75H3v-1.5H1.575A4.46 4.46 0 015.25 1.575V3h1.5V1.575a4.46 4.46 0 013.675 3.675H9v1.5h1.425a4.46 4.46 0 01-3.675 3.675z" id="location-crosshair-12px_svg__a"/></defs><use fill="#737373" xlink:href="#location-crosshair-12px_svg__a" fill-rule="evenodd"/></svg>