<svg width="18" height="20" xmlns="http://www.w3.org/2000/svg" xmlns:xlink="http://www.w3.org/1999/xlink"><defs><path d="M.59 2.137a.554.554 0 01.76-.063L17.808 15.41a.509.509 0 01.067.733l-.465.534a.553.553 0 01-.76.065l-2.05-1.663a45.341 45.341 0 01-4.09 4.66.831.831 0 01-.63.261.831.831 0 01-.63-.26c-.27-.262-7.473-7.305-7.473-11.914 0-.998.182-1.91.492-2.74L.193 3.407a.509.509 0 01-.067-.734zM9.88 0c3.96 0 8.103 2.957 8.103 7.826 0 1.309-.583 2.813-1.421 4.304l-4.17-3.38c.11-.287.188-.59.188-.924 0-1.478-1.17-2.609-2.7-2.609-.52 0-.991.138-1.394.368l-4.21-3.412A8.45 8.45 0 019.879 0z" id="location-pin-lost-20px_svg__a"/></defs><use fill="#737373" xlink:href="#location-pin-lost-20px_svg__a" fill-rule="evenodd"/></svg>