<?xml version="1.0" encoding="UTF-8"?>
<svg width="20px" height="20px" viewBox="0 0 20 20" version="1.1" xmlns="http://www.w3.org/2000/svg" xmlns:xlink="http://www.w3.org/1999/xlink">
    <!-- Generator: Sketch 56.2 (81672) - https://sketch.com -->
    <title>location-crosshair-20px</title>
    <desc>Created with Sketch.</desc>
    <defs>
        <path d="M10,11.6666667 C10.9204746,11.6666667 11.6666667,10.9204746 11.6666667,10 C11.6666667,9.07952542 10.9204746,8.33333333 10,8.33333333 C9.07952542,8.33333333 8.33333333,9.07952542 8.33333333,10 C8.33333333,10.9204746 9.07952542,11.6666667 10,11.6666667 Z M20,9.16666667 L18.2908333,9.16666667 C17.8991667,5.23583333 14.7641667,2.10083333 10.8333333,1.70916667 L10.8333333,0 L9.16666667,0 L9.16666667,1.70916667 C5.23583333,2.10083333 2.10083333,5.23583333 1.70916667,9.16666667 L0,9.16666667 L0,10.8333333 L1.70916667,10.8333333 C2.10166667,14.7641667 5.23583333,17.8991667 9.16666667,18.2908333 L9.16666667,20 L10.8333333,20 L10.8333333,18.2908333 C14.7641667,17.8983333 17.8991667,14.7641667 18.2908333,10.8333333 L20,10.8333333 L20,9.16666667 Z M10.8333333,16.6091667 L10.8333333,15 L9.16666667,15 L9.16666667,16.6091667 C6.15666667,16.2308333 3.76916667,13.8433333 3.39083333,10.8333333 L5,10.8333333 L5,9.16666667 L3.39083333,9.16666667 C3.76916667,6.15666667 6.15666667,3.76916667 9.16666667,3.39083333 L9.16666667,5 L10.8333333,5 L10.8333333,3.39083333 C13.8433333,3.76833333 16.2308333,6.15666667 16.6091667,9.16666667 L15,9.16666667 L15,10.8333333 L16.6091667,10.8333333 C16.2308333,13.8433333 13.8433333,16.2308333 10.8333333,16.6091667 Z" id="path-1"></path>
    </defs>
    <g id="Solo-Icons-Final" stroke="none" stroke-width="1" fill="none" fill-rule="evenodd">
        <g id="All-Nucleo-Icons" transform="translate(-463.000000, -3990.000000)">
            <g id="Solo/Nucleo/20px/location-crosshair" transform="translate(463.000000, 3990.000000)">
                <g id="crosshair">
                    <g>
                        <g id="Colour/Default-Colour">
                            <mask id="mask-2" fill="white">
                                <use xlink:href="#path-1"></use>
                            </mask>
                            <use id="Mask" fill="#000000" fill-rule="nonzero" xlink:href="#path-1"></use>
                            <g id="Colour/Vault-Text-Grey-(Default)" mask="url(#mask-2)" fill="#555555">
                                <g transform="translate(-11.333333, -11.333333)" id="Colour">
                                    <rect x="0" y="0" width="43" height="43"></rect>
                                </g>
                            </g>
                        </g>
                    </g>
                </g>
            </g>
        </g>
    </g>
</svg>