<svg width="12" height="12" xmlns="http://www.w3.org/2000/svg" xmlns:xlink="http://www.w3.org/1999/xlink"><defs><path d="M9.375 6l.3.9c.15.037.3.075.412.15l.788-.412.525.524-.412.788c.075.112.112.263.15.375l.862.3v.75l-.863.3c-.037.15-.075.3-.15.412l.413.788-.525.525-.787-.412c-.15.037-.263.112-.413.15l-.3.862h-.75l-.3-.863c-.15-.037-.3-.075-.412-.15l-.788.413-.525-.525.413-.787c-.038-.15-.113-.263-.15-.413L6 9.375v-.75l.862-.3c.038-.112.075-.262.15-.375L6.6 7.162l.563-.562.787.413c.112-.075.263-.113.375-.15l.3-.863h.75zM4.5 0C6.712 0 9 1.683 9 4.5c0 .162-.015.33-.044.502A3.999 3.999 0 005 9c0 .633.151 1.229.412 1.76-.306.337-.521.556-.557.592a.5.5 0 01-.71 0C3.976 11.182 0 7.144 0 4.5 0 1.683 2.288 0 4.5 0zM9 7.875c-.637 0-1.125.488-1.125 1.125S8.363 10.125 9 10.125 10.125 9.637 10.125 9 9.637 7.875 9 7.875zM4.5 3a1.5 1.5 0 100 3 1.5 1.5 0 000-3z" id="location-settings-12px_svg__a"/></defs><use fill="#737373" xlink:href="#location-settings-12px_svg__a" fill-rule="evenodd"/></svg>