<svg width="10" height="12" xmlns="http://www.w3.org/2000/svg" xmlns:xlink="http://www.w3.org/1999/xlink"><defs><path d="M4.667 0C2.385 0 0 1.774 0 4.696c0 2.765 4.148 6.991 4.304 7.147a.47.47 0 00.363.157.47.47 0 00.363-.157c.155-.156 4.303-4.382 4.303-7.147C9.333 1.774 6.948 0 4.667 0zm0 6.26c-.882 0-1.556-.677-1.556-1.564S3.785 3.13 4.667 3.13c.881 0 1.555.679 1.555 1.566S5.548 6.26 4.667 6.26z" id="location-pin-12px_svg__a"/></defs><use fill="#737373" xlink:href="#location-pin-12px_svg__a" fill-rule="evenodd"/></svg>