<svg width="20" height="20" xmlns="http://www.w3.org/2000/svg" xmlns:xlink="http://www.w3.org/1999/xlink"><defs><path d="M10 0C6.723 0 3.333 2.493 3.333 6.667c0 3.833 5.454 9.439 6.075 10.066a.834.834 0 001.184 0c.621-.627 6.075-6.233 6.075-10.066C16.667 2.493 13.277 0 10 0zM4.706 13.782c.385.529.774 1.03 1.155 1.495-2.546.368-4.04 1.016-4.2 1.424.233.523 3.303 1.631 8.339 1.631 4.938 0 7.985-1.065 8.322-1.666-.23-.409-1.711-1.03-4.184-1.388.381-.465.77-.966 1.155-1.495 2.54.463 4.707 1.34 4.707 2.884C20 19.298 13.714 20 10 20h-.217C6.046 19.971 0 19.247 0 16.666c0-1.545 2.167-2.421 4.706-2.885zM10 5a1.666 1.666 0 110 3.332A1.666 1.666 0 0110 5z" id="location-pin-area-20px_svg__a"/></defs><use fill="#737373" xlink:href="#location-pin-area-20px_svg__a" fill-rule="evenodd"/></svg>