<svg width="12" height="12" xmlns="http://www.w3.org/2000/svg" xmlns:xlink="http://www.w3.org/1999/xlink"><defs><path d="M.35 1.282a.325.325 0 01.45-.038l9.748 8.002c.135.11.153.307.04.44l-.276.32a.324.324 0 01-.45.039l-1.215-.998A27.314 27.314 0 016.269 11.8l-.044.043a.49.49 0 01-.373.157.49.49 0 01-.374-.157c-.16-.156-4.426-4.382-4.426-7.148 0-.598.107-1.146.291-1.643L.114 2.043a.308.308 0 01-.04-.44zM5.851 0c2.346 0 4.8 1.774 4.8 4.696 0 .785-.345 1.687-.842 2.582L7.34 5.25c.065-.172.112-.355.112-.554 0-.887-.694-1.566-1.6-1.566-.308 0-.587.083-.825.221L2.533 1.304A4.969 4.969 0 015.852 0z" id="location-pin-lost-12px_svg__a"/></defs><use fill="#737373" xlink:href="#location-pin-lost-12px_svg__a" transform="translate(.667)" fill-rule="evenodd"/></svg>