<svg width="24" height="24" xmlns="http://www.w3.org/2000/svg" xmlns:xlink="http://www.w3.org/1999/xlink"><defs><path d="M12 0C8.067 0 4 2.992 4 8c0 4.6 6.544 11.327 7.29 12.08a1 1 0 001.42 0C13.456 19.327 20 12.6 20 8c0-5.008-4.067-8-8-8zM5.647 16.538c.462.635.929 1.237 1.386 1.795-3.055.441-4.848 1.219-5.039 1.708.279.628 3.963 1.958 10.006 1.958 5.925 0 9.582-1.278 9.986-2-.275-.49-2.053-1.236-5.021-1.665a39.05 39.05 0 001.387-1.795C21.399 17.095 24 18.147 24 20c0 3.158-7.543 4-12 4s-12-.842-12-4c0-1.853 2.601-2.905 5.647-3.462zM12 6a2 2 0 11.001 3.999A2 2 0 0112 6z" id="location-pin-area-24px_svg__a"/></defs><use fill="#737373" xlink:href="#location-pin-area-24px_svg__a" fill-rule="evenodd"/></svg>