<svg width="20" height="20" xmlns="http://www.w3.org/2000/svg" xmlns:xlink="http://www.w3.org/1999/xlink"><defs><path d="M15.625 10l.5 1.5c.25.063.5.125.688.25l1.312-.688.875.876-.688 1.312c.125.188.188.438.25.625l1.438.5v1.25l-1.438.5c-.062.25-.125.5-.25.688L19 18.125l-.875.875-1.313-.688c-.25.063-.437.188-.687.25l-.5 1.438h-1.25l-.5-1.438c-.25-.062-.5-.125-.688-.25L11.876 19 11 18.125l.688-1.313c-.063-.25-.188-.437-.25-.687l-1.438-.5v-1.25l1.438-.5c.062-.188.124-.438.25-.625L11 11.937l.938-.937 1.312.688c.188-.126.438-.188.625-.25l.5-1.438h1.25zM7.5 0C11.187 0 15 2.805 15 7.5c0 .27-.026.55-.073.837A6.665 6.665 0 008.333 15c0 1.054.252 2.047.687 2.933-.51.561-.868.927-.928.988a.834.834 0 01-1.184 0C6.627 18.636 0 11.908 0 7.5 0 2.805 3.813 0 7.5 0zM15 13.125A1.842 1.842 0 0013.125 15c0 1.063.813 1.875 1.875 1.875A1.842 1.842 0 0016.875 15 1.842 1.842 0 0015 13.125zM7.5 5a2.5 2.5 0 100 5 2.5 2.5 0 000-5z" id="location-settings-20px_svg__a"/></defs><use fill="#737373" xlink:href="#location-settings-20px_svg__a" fill-rule="evenodd"/></svg>