<svg width="20" height="24" xmlns="http://www.w3.org/2000/svg" xmlns:xlink="http://www.w3.org/1999/xlink"><defs><path d="M.655 2.565a.584.584 0 01.846-.077l18.285 16.003a.644.644 0 01.074.881l-.516.64a.583.583 0 01-.845.078l-2.279-1.995a53.278 53.278 0 01-4.543 5.592c-.2.209-.4.313-.7.313-.3 0-.5-.104-.7-.313-.3-.313-8.304-8.765-8.304-14.296a9.96 9.96 0 01.547-3.287L.214 4.087a.644.644 0 01-.074-.88zM10.977 0c4.402 0 9.004 3.548 9.004 9.391 0 1.57-.648 3.376-1.579 5.165L13.768 10.5c.123-.346.21-.71.21-1.11 0-1.774-1.3-3.13-3.001-3.13-.577 0-1.1.165-1.548.441L4.751 2.608C6.46.934 8.738 0 10.977 0z" id="location-pin-lost-24px_svg__a"/></defs><use fill="#737373" xlink:href="#location-pin-lost-24px_svg__a" fill-rule="evenodd"/></svg>