<svg width="14" height="16" xmlns="http://www.w3.org/2000/svg" xmlns:xlink="http://www.w3.org/1999/xlink"><defs><path d="M.459 2.144a.432.432 0 01.592-.05l12.8 10.345a.394.394 0 01.05.57l-.36.414a.43.43 0 01-.592.05l-1.595-1.29a35.202 35.202 0 01-3.18 3.615.647.647 0 01-.49.202.647.647 0 01-.49-.202c-.21-.203-5.813-5.666-5.813-9.241 0-.775.142-1.482.383-2.125L.15 3.128a.394.394 0 01-.052-.57zM7.497 0C10.677 0 14 2.437 14 6.452c0 1.079-.468 2.32-1.14 3.548L9.513 7.214c.089-.237.151-.487.151-.762 0-1.219-.939-2.15-2.167-2.15a2.19 2.19 0 00-1.118.303L3 1.792C4.234.642 5.88 0 7.497 0z" id="location-pin-lost-16px_svg__a"/></defs><use fill="#737373" xlink:href="#location-pin-lost-16px_svg__a" fill-rule="evenodd"/></svg>