<svg width="12" height="12" xmlns="http://www.w3.org/2000/svg" xmlns:xlink="http://www.w3.org/1999/xlink"><defs><path d="M6 0C4.034 0 2 1.496 2 4c0 2.3 3.272 5.664 3.645 6.04a.5.5 0 00.71 0C6.728 9.664 10 6.3 10 4c0-2.504-2.034-4-4-4zM2.824 8.269c.23.317.464.618.693.897-1.528.221-2.425.61-2.52.854.14.315 1.982.98 5.003.98 2.963 0 4.791-.64 4.993-1-.138-.245-1.027-.618-2.51-.833.228-.279.462-.58.693-.897C10.7 8.546 12 9.073 12 10c0 1.579-3.771 2-6 2l-.19-.001C3.566 11.976 0 11.535 0 10c0-.927 1.3-1.453 2.824-1.731zM6 3a1 1 0 110 2 1 1 0 010-2z" id="location-pin-area-12px_svg__a"/></defs><use fill="#737373" xlink:href="#location-pin-area-12px_svg__a" fill-rule="evenodd"/></svg>