<?xml version="1.0" encoding="UTF-8"?>
<svg width="16px" height="18px" viewBox="0 0 16 18" version="1.1" xmlns="http://www.w3.org/2000/svg" xmlns:xlink="http://www.w3.org/1999/xlink">
    <!-- Generator: Sketch 56.2 (81672) - https://sketch.com -->
    <title>location-pin-lost-16px</title>
    <desc>Created with Sketch.</desc>
    <defs>
        <path d="M7.53992,5.02661739 L3.79912,1.95566087 C5.16552,0.700356522 6.98712,-7.82608697e-05 8.77752,-7.82608697e-05 C12.29752,-7.82608697e-05 15.97752,2.6607913 15.97752,7.0434 C15.97752,8.22122609 15.45992,9.57513913 14.71512,10.9165304 L11.00952,7.87531304 C11.10792,7.61626957 11.17752,7.34313913 11.17752,7.0434 C11.17752,5.71296522 10.13752,4.69557391 8.77752,4.69557391 C8.31672,4.69557391 7.89752,4.81922609 7.53992,5.02661739 Z M15.8216,13.8683739 C16.024,14.034287 16.0512,14.330113 15.8808,14.5288957 L15.468,15.0094174 C15.2984,15.2074174 14.996,15.2340261 14.7928,15.0673304 L12.9704,13.5709826 C11.272,15.8460261 9.4632,17.642113 9.3376,17.7649826 C9.1776,17.9215043 9.0176,17.9997652 8.7776,17.9997652 C8.5376,17.9997652 8.3776,17.9215043 8.2176,17.7649826 C7.9776,17.5302 1.5776,11.1910696 1.5776,7.04324348 C1.5776,6.1448087 1.7392,5.32385217 2.0152,4.57802609 L0.1712,3.06524348 C-0.0312,2.89854783 -0.0584,2.60272174 0.112,2.40472174 L0.524,1.92341739 C0.6944,1.72541739 0.9968,1.6995913 1.2,1.86628696 L15.8216,13.8683739 Z" id="path-1"></path>
    </defs>
    <g id="Solo-Icons-Final" stroke="none" stroke-width="1" fill="none" fill-rule="evenodd">
        <g id="All-Nucleo-Icons" transform="translate(-318.000000, -4376.000000)">
            <g id="Solo/Nucleo/16px/location-pin-lost" transform="translate(317.000000, 4376.000000)">
                <g id="location-lost">
                    <g id="Group-6" transform="translate(0.200000, 0.000000)">
                        <g id="Colour/Default-Colour" transform="translate(0.800000, 0.000000)">
                            <mask id="mask-2" fill="white">
                                <use xlink:href="#path-1"></use>
                            </mask>
                            <g id="Mask"></g>
                            <g id="Colour/Vault-Text-Grey-(Default)" mask="url(#mask-2)" fill="#555555">
                                <g transform="translate(-24.000000, -24.000000)" id="Colour">
                                    <rect x="0" y="0" width="64" height="64"></rect>
                                </g>
                            </g>
                        </g>
                    </g>
                </g>
            </g>
        </g>
    </g>
</svg>