<?xml version="1.0" encoding="UTF-8"?>
<svg width="12px" height="16px" viewBox="0 0 12 16" version="1.1" xmlns="http://www.w3.org/2000/svg" xmlns:xlink="http://www.w3.org/1999/xlink">
    <!-- Generator: Sketch 59.1 (86144) - https://sketch.com -->
    <title>location-pin-16px</title>
    <desc>Created with Sketch.</desc>
    <defs>
        <path d="M6,0 C3.06666667,0 0,2.36521739 0,6.26086957 C0,9.94782609 5.33333333,15.5826087 5.53333333,15.7913043 C5.66666667,15.9304348 5.8,16 6,16 C6.2,16 6.33333333,15.9304348 6.46666667,15.7913043 C6.66666667,15.5826087 12,9.94782609 12,6.26086957 C12,2.36521739 8.93333333,0 6,0 Z M6,8 C4.86666667,8 4,7.13333333 4,6 C4,4.86666667 4.86666667,4 6,4 C7.13333333,4 8,4.86666667 8,6 C8,7.13333333 7.13333333,8 6,8 Z" id="path-1"></path>
    </defs>
    <g id="Final" stroke="none" stroke-width="1" fill="none" fill-rule="evenodd">
        <g id="All-Nucleo-Icons" transform="translate(-321.000000, -4124.000000)">
            <g id="Solo/Nucleo/16px/location-pin" transform="translate(315.000000, 4120.000000)">
                <g id="pin-3" transform="translate(6.000000, 4.000000)">
                    <g id="Colour/Default-Colour">
                        <mask id="mask-2" fill="white">
                            <use xlink:href="#path-1"></use>
                        </mask>
                        <g id="Mask" fill-rule="nonzero"></g>
                        <g id="colour/neutral/chia" mask="url(#mask-2)" fill="#737373">
                            <g transform="translate(-26.000000, -25.000000)" id="Colour">
                                <rect x="0" y="0" width="64" height="64"></rect>
                            </g>
                        </g>
                    </g>
                </g>
            </g>
        </g>
    </g>
</svg>