<?xml version="1.0" encoding="UTF-8"?>
<svg width="20px" height="20px" viewBox="0 0 20 20" version="1.1" xmlns="http://www.w3.org/2000/svg" xmlns:xlink="http://www.w3.org/1999/xlink">
    <!-- Generator: Sketch 59.1 (86144) - https://sketch.com -->
    <title>log-out-20px</title>
    <desc>Created with Sketch.</desc>
    <defs>
        <path d="M18.75,0 C19.5,0 20,0.5 20,1.25 L20,18.75 C20,19.5 19.5,20 18.75,20 L7.5,20 C6.75,20 6.25,19.5 6.25,18.75 L6.25,15 L8.75,15 L8.75,17.5 L17.5,17.5 L17.5,2.5 L8.75,2.5 L8.75,5 L6.25,5 L6.25,1.25 C6.25,0.5 6.75,0 7.5,0 L18.75,0 Z M5,5 L5,8.75 L12.5,8.75 L12.5,11.25 L5,11.25 L5,15 L0,10 L5,5 Z" id="path-1"></path>
    </defs>
    <g id="Final" stroke="none" stroke-width="1" fill="none" fill-rule="evenodd">
        <g id="All-Nucleo-Icons" transform="translate(-463.000000, -4758.000000)">
            <g id="Solo/Nucleo/20px/log-out" transform="translate(461.000000, 4756.000000)">
                <g transform="translate(2.000000, 2.000000)" id="log-out">
                    <g>
                        <mask id="mask-2" fill="white">
                            <use xlink:href="#path-1"></use>
                        </mask>
                        <g id="Path-3" fill-rule="nonzero"></g>
                        <g id="colour/neutral/chia" mask="url(#mask-2)" fill="#737373">
                            <g transform="translate(-22.000000, -22.000000)" id="Colour">
                                <rect x="0" y="0" width="64" height="64"></rect>
                            </g>
                        </g>
                    </g>
                </g>
            </g>
        </g>
    </g>
</svg>