<?xml version="1.0" encoding="UTF-8"?>
<svg width="20px" height="20px" viewBox="0 0 20 20" version="1.1" xmlns="http://www.w3.org/2000/svg" xmlns:xlink="http://www.w3.org/1999/xlink">
    <!-- Generator: Sketch 56.2 (81672) - https://sketch.com -->
    <title>log-in-20px</title>
    <desc>Created with Sketch.</desc>
    <defs>
        <path d="M18.75,20 L7.5,20 C6.75,20 6.25,19.5 6.25,18.75 L6.25,15 L8.75,15 L8.75,17.5 L17.5,17.5 L17.5,2.5 L8.75,2.5 L8.75,5 L6.25,5 L6.25,1.25 C6.25,0.5 6.75,0 7.5,0 L18.75,0 C19.5,0 20,0.5 20,1.25 L20,18.75 C20,19.5 19.5,20 18.75,20 Z M10,15 L10,11.25 L0,11.25 L0,8.75 L10,8.75 L10,5 L15,10 L10,15 Z" id="path-1"></path>
    </defs>
    <g id="Solo-Icons-Final" stroke="none" stroke-width="1" fill="none" fill-rule="evenodd">
        <g id="All-Nucleo-Icons" transform="translate(-463.000000, -4630.000000)">
            <g id="Solo/Nucleo/20px/log-in" transform="translate(463.000000, 4630.000000)">
                <g id="log-in">
                    <g>
                        <g id="Colour/Default-Colour">
                            <mask id="mask-2" fill="white">
                                <use xlink:href="#path-1"></use>
                            </mask>
                            <g id="Mask" fill-rule="nonzero"></g>
                            <g id="Colour/Vault-Text-Grey-(Default)" mask="url(#mask-2)" fill="#555555">
                                <g transform="translate(-22.000000, -22.000000)" id="Colour">
                                    <rect x="0" y="0" width="64" height="64"></rect>
                                </g>
                            </g>
                        </g>
                    </g>
                </g>
            </g>
        </g>
    </g>
</svg>