<?xml version="1.0" encoding="UTF-8"?>
<svg width="22px" height="22px" viewBox="0 0 22 22" version="1.1" xmlns="http://www.w3.org/2000/svg" xmlns:xlink="http://www.w3.org/1999/xlink">
    <!-- Generator: Sketch 59.1 (86144) - https://sketch.com -->
    <title>minimise-24px</title>
    <desc>Created with Sketch.</desc>
    <defs>
        <path d="M1.77635684e-15,12 L9,12 C9.552,12 10,12.447 10,13 L10,13 L10,22 L8,22 L8,15.414 L1.707,21.707 L0.293,20.293 L6.586,14 L1.77635684e-15,14 L1.77635684e-15,12 Z M14,-1.77635684e-15 L14,6.586 L20.293,0.293 L21.707,1.707 L15.414,8 L22,8 L22,10 L13,10 C12.448,10 12,9.553 12,9 L12,9 L12,-1.77635684e-15 L14,-1.77635684e-15 Z" id="path-1"></path>
    </defs>
    <g id="Final" stroke="none" stroke-width="1" fill="none" fill-rule="evenodd">
        <g id="All-Nucleo-Icons" transform="translate(-609.000000, -5023.000000)">
            <g id="Solo/Nucleo/24px/minimise" transform="translate(608.000000, 5022.000000)">
                <g id="minimise-double" transform="translate(1.000000, 1.000000)">
                    <g id="Colour/Default-Colour">
                        <mask id="mask-2" fill="white">
                            <use xlink:href="#path-1"></use>
                        </mask>
                        <use id="Mask" fill="#000000" fill-rule="nonzero" xlink:href="#path-1"></use>
                        <g id="colour/neutral/chia" mask="url(#mask-2)" fill="#737373">
                            <g transform="translate(-20.000000, -21.000000)" id="Colour">
                                <rect x="0" y="0" width="64" height="64"></rect>
                            </g>
                        </g>
                    </g>
                </g>
            </g>
        </g>
    </g>
</svg>