<svg width="10" height="12" xmlns="http://www.w3.org/2000/svg" xmlns:xlink="http://www.w3.org/1999/xlink"><defs><path d="M7.27 11.007c.27 0 .488.223.488.497A.492.492 0 017.27 12H2.774a.492.492 0 01-.487-.496c0-.274.218-.497.487-.497zm1.997-9.079a.29.29 0 01.413.034.3.3 0 01-.033.42l-8.56 7.432h8.37c.162 0 .293.134.293.298a.296.296 0 01-.293.298H.293a.294.294 0 01-.275-.195.302.302 0 01.085-.33L2.228 8.04l-.131-2.42c0-.088.01-.174.028-.259.012-.054.032-.105.05-.157.009-.025.015-.05.026-.075.029-.068.065-.13.105-.193l.009-.013a1.21 1.21 0 01.262-.292 3.947 3.947 0 012.449-.815c.67 0 1.226.151 1.666.348zM7.682 4.851c.021.03.045.057.065.088l.022.035c.032.053.061.107.085.164.013.032.023.064.034.097.014.043.03.086.039.13.017.083.028.167.028.253v.002l-.202 3.596H2.694zM5.026 0c.899 0 1.627.712 1.627 1.59 0 .878-.728 1.59-1.627 1.59-.9 0-1.628-.712-1.628-1.59C3.398.712 4.127 0 5.026 0z" id="passenger-12px_svg__a"/></defs><use fill="#737373" xlink:href="#passenger-12px_svg__a" fill-rule="evenodd"/></svg>