<svg width="20" height="24" xmlns="http://www.w3.org/2000/svg" xmlns:xlink="http://www.w3.org/1999/xlink"><defs><path d="M14.54 22.015c.538 0 .976.444.976.992a.985.985 0 01-.976.993H5.549a.984.984 0 01-.976-.993c0-.548.437-.992.976-.992zm3.994-18.159a.578.578 0 01.825.067.601.601 0 01-.065.84L2.174 19.628h16.74c.323 0 .586.267.586.596 0 .33-.263.597-.586.597H.586a.587.587 0 01-.55-.39.605.605 0 01.17-.66l4.25-3.69-.263-4.841c0-.176.022-.348.058-.517.023-.108.062-.21.098-.315.018-.05.032-.1.053-.15.057-.135.13-.262.21-.386.007-.008.012-.017.018-.026.144-.216.311-.419.524-.583.941-.73 2.574-1.63 4.898-1.63 1.342 0 2.451.301 3.332.695zm-3.17 5.846c.043.059.09.114.13.176l.044.07c.064.106.123.214.17.329.027.063.046.128.068.193.028.087.059.172.078.262.035.164.056.333.056.504v.004l-.404 7.191H5.39zM10.051 0c1.797 0 3.254 1.424 3.254 3.18 0 1.756-1.457 3.18-3.254 3.18-1.798 0-3.255-1.424-3.255-3.18C6.797 1.424 8.254 0 10.052 0z" id="passenger-24px_svg__a"/></defs><use fill="#737373" xlink:href="#passenger-24px_svg__a" fill-rule="evenodd"/></svg>