<svg width="17" height="20" xmlns="http://www.w3.org/2000/svg" xmlns:xlink="http://www.w3.org/1999/xlink"><defs><path d="M12.117 18.346a.82.82 0 01.813.827.82.82 0 01-.813.827H4.624a.82.82 0 01-.813-.827.82.82 0 01.813-.827zm3.328-15.132a.482.482 0 01.688.055.502.502 0 01-.055.7L1.812 16.358h13.95c.27 0 .488.222.488.497a.493.493 0 01-.488.497H.488a.49.49 0 01-.458-.326.504.504 0 01.142-.55l3.541-3.074-.219-4.035c0-.146.018-.29.048-.43.02-.09.053-.176.082-.263.015-.04.026-.084.044-.124.048-.113.109-.219.176-.322l.014-.022c.12-.18.26-.35.437-.486.784-.61 2.145-1.36 4.081-1.36 1.119 0 2.043.25 2.778.58zm-2.642 4.871c.036.049.076.095.109.147l.036.058c.054.089.103.178.142.274.022.052.039.107.056.161.024.072.05.143.065.218.03.137.047.278.047.42v.003l-.336 5.994H4.49zM8.377 0c1.497 0 2.712 1.187 2.712 2.65 0 1.464-1.215 2.65-2.712 2.65-1.499 0-2.713-1.186-2.713-2.65C5.664 1.187 6.878 0 8.377 0z" id="passenger-20px_svg__a"/></defs><use fill="#737373" xlink:href="#passenger-20px_svg__a" fill-rule="evenodd"/></svg>