<svg width="13" height="16" xmlns="http://www.w3.org/2000/svg" xmlns:xlink="http://www.w3.org/1999/xlink"><defs><path d="M9.693 14.677c.36 0 .65.296.65.661a.656.656 0 01-.65.662H3.7a.656.656 0 01-.65-.662c0-.365.29-.661.65-.661zM12.356 2.57a.386.386 0 01.55.044.401.401 0 01-.044.56L1.45 13.086h11.16c.215 0 .39.179.39.398 0 .22-.175.397-.39.397H.39a.391.391 0 01-.366-.26.403.403 0 01.113-.44l2.833-2.46-.175-3.227c0-.117.015-.232.039-.344.015-.072.042-.14.066-.21.012-.033.02-.068.034-.1.039-.09.087-.175.141-.257l.012-.018c.096-.144.207-.28.349-.389.627-.487 1.716-1.087 3.265-1.087a5.39 5.39 0 012.222.464zm-2.114 3.897c.03.04.061.076.088.118l.029.046c.042.07.081.142.113.22.018.041.031.085.045.128.019.058.04.114.052.174.024.11.038.222.038.337v.002l-.27 4.795H3.592zM6.702 0C7.9 0 8.87.95 8.87 2.12c0 1.17-.971 2.12-2.17 2.12-1.199 0-2.17-.95-2.17-2.12C4.531.95 5.502 0 6.701 0z" id="passenger-16px_svg__a"/></defs><use fill="#737373" xlink:href="#passenger-16px_svg__a" fill-rule="evenodd"/></svg>