<?xml version="1.0" encoding="UTF-8"?>
<svg width="16px" height="16px" viewBox="0 0 16 16" version="1.1" xmlns="http://www.w3.org/2000/svg" xmlns:xlink="http://www.w3.org/1999/xlink">
    <!-- Generator: Sketch 56.2 (81672) - https://sketch.com -->
    <title>people-2-16px</title>
    <desc>Created with Sketch.</desc>
    <defs>
        <path d="M13.3333333,4.66666667 C12.5966667,4.66666667 12,4.07 12,3.33333333 C12,2.59666667 12.5966667,2 13.3333333,2 C14.07,2 14.6666667,2.59666667 14.6666667,3.33333333 C14.6666667,4.07 14.07,4.66666667 13.3333333,4.66666667 Z M8,4 C6.89533333,4 6,3.10466667 6,2 C6,0.895333333 6.89533333,0 8,0 C9.10466667,0 10,0.895333333 10,2 C10,3.10466667 9.10466667,4 8,4 Z M2.66666667,12.6666667 L4,12.6666667 L4,14 C4,14.368 3.70133333,14.6666667 3.33333333,14.6666667 L2,14.6666667 C1.632,14.6666667 1.33333333,14.368 1.33333333,14 L1.33333333,10.6666667 L0,10.6666667 L0,6.66666667 C0,5.93 0.596666667,5.33333333 1.33333333,5.33333333 L3.35066667,5.33333333 C2.92733333,5.892 2.66666667,6.58 2.66666667,7.33333333 L2.66666667,12.6666667 Z M9.33333333,16 L6.66666667,16 C6.29866667,16 6,15.7013333 6,15.3333333 L6,11.3333333 L4,11.3333333 L4,7.33333333 C4,6.22866667 4.89533333,5.33333333 6,5.33333333 L10,5.33333333 C11.1046667,5.33333333 12,6.22866667 12,7.33333333 L12,11.3333333 L10,11.3333333 L10,15.3333333 C10,15.7013333 9.70133333,16 9.33333333,16 Z M2.66666667,4.66666667 C1.93,4.66666667 1.33333333,4.07 1.33333333,3.33333333 C1.33333333,2.59666667 1.93,2 2.66666667,2 C3.40333333,2 4,2.59666667 4,3.33333333 C4,4.07 3.40333333,4.66666667 2.66666667,4.66666667 Z M13.3333333,12.6666667 L13.3333333,7.33333333 C13.3333333,6.58 13.0726667,5.892 12.6493333,5.33333333 L14.6666667,5.33333333 C15.4033333,5.33333333 16,5.93 16,6.66666667 L16,10.6666667 L14.6666667,10.6666667 L14.6666667,14 C14.6666667,14.368 14.368,14.6666667 14,14.6666667 L12.6666667,14.6666667 C12.2986667,14.6666667 12,14.368 12,14 L12,12.6666667 L13.3333333,12.6666667 Z" id="path-1"></path>
    </defs>
    <g id="Solo-Icons-Final" stroke="none" stroke-width="1" fill="none" fill-rule="evenodd">
        <g id="All-Nucleo-Icons" transform="translate(-318.000000, -5272.000000)">
            <g id="Solo/Nucleo/16px/people-2" transform="translate(318.000000, 5272.000000)">
                <g id="multiple-11">
                    <g id="Colour/Default-Colour">
                        <mask id="mask-2" fill="white">
                            <use xlink:href="#path-1"></use>
                        </mask>
                        <g id="Mask" fill-rule="nonzero"></g>
                        <g id="Colour/Vault-Text-Grey-(Default)" mask="url(#mask-2)" fill="#555555">
                            <g transform="translate(-24.000000, -24.000000)" id="Colour">
                                <rect x="0" y="0" width="64" height="64"></rect>
                            </g>
                        </g>
                    </g>
                </g>
            </g>
        </g>
    </g>
</svg>