<svg width="20" height="20" xmlns="http://www.w3.org/2000/svg" xmlns:xlink="http://www.w3.org/1999/xlink"><defs><path d="M12.5 6.667a2.5 2.5 0 012.5 2.5v5h-2.5v5c0 .46-.373.833-.833.833H8.333a.834.834 0 01-.833-.833v-5H5v-5a2.5 2.5 0 012.5-2.5h5zm-8.312 0a4.124 4.124 0 00-.855 2.5v6.666H5V17.5c0 .46-.373.833-.833.833H2.5a.834.834 0 01-.833-.833v-4.167H0v-5c0-.92.746-1.666 1.667-1.666zm14.145 0c.921 0 1.667.745 1.667 1.666v5h-1.667V17.5c0 .46-.373.833-.833.833h-1.667A.834.834 0 0115 17.5v-1.667h1.667V9.167c0-.942-.326-1.802-.855-2.5h2.521zM16.667 2.5l.144.006a1.666 1.666 0 011.522 1.66l-.006.145a1.666 1.666 0 01-1.66 1.522l-.144-.006A1.666 1.666 0 0115 4.167l.006-.144a1.666 1.666 0 011.66-1.523zm-13.334 0c.873 0 1.588.67 1.66 1.523L5 4.167c0 .872-.67 1.587-1.523 1.66l-.144.006c-.872 0-1.587-.67-1.66-1.522l-.006-.144c0-.873.67-1.588 1.522-1.66l.144-.007zM10 0a2.5 2.5 0 012.495 2.336l.005.164a2.5 2.5 0 01-2.336 2.495L10 5a2.5 2.5 0 01-2.495-2.336L7.5 2.5A2.5 2.5 0 019.836.005L10 0z" id="people-2-20px_svg__a"/></defs><use fill="#737373" xlink:href="#people-2-20px_svg__a" fill-rule="evenodd"/></svg>