<svg width="12" height="8" xmlns="http://www.w3.org/2000/svg" xmlns:xlink="http://www.w3.org/1999/xlink"><defs><path d="M8.625 4.5c1.339 0 2.28.531 2.822.962.354.28.553.712.553 1.165V7.5H8.25v-.873c0-.75-.281-1.445-.764-1.985A4.654 4.654 0 018.625 4.5zm-5.25 0c1.339 0 2.28.531 2.822.962.354.28.553.712.553 1.165V7.5H0v-.873c0-.453.199-.884.553-1.165A4.482 4.482 0 013.376 4.5zm0-4.5a1.875 1.875 0 110 3.75 1.875 1.875 0 010-3.75zm5.25 0a1.875 1.875 0 110 3.75 1.875 1.875 0 010-3.75z" id="people-1-12px_svg__a"/></defs><use fill="#737373" xlink:href="#people-1-12px_svg__a" fill-rule="evenodd"/></svg>