<?xml version="1.0" encoding="UTF-8"?>
<svg width="20px" height="12px" viewBox="0 0 20 12" version="1.1" xmlns="http://www.w3.org/2000/svg" xmlns:xlink="http://www.w3.org/1999/xlink">
    <!-- Generator: Sketch 59.1 (86144) - https://sketch.com -->
    <title>people-1-20px</title>
    <desc>Created with Sketch.</desc>
    <defs>
        <path d="M14.375,7.2 C16.60625,7.2 18.17375,8.0496 19.0775,8.7384 C19.66875,9.1884 20,9.8784 20,10.6032 L20,10.6032 L20,12 L13.75,12 L13.75,10.6032 C13.75,9.4032 13.28125,8.2908 12.47625,7.4268 C13.04625,7.29 13.67375,7.2 14.375,7.2 Z M5.625,7.2 C7.85625,7.2 9.42375,8.0496 10.3275,8.7384 C10.91875,9.1884 11.25,9.8784 11.25,10.6032 L11.25,10.6032 L11.25,12 L0,12 L0,10.6032 C0,9.8784 0.33125,9.1884 0.9225,8.7384 C1.82625,8.0496 3.39375,7.2 5.625,7.2 Z M5.625,0 C7.35088984,0 8.75,1.34314575 8.75,3 C8.75,4.65685425 7.35088984,6 5.625,6 C3.89911016,6 2.5,4.65685425 2.5,3 C2.5,1.34314575 3.89911016,0 5.625,0 Z M14.375,0 C16.1008898,0 17.5,1.34314575 17.5,3 C17.5,4.65685425 16.1008898,6 14.375,6 C12.6491102,6 11.25,4.65685425 11.25,3 C11.25,1.34314575 12.6491102,0 14.375,0 Z" id="path-1"></path>
    </defs>
    <g id="Final" stroke="none" stroke-width="1" fill="none" fill-rule="evenodd">
        <g id="All-Nucleo-Icons" transform="translate(-463.000000, -5150.000000)">
            <g id="Solo/Nucleo/20px/people-1" transform="translate(461.000000, 5144.000000)">
                <g transform="translate(2.000000, 6.000000)" id="multiple">
                    <g>
                        <g id="Colour/Default-Colour">
                            <mask id="mask-2" fill="white">
                                <use xlink:href="#path-1"></use>
                            </mask>
                            <g id="Mask" fill-rule="nonzero"></g>
                            <g id="colour/neutral/chia" mask="url(#mask-2)" fill="#737373">
                                <g transform="translate(-22.000000, -26.000000)" id="Colour">
                                    <rect x="0" y="0" width="64" height="64"></rect>
                                </g>
                            </g>
                        </g>
                    </g>
                </g>
            </g>
        </g>
    </g>
</svg>