<svg width="12" height="12" xmlns="http://www.w3.org/2000/svg" xmlns:xlink="http://www.w3.org/1999/xlink"><defs><path d="M7.5 4A1.5 1.5 0 019 5.5v3H7.5v3a.5.5 0 01-.5.5H5a.5.5 0 01-.5-.5v-3H3v-3A1.5 1.5 0 014.5 4h3zM2.513 4A2.474 2.474 0 002 5.5v4h1v1a.5.5 0 01-.5.5h-1a.5.5 0 01-.5-.5V8H0V5a1 1 0 011-1zM11 4a1 1 0 011 1v3h-1v2.5a.5.5 0 01-.5.5h-1a.5.5 0 01-.5-.5v-1h1v-4c0-.565-.195-1.081-.513-1.5H11zm-1-2.5l.117.007A1 1 0 0111 2.5l-.007.117A1 1 0 0110 3.5l-.117-.007A1 1 0 019 2.5l.007-.117A1 1 0 0110 1.5zm-8 0a1 1 0 01.993.883L3 2.5a1 1 0 01-.883.993L2 3.5a1 1 0 01-.993-.883L1 2.5a1 1 0 01.883-.993L2 1.5zM6 0a1.5 1.5 0 011.493 1.356L7.5 1.5a1.5 1.5 0 01-1.356 1.493L6 3a1.5 1.5 0 01-1.493-1.356L4.5 1.5A1.5 1.5 0 015.856.007L6 0z" id="people-2-12px_svg__a"/></defs><use fill="#737373" xlink:href="#people-2-12px_svg__a" fill-rule="evenodd"/></svg>