<svg width="16" height="16" xmlns="http://www.w3.org/2000/svg" xmlns:xlink="http://www.w3.org/1999/xlink"><defs><path d="M10 5.333a2 2 0 012 2v4h-2v4a.667.667 0 01-.667.667H6.667A.667.667 0 016 15.333v-4H4v-4a2 2 0 012-2h4zm-6.65 0a3.299 3.299 0 00-.683 2v5.334H4V14a.667.667 0 01-.667.667H2A.667.667 0 011.333 14v-3.333H0v-4c0-.737.597-1.334 1.333-1.334zm11.317 0c.736 0 1.333.597 1.333 1.334v4h-1.333V14a.667.667 0 01-.667.667h-1.333A.667.667 0 0112 14v-1.333h1.333V7.333c0-.753-.26-1.441-.684-2h2.018zM13.333 2l.129.006a1.333 1.333 0 011.205 1.327l-.006.129a1.333 1.333 0 01-1.328 1.205l-.128-.006A1.333 1.333 0 0112 3.333l.006-.128A1.333 1.333 0 0113.333 2zM2.667 2c.693 0 1.262.529 1.327 1.205L4 3.333c0 .694-.529 1.263-1.205 1.328l-.128.006a1.333 1.333 0 01-1.328-1.205l-.006-.129c0-.693.529-1.262 1.205-1.327L2.667 2zM8 0a2 2 0 011.995 1.85L10 2a2 2 0 01-1.85 1.995L8 4a2 2 0 01-1.995-1.85L6 2A2 2 0 017.85.005L8 0z" id="people-2-16px_svg__a"/></defs><use fill="#737373" xlink:href="#people-2-16px_svg__a" fill-rule="evenodd"/></svg>