<svg width="24" height="15" xmlns="http://www.w3.org/2000/svg" xmlns:xlink="http://www.w3.org/1999/xlink"><defs><path d="M17.25 9c2.677 0 4.558 1.062 5.643 1.923A2.964 2.964 0 0124 13.254V15h-7.5v-1.746c0-1.5-.563-2.89-1.528-3.97A9.309 9.309 0 0117.25 9zM6.75 9c2.678 0 4.559 1.062 5.643 1.923a2.964 2.964 0 011.107 2.331V15H0v-1.746c0-.906.398-1.768 1.107-2.331C2.192 10.062 4.072 9 6.75 9zm0-9a3.75 3.75 0 110 7.5 3.75 3.75 0 010-7.5zm10.5 0a3.75 3.75 0 110 7.5 3.75 3.75 0 010-7.5z" id="people-1-24px_svg__a"/></defs><use fill="#737373" xlink:href="#people-1-24px_svg__a" fill-rule="evenodd"/></svg>