<svg width="16" height="10" xmlns="http://www.w3.org/2000/svg" xmlns:xlink="http://www.w3.org/1999/xlink"><defs><path d="M11.5 6c1.785 0 3.039.708 3.762 1.282.473.375.738.95.738 1.554V10h-5V8.836c0-1-.375-1.927-1.019-2.647A6.206 6.206 0 0111.5 6zm-7 0c1.785 0 3.039.708 3.762 1.282.473.375.738.95.738 1.554V10H0V8.836c0-.604.265-1.179.738-1.554C1.461 6.708 2.715 6 4.5 6zm0-6a2.5 2.5 0 110 5 2.5 2.5 0 010-5zm7 0a2.5 2.5 0 110 5 2.5 2.5 0 010-5z" id="people-1-16px_svg__a"/></defs><use fill="#737373" xlink:href="#people-1-16px_svg__a" fill-rule="evenodd"/></svg>