<svg width="24" height="24" xmlns="http://www.w3.org/2000/svg" xmlns:xlink="http://www.w3.org/1999/xlink"><defs><path d="M15 8a3 3 0 013 3v6h-3v6a1 1 0 01-1 1h-4a1 1 0 01-1-1v-6H6v-6a3 3 0 013-3h6zM5.026 8A4.948 4.948 0 004 11v8h2v2a1 1 0 01-1 1H3a1 1 0 01-1-1v-5H0v-6a2 2 0 012-2zM22 8a2 2 0 012 2v6h-2v5a1 1 0 01-1 1h-2a1 1 0 01-1-1v-2h2v-8c0-1.13-.391-2.162-1.026-3H22zm-2-5l.15.005A2 2 0 0122 5l-.005.15A2 2 0 0120 7l-.15-.005A2 2 0 0118 5l.005-.15A2 2 0 0120 3zM4 3a2 2 0 011.995 1.85L6 5a2 2 0 01-1.85 1.995L4 7a2 2 0 01-1.995-1.85L2 5a2 2 0 011.85-1.995L4 3zm8-3a3 3 0 012.995 2.824L15 3a3 3 0 01-2.824 2.995L12 6a3 3 0 01-2.995-2.824L9 3A3 3 0 0111.824.005L12 0z" id="people-2-24px_svg__a"/></defs><use fill="#737373" xlink:href="#people-2-24px_svg__a" fill-rule="evenodd"/></svg>