<svg width="20" height="12" xmlns="http://www.w3.org/2000/svg" xmlns:xlink="http://www.w3.org/1999/xlink"><defs><path d="M14.375 7.2c2.231 0 3.799.85 4.703 1.538.59.45.922 1.14.922 1.865V12h-6.25v-1.397c0-1.2-.469-2.312-1.274-3.176a8.063 8.063 0 011.899-.227zm-8.75 0c2.231 0 3.799.85 4.703 1.538.59.45.922 1.14.922 1.865V12H0v-1.397c0-.725.331-1.415.922-1.865C1.827 8.05 3.394 7.2 5.626 7.2zm0-7.2C7.351 0 8.75 1.343 8.75 3s-1.4 3-3.125 3C3.899 6 2.5 4.657 2.5 3s1.4-3 3.125-3zm8.75 0C16.101 0 17.5 1.343 17.5 3s-1.4 3-3.125 3c-1.726 0-3.125-1.343-3.125-3s1.4-3 3.125-3z" id="people-1-20px_svg__a"/></defs><use fill="#737373" xlink:href="#people-1-20px_svg__a" fill-rule="evenodd"/></svg>