<svg width="16" height="16" xmlns="http://www.w3.org/2000/svg" xmlns:xlink="http://www.w3.org/1999/xlink"><defs><path d="M8 0a8 8 0 100 16A8 8 0 008 0zm0 1.391a6.609 6.609 0 016.46 5.218h-3.33a2.507 2.507 0 01-1.165-.423A3.882 3.882 0 008 5.566a3.882 3.882 0 00-1.965.62 2.507 2.507 0 01-1.165.423H1.54A6.609 6.609 0 018 1.39zm0 7.652a1.043 1.043 0 110-2.086 1.043 1.043 0 010 2.086zm-6.46.348h3.33a1.637 1.637 0 011.739 1.74v3.328A6.614 6.614 0 011.54 9.391zm7.851 5.068V11.13a1.637 1.637 0 011.74-1.739h3.328a6.614 6.614 0 01-5.068 5.068z" id="steering-wheel-16px_svg__a"/></defs><use fill="#737373" xlink:href="#steering-wheel-16px_svg__a" fill-rule="evenodd"/></svg>