<?xml version="1.0" encoding="UTF-8"?>
<svg width="6px" height="6px" viewBox="0 0 6 6" version="1.1" xmlns="http://www.w3.org/2000/svg" xmlns:xlink="http://www.w3.org/1999/xlink">
    <!-- Generator: Sketch 60 (88103) - https://sketch.com -->
    <title>steering-wheel-12px</title>
    <desc>Created with Sketch.</desc>
    <defs>
        <path d="M3,0 C1.34314575,0 0,1.34314575 0,3 C0,4.65685425 1.34314575,6 3,6 C4.65685425,6 6,4.65685425 6,3 C6,1.34314575 4.65685425,0 3,0 Z M3,0.52173913 C4.16744152,0.521995705 5.17639677,1.33698379 5.42217391,2.47826087 L4.17391304,2.47826087 C4.01729376,2.46283352 3.86705155,2.40834269 3.73695652,2.31978261 C3.51677097,2.17718739 3.26214365,2.09674319 3,2.08695652 C2.73785635,2.09674319 2.48322903,2.17718739 2.26304348,2.31978261 C2.13294845,2.40834269 1.98270624,2.46283352 1.82608696,2.47826087 L0.577826087,2.47826087 C0.823603228,1.33698379 1.83255848,0.521995705 3,0.52173913 Z M3,3.39130435 C2.78388858,3.39130435 2.60869565,3.21611142 2.60869565,3 C2.60869565,2.78388858 2.78388858,2.60869565 3,2.60869565 C3.21611142,2.60869565 3.39130435,2.78388858 3.39130435,3 C3.39130435,3.21611142 3.21611142,3.39130435 3,3.39130435 Z M0.577826087,3.52173913 L1.82608696,3.52173913 C2.00230253,3.51033894 2.17489219,3.57538039 2.2997559,3.7002441 C2.42461961,3.82510781 2.48966106,3.99769747 2.47826087,4.17391304 L2.47826087,5.42217391 C1.52669396,5.21659404 0.783405962,4.47330604 0.577826087,3.52173913 L0.577826087,3.52173913 Z M3.52173913,5.42217391 L3.52173913,4.17391304 C3.51033894,3.99769747 3.57538039,3.82510781 3.7002441,3.7002441 C3.82510781,3.57538039 3.99769747,3.51033894 4.17391304,3.52173913 L5.42217391,3.52173913 C5.21659404,4.47330604 4.47330604,5.21659404 3.52173913,5.42217391 Z" id="path-1"></path>
    </defs>
    <g id="Final" stroke="none" stroke-width="1" fill="none" fill-rule="evenodd">
        <g id="All-Nucleo-Icons" transform="translate(-176.000000, -7710.000000)">
            <g id="Solo/Nucleo/12px/steering-wheel-12px" transform="translate(173.000000, 7707.000000)">
                <g id="steering-wheel-12px" transform="translate(3.000000, 3.000000)">
                    <mask id="mask-2" fill="white">
                        <use xlink:href="#path-1"></use>
                    </mask>
                    <use id="Mask" fill="#999999" fill-rule="nonzero" xlink:href="#path-1"></use>
                    <g id="colour/neutral/chia" mask="url(#mask-2)" fill="#737373">
                        <g transform="translate(-13.000000, -13.500000)" id="Colour">
                            <rect x="0" y="0" width="32" height="32"></rect>
                        </g>
                    </g>
                </g>
            </g>
        </g>
    </g>
</svg>