<svg width="18" height="18" xmlns="http://www.w3.org/2000/svg" xmlns:xlink="http://www.w3.org/1999/xlink"><defs><path d="M8.333 0a8.333 8.333 0 100 16.667A8.333 8.333 0 008.333 0zm0 1.45a6.884 6.884 0 016.729 5.434h-3.468a2.612 2.612 0 01-1.214-.44 4.043 4.043 0 00-2.047-.647 4.043 4.043 0 00-2.047.647 2.612 2.612 0 01-1.214.44H1.605A6.884 6.884 0 018.333 1.45zm0 7.97a1.087 1.087 0 110-2.174 1.087 1.087 0 010 2.174zm-6.728.363h3.467a1.705 1.705 0 011.812 1.811v3.468a6.89 6.89 0 01-5.279-5.28zm8.178 5.279v-3.468a1.705 1.705 0 011.811-1.811h3.468a6.89 6.89 0 01-5.28 5.279z" id="steering-wheel-20px_svg__a"/></defs><use fill="#737373" xlink:href="#steering-wheel-20px_svg__a" transform="translate(.667 .667)" fill-rule="evenodd"/></svg>