<svg width="24" height="24" xmlns="http://www.w3.org/2000/svg" xmlns:xlink="http://www.w3.org/1999/xlink"><defs><path d="M12 0C5.373 0 0 5.373 0 12s5.373 12 12 12 12-5.373 12-12S18.627 0 12 0zm0 2.087a9.913 9.913 0 019.689 7.826h-4.993a3.761 3.761 0 01-1.748-.634c-.88-.57-1.9-.892-2.948-.931a5.823 5.823 0 00-2.948.931 3.761 3.761 0 01-1.748.634H2.311A9.913 9.913 0 0112 2.087zm0 11.478a1.565 1.565 0 110-3.13 1.565 1.565 0 010 3.13zm-9.689.522h4.993a2.455 2.455 0 012.609 2.609v4.993a9.92 9.92 0 01-7.602-7.602zm11.776 7.602v-4.993a2.455 2.455 0 012.609-2.609h4.993a9.92 9.92 0 01-7.602 7.602z" id="steering-wheel-24px_svg__a"/></defs><use fill="#737373" xlink:href="#steering-wheel-24px_svg__a" fill-rule="evenodd"/></svg>