<?xml version="1.0" encoding="UTF-8"?>
<svg width="12px" height="12px" viewBox="0 0 12 12" version="1.1" xmlns="http://www.w3.org/2000/svg" xmlns:xlink="http://www.w3.org/1999/xlink">
    <!-- Generator: Sketch 60 (88103) - https://sketch.com -->
    <title>steering-wheel-16px</title>
    <desc>Created with Sketch.</desc>
    <defs>
        <path d="M5.33333333,0 C2.38781467,0 0,2.38781467 0,5.33333333 C0,8.278852 2.38781467,10.6666667 5.33333333,10.6666667 C8.278852,10.6666667 10.6666667,8.278852 10.6666667,5.33333333 C10.6666667,2.38781467 8.278852,0 5.33333333,0 Z M5.33333333,0.927536232 C7.40878493,0.927992364 9.20248315,2.37686007 9.63942029,4.4057971 L7.42028986,4.4057971 C7.14185558,4.3783707 6.8747583,4.28149811 6.64347826,4.12405797 C6.25203728,3.87055536 5.79936649,3.72754344 5.33333333,3.71014493 C4.86730018,3.72754344 4.41462939,3.87055536 4.02318841,4.12405797 C3.79190836,4.28149811 3.52481109,4.3783707 3.24637681,4.4057971 L1.02724638,4.4057971 C1.46418352,2.37686007 3.25788173,0.927992364 5.33333333,0.927536232 Z M5.33333333,6.02898551 C4.94913525,6.02898551 4.63768116,5.71753142 4.63768116,5.33333333 C4.63768116,4.94913525 4.94913525,4.63768116 5.33333333,4.63768116 C5.71753142,4.63768116 6.02898551,4.94913525 6.02898551,5.33333333 C6.02898551,5.71753142 5.71753142,6.02898551 5.33333333,6.02898551 Z M1.02724638,6.26086957 L3.24637681,6.26086957 C3.55964893,6.24060257 3.86647501,6.35623181 4.08845494,6.57821173 C4.31043486,6.80019165 4.4260641,7.10701773 4.4057971,7.42028986 L4.4057971,9.63942029 C2.7141226,9.27394496 1.39272171,7.95254407 1.02724638,6.26086957 L1.02724638,6.26086957 Z M6.26086957,9.63942029 L6.26086957,7.42028986 C6.24060257,7.10701773 6.35623181,6.80019165 6.57821173,6.57821173 C6.80019165,6.35623181 7.10701773,6.24060257 7.42028986,6.26086957 L9.63942029,6.26086957 C9.27394496,7.95254407 7.95254407,9.27394496 6.26086957,9.63942029 Z" id="path-1"></path>
    </defs>
    <g id="Final" stroke="none" stroke-width="1" fill="none" fill-rule="evenodd">
        <g id="All-Nucleo-Icons" transform="translate(-320.000000, -7707.000000)">
            <g id="Solo/Nucleo/16px/steering-wheel-16px" transform="translate(318.000000, 7705.000000)">
                <g id="steering-wheel-16px" transform="translate(2.666667, 2.666667)">
                    <mask id="mask-2" fill="white">
                        <use xlink:href="#path-1"></use>
                    </mask>
                    <use id="Mask" fill="#999999" fill-rule="nonzero" xlink:href="#path-1"></use>
                    <g id="colour/neutral/chia" mask="url(#mask-2)" fill="#737373">
                        <g transform="translate(-16.000000, -16.666667)" id="Colour">
                            <rect x="0" y="0" width="42.6666667" height="42.6666667"></rect>
                        </g>
                    </g>
                </g>
            </g>
        </g>
    </g>
</svg>