<?xml version="1.0" encoding="UTF-8"?>
<svg width="22px" height="16px" viewBox="0 0 22 16" version="1.1" xmlns="http://www.w3.org/2000/svg" xmlns:xlink="http://www.w3.org/1999/xlink">
    <!-- Generator: Sketch 59.1 (86144) - https://sketch.com -->
    <title>tick-24px</title>
    <desc>Created with Sketch.</desc>
    <defs>
        <path d="M8.5,17.0000002 C8.10210629,17.0001803 7.72044347,16.8422632 7.439,16.561 C5.87011111,14.9918889 4.69344444,13.8150556 3.909,13.0305 C3.0858083,12.2071917 2.2626166,11.3838834 1.4394249,10.5605751 C0.853756251,9.9748235 0.853789875,9.02521013 1.4395,8.4395 C2.02519798,7.85380202 2.97480202,7.85380202 3.5605,8.4395 L8.5,13.379 L8.5,13.379 L20.4395,1.4395 C21.025198,0.853802023 21.974802,0.853802023 22.5605,1.4395 C23.1462041,2.02520408 23.146221,2.97481281 22.5605377,3.56053771 L9.561,16.561 L9.561,16.561 C9.27955653,16.8422632 8.89789371,17.0001803 8.5,17.0000002 Z" id="path-1"></path>
    </defs>
    <g id="Final" stroke="none" stroke-width="1" fill="none" fill-rule="evenodd">
        <g id="All-Nucleo-Icons" transform="translate(-609.000000, -6559.000000)">
            <g id="Solo/Nucleo/24px/tick" transform="translate(608.000000, 6554.000000)">
                <g id="check" transform="translate(0.000000, 4.000000)">
                    <g id="Colour/Default-Colour">
                        <mask id="mask-2" fill="white">
                            <use xlink:href="#path-1"></use>
                        </mask>
                        <use id="Mask" fill="#000000" fill-rule="nonzero" xlink:href="#path-1"></use>
                        <g id="colour/neutral/chia" mask="url(#mask-2)" fill="#737373">
                            <g transform="translate(-20.000000, -25.000000)" id="Colour">
                                <rect x="0" y="0" width="64" height="64"></rect>
                            </g>
                        </g>
                    </g>
                </g>
            </g>
        </g>
    </g>
</svg>