<?xml version="1.0" encoding="UTF-8"?>
<svg width="20px" height="20px" viewBox="0 0 20 20" version="1.1" xmlns="http://www.w3.org/2000/svg" xmlns:xlink="http://www.w3.org/1999/xlink">
    <!-- Generator: Sketch 56.2 (81672) - https://sketch.com -->
    <title>tick-box-20px</title>
    <desc>Created with Sketch.</desc>
    <defs>
        <path d="M2.12121212,0 L17.8787879,0 C19.050301,0 20,0.949699016 20,2.12121212 L20,17.8787879 C20,19.050301 19.050301,20 17.8787879,20 L2.12121212,20 C0.949699016,20 0,19.050301 0,17.8787879 L0,2.12121212 C0,0.949699016 0.949699016,0 2.12121212,0 Z M2.12121212,1.81818182 C1.95385311,1.81818182 1.81818182,1.95385311 1.81818182,2.12121212 L1.81818182,17.8787879 C1.81818182,18.0461469 1.95385311,18.1818182 2.12121212,18.1818182 L17.8787879,18.1818182 C18.0461469,18.1818182 18.1818182,18.0461469 18.1818182,17.8787879 L18.1818182,2.12121212 C18.1818182,1.95385311 18.0461469,1.81818182 17.8787879,1.81818182 L2.12121212,1.81818182 Z" id="path-1"></path>
    </defs>
    <g id="Solo-Icons-Final" stroke="none" stroke-width="1" fill="none" fill-rule="evenodd">
        <g id="All-Nucleo-Icons" transform="translate(-463.000000, -6423.000000)">
            <g id="Solo/Nucleo/20px/tick-box" transform="translate(463.000000, 6423.000000)">
                <g id="shape-rectangle">
                    <g>
                        <g id="Colour/Default-Colour">
                            <mask id="mask-2" fill="white">
                                <use xlink:href="#path-1"></use>
                            </mask>
                            <g id="Mask" fill-rule="nonzero"></g>
                            <g id="Colour/Vault-Text-Grey-(Default)" mask="url(#mask-2)" fill="#555555">
                                <g transform="translate(-22.000000, -23.000000)" id="Colour">
                                    <rect x="0" y="0" width="64" height="64"></rect>
                                </g>
                            </g>
                        </g>
                    </g>
                </g>
            </g>
        </g>
    </g>
</svg>