<?xml version="1.0" encoding="UTF-8"?>
<svg width="20px" height="20px" viewBox="0 0 20 20" version="1.1" xmlns="http://www.w3.org/2000/svg" xmlns:xlink="http://www.w3.org/1999/xlink">
    <!-- Generator: Sketch 59.1 (86144) - https://sketch.com -->
    <title>trash-delete-20px</title>
    <desc>Created with Sketch.</desc>
    <defs>
        <path d="M15,3.75 L15,1.25 C15,0.5 14.5,0 13.75,0 L6.25,0 C5.5,0 5,0.5 5,1.25 L5,3.75 L0,3.75 L0,6.25 L20,6.25 L20,3.75 L15,3.75 Z M17.5,7.5 L17.5,17.5 C17.5,18.875 16.375,20 15,20 L15,20 L5,20 C3.625,20 2.5,18.875 2.5,17.5 L2.5,17.5 L2.5,7.5 L17.5,7.5 Z M12.5,2.5 L12.5,3.75 L7.5,3.75 L7.5,2.5 L12.5,2.5 Z" id="path-1"></path>
    </defs>
    <g id="Final" stroke="none" stroke-width="1" fill="none" fill-rule="evenodd">
        <g id="All-Nucleo-Icons" transform="translate(-463.000000, -6801.000000)">
            <g id="Solo/Nucleo/20px/trash-delete" transform="translate(461.000000, 6799.000000)">
                <g transform="translate(2.000000, 2.000000)" id="trash">
                    <g>
                        <g id="Colour/Default-Colour">
                            <mask id="mask-2" fill="white">
                                <use xlink:href="#path-1"></use>
                            </mask>
                            <g id="Mask" fill-rule="nonzero"></g>
                            <g id="colour/neutral/chia" mask="url(#mask-2)" fill="#737373">
                                <g transform="translate(-22.000000, -23.000000)" id="Colour">
                                    <rect x="0" y="0" width="64" height="64"></rect>
                                </g>
                            </g>
                        </g>
                    </g>
                </g>
            </g>
        </g>
    </g>
</svg>