<?xml version="1.0" encoding="UTF-8"?>
<svg width="12px" height="12px" viewBox="0 0 12 12" version="1.1" xmlns="http://www.w3.org/2000/svg" xmlns:xlink="http://www.w3.org/1999/xlink">
    <!-- Generator: Sketch 56.2 (81672) - https://sketch.com -->
    <title>trash-delete-12px</title>
    <desc>Created with Sketch.</desc>
    <defs>
        <path d="M9,2.25 L9,0.75 C9,0.3 8.7,0 8.25,0 L3.75,0 C3.3,0 3,0.3 3,0.75 L3,2.25 L0,2.25 L0,3.75 L12,3.75 L12,2.25 L9,2.25 Z M7.5,2.25 L4.5,2.25 L4.5,1.5 L7.5,1.5 L7.5,2.25 Z M1.5,4.5 L10.5,4.5 L10.5,10.5 C10.5,11.325 9.825,12 9,12 L3,12 C2.175,12 1.5,11.325 1.5,10.5 L1.5,4.5 Z" id="path-1"></path>
    </defs>
    <g id="Solo-Icons-Final" stroke="none" stroke-width="1" fill="none" fill-rule="evenodd">
        <g id="All-Nucleo-Icons" transform="translate(-173.000000, -6555.000000)">
            <g id="Solo/Nucleo/12px/trash-delete" transform="translate(173.000000, 6555.000000)">
                <g id="trash">
                    <g id="Colour/Default-Colour">
                        <mask id="mask-2" fill="white">
                            <use xlink:href="#path-1"></use>
                        </mask>
                        <g id="Mask" fill-rule="nonzero"></g>
                        <g id="Colour/Vault-Text-Grey-(Default)" mask="url(#mask-2)" fill="#555555">
                            <g transform="translate(-18.000000, -18.750000)" id="Colour">
                                <rect x="0" y="0" width="48" height="48"></rect>
                            </g>
                        </g>
                    </g>
                </g>
            </g>
        </g>
    </g>
</svg>