<?xml version="1.0" encoding="UTF-8"?>
<svg width="20px" height="20px" viewBox="0 0 20 20" version="1.1" xmlns="http://www.w3.org/2000/svg" xmlns:xlink="http://www.w3.org/1999/xlink">
    <!-- Generator: Sketch 56.2 (81672) - https://sketch.com -->
    <title>user-profile-20px</title>
    <desc>Created with Sketch.</desc>
    <defs>
        <path d="M10,12.5 C12.0710678,12.5 13.75,10.8210678 13.75,8.75 C13.75,6.67893219 12.0710678,5 10,5 C7.92893219,5 6.25,6.67893219 6.25,8.75 C6.25,10.8210678 7.92893219,12.5 10,12.5 Z M10,0 C4.5,0 0,4.5 0,10 C0,15.5 4.5,20 10,20 C15.5,20 20,15.5 20,10 C20,4.5 15.5,0 10,0 Z M15,15.5 C14.25,14.625 13.25,13.75 11.25,13.75 L8.75,13.75 C6.75,13.75 5.75,14.625 5,15.5 C3.5,14.125 2.5,12.25 2.5,10 C2.5,5.875 5.875,2.5 10,2.5 C14.125,2.5 17.5,5.875 17.5,10 C17.5,12.25 16.5,14.125 15,15.5 Z" id="path-1"></path>
    </defs>
    <g id="Solo-Icons-Final" stroke="none" stroke-width="1" fill="none" fill-rule="evenodd">
        <g id="All-Nucleo-Icons" transform="translate(-463.000000, -6678.000000)">
            <g id="Solo/Nucleo/20px/user-profile" transform="translate(463.000000, 6678.000000)">
                <g id="circle-08">
                    <g>
                        <g id="Colour/Default-Colour">
                            <mask id="mask-2" fill="white">
                                <use xlink:href="#path-1"></use>
                            </mask>
                            <g id="Mask" fill-rule="nonzero"></g>
                            <g id="Colour/Vault-Text-Grey-(Default)" mask="url(#mask-2)" fill="#555555">
                                <g transform="translate(-22.000000, -22.000000)" id="Colour">
                                    <rect x="0" y="0" width="64" height="64"></rect>
                                </g>
                            </g>
                        </g>
                    </g>
                </g>
            </g>
        </g>
    </g>
</svg>