<svg width="12" height="12" xmlns="http://www.w3.org/2000/svg" xmlns:xlink="http://www.w3.org/1999/xlink"><defs><path d="M6 7.5A2.25 2.25 0 106 3a2.25 2.25 0 000 4.5zM6 0C2.7 0 0 2.7 0 6s2.7 6 6 6 6-2.7 6-6-2.7-6-6-6zm3 9.3c-.45-.525-1.05-1.05-2.25-1.05h-1.5c-1.2 0-1.8.525-2.25 1.05-.9-.825-1.5-1.95-1.5-3.3 0-2.475 2.025-4.5 4.5-4.5s4.5 2.025 4.5 4.5c0 1.35-.6 2.475-1.5 3.3z" id="user-profile-12px_svg__a"/></defs><use fill="#737373" xlink:href="#user-profile-12px_svg__a" fill-rule="evenodd"/></svg>