<svg width="20" height="20" xmlns="http://www.w3.org/2000/svg" xmlns:xlink="http://www.w3.org/1999/xlink"><defs><path d="M10 12.5A3.75 3.75 0 1010 5a3.75 3.75 0 000 7.5zM10 0C4.5 0 0 4.5 0 10s4.5 10 10 10 10-4.5 10-10S15.5 0 10 0zm5 15.5c-.75-.875-1.75-1.75-3.75-1.75h-2.5c-2 0-3 .875-3.75 1.75-1.5-1.375-2.5-3.25-2.5-5.5 0-4.125 3.375-7.5 7.5-7.5s7.5 3.375 7.5 7.5c0 2.25-1 4.125-2.5 5.5z" id="user-profile-20px_svg__a"/></defs><use fill="#737373" xlink:href="#user-profile-20px_svg__a" fill-rule="evenodd"/></svg>