<svg width="20" height="19" xmlns="http://www.w3.org/2000/svg" xmlns:xlink="http://www.w3.org/1999/xlink"><defs><path d="M.105 17.923A.906.906 0 00.91 19.25h18.18a.905.905 0 00.803-1.327L10.806.732A.901.901 0 0010 .25a.896.896 0 00-.804.482L.106 17.923zm9.896-14.628l7.374 13.945H2.627L10 3.295zm-.91 8.717c0 .499.409.903.91.903a.906.906 0 00.909-.903v-3.62a.907.907 0 00-.91-.905.908.908 0 00-.91.905v3.62zm.91 3.619a.908.908 0 00.909-.906.907.907 0 00-.91-.904.908.908 0 00-.91.904c0 .501.41.906.91.906z" id="warning-1-20px_svg__a"/></defs><use fill="#737373" xlink:href="#warning-1-20px_svg__a" transform="translate(0 -.25)" fill-rule="evenodd"/></svg>