<?xml version="1.0" encoding="UTF-8"?>
<svg width="24px" height="23px" viewBox="0 0 24 23" version="1.1" xmlns="http://www.w3.org/2000/svg" xmlns:xlink="http://www.w3.org/1999/xlink">
    <!-- Generator: Sketch 59.1 (86144) - https://sketch.com -->
    <title>warning-1-24px</title>
    <desc>Created with Sketch.</desc>
    <defs>
        <path d="M0.127356733,21.2081 C-0.255643267,21.9311 0.271356733,22.8001 1.09235673,22.8001 L22.9073567,22.8001 C23.7293567,22.8001 24.2563567,21.9311 23.8723567,21.2081 L12.9653567,0.5791 C12.7603567,0.1931 12.3803567,0.000100000001 12.0003567,0.000100000001 C11.6193567,0.000100000001 11.2383567,0.1931 11.0353567,0.5791 L0.127356733,21.2081 Z M12.0003567,3.2461 L21.2813567,20.7971 L2.72035673,20.7971 L12.0003567,3.2461 Z M10.9083567,14.1151 C10.9083567,14.7141 11.3983567,15.1991 12.0003567,15.1991 C12.6033567,15.1991 13.0913567,14.7141 13.0913567,14.1151 L13.0913567,9.7701 C13.0913567,9.1701 12.6033567,8.6851 12.0003567,8.6851 C11.3983567,8.6851 10.9083567,9.1701 10.9083567,9.7701 L10.9083567,14.1151 Z M12.0003567,18.4581 C12.6033567,18.4581 13.0913567,17.9711 13.0913567,17.3711 C13.0913567,16.7711 12.6033567,16.2851 12.0003567,16.2851 C11.3983567,16.2851 10.9083567,16.7711 10.9083567,17.3711 C10.9083567,17.9711 11.3983567,18.4581 12.0003567,18.4581 L12.0003567,18.4581 Z" id="path-1"></path>
    </defs>
    <g id="Final" stroke="none" stroke-width="1" fill="none" fill-rule="evenodd">
        <g id="All-Nucleo-Icons" transform="translate(-608.000000, -5663.000000)">
            <g id="Solo/Nucleo/24px/warning-1" transform="translate(608.000000, 5662.000000)">
                <g id="warning-1" transform="translate(0.000000, 1.000000)">
                    <g id="Colour/Default-Colour">
                        <g>
                            <mask id="mask-2" fill="white">
                                <use xlink:href="#path-1"></use>
                            </mask>
                            <use id="Mask" fill="#000000" xlink:href="#path-1"></use>
                            <g id="colour/neutral/chia" mask="url(#mask-2)" fill="#737373">
                                <g transform="translate(-18.000000, -21.000000)" id="Colour">
                                    <rect x="0" y="0" width="64" height="64"></rect>
                                </g>
                            </g>
                        </g>
                    </g>
                </g>
            </g>
        </g>
    </g>
</svg>