<svg width="24" height="23" xmlns="http://www.w3.org/2000/svg" xmlns:xlink="http://www.w3.org/1999/xlink"><defs><path d="M.127 21.208a1.086 1.086 0 00.965 1.592h21.815c.822 0 1.35-.869.965-1.592L12.965.58A1.08 1.08 0 0012 0c-.38 0-.762.193-.965.58L.127 21.207zM12 3.246l9.281 17.551H2.721L12 3.247zm-1.092 10.87c0 .598.49 1.083 1.092 1.083.603 0 1.091-.485 1.091-1.084V9.77c0-.6-.488-1.085-1.09-1.085-.603 0-1.093.485-1.093 1.085v4.345zM12 18.457c.603 0 1.091-.487 1.091-1.087s-.488-1.086-1.09-1.086a1.09 1.09 0 00-1.093 1.086c0 .6.49 1.087 1.092 1.087z" id="warning-1-24px_svg__a"/></defs><use fill="#737373" xlink:href="#warning-1-24px_svg__a" fill-rule="evenodd"/></svg>