<?xml version="1.0" encoding="UTF-8"?>
<svg width="24px" height="21px" viewBox="0 0 24 21" version="1.1" xmlns="http://www.w3.org/2000/svg" xmlns:xlink="http://www.w3.org/1999/xlink">
    <!-- Generator: Sketch 59.1 (86144) - https://sketch.com -->
    <title>warning-2-24px</title>
    <desc>Created with Sketch.</desc>
    <defs>
        <path d="M23.865,19.5 L12.865,0.5 C12.6720668,0.210960943 12.3475152,0.0373863525 12,0.0373863525 C11.6524848,0.0373863525 11.3279332,0.210960943 11.135,0.5 L0.135,19.5 C-0.0435414816,19.8092425 -0.0436392906,20.1902222 0.134743384,20.4995563 C0.313126058,20.8088904 0.6429176,20.999634 1,21 L23,21 C23.3570824,20.999634 23.6868739,20.8088904 23.8652566,20.4995563 C24.0436393,20.1902222 24.0435415,19.8092425 23.865,19.5 L23.865,19.5 Z M13.206,7 L12.733,13.6 L11.267,13.6 L10.821,7 L13.206,7 Z M12,18 C11.1897983,18 10.533,17.3432017 10.533,16.533 C10.533,15.7227983 11.1897983,15.066 12,15.066 C12.8102017,15.066 13.467,15.7227983 13.467,16.533 C13.467,17.3432017 12.8102017,18 12,18 Z" id="path-1"></path>
    </defs>
    <g id="Final" stroke="none" stroke-width="1" fill="none" fill-rule="evenodd">
        <g id="All-Nucleo-Icons" transform="translate(-608.000000, -5794.000000)">
            <g id="Solo/Nucleo/24px/warning-2" transform="translate(608.000000, 5792.000000)">
                <g id="t-warning" transform="translate(0.000000, 2.000000)">
                    <g id="Colour/Default-Colour">
                        <mask id="mask-2" fill="white">
                            <use xlink:href="#path-1"></use>
                        </mask>
                        <use id="Mask" fill="#000000" fill-rule="nonzero" xlink:href="#path-1"></use>
                        <g id="colour/neutral/chia" mask="url(#mask-2)" fill="#737373">
                            <g transform="translate(-20.000000, -22.000000)" id="Colour">
                                <rect x="0" y="0" width="64" height="64"></rect>
                            </g>
                        </g>
                    </g>
                </g>
            </g>
        </g>
    </g>
</svg>