<svg width="16" height="15" xmlns="http://www.w3.org/2000/svg" xmlns:xlink="http://www.w3.org/1999/xlink"><defs><path d="M.085 13.952C-.17 14.428.18 15 .729 15h14.543c.547 0 .898-.572.643-1.048L8.644.381A.723.723 0 008 0a.718.718 0 00-.644.38L.085 13.953zM8 2.404l5.899 11.01H2.1L8 2.404zm-.728 6.882c0 .394.327.713.728.713a.72.72 0 00.727-.713V6.428A.72.72 0 008 5.713a.722.722 0 00-.728.715v2.858zM8 12.143c.4 0 .727-.32.727-.715A.721.721 0 008 10.714a.722.722 0 00-.728.714c0 .395.327.715.728.715z" id="warning-1-16px_svg__a"/></defs><use fill="#737373" xlink:href="#warning-1-16px_svg__a" fill-rule="evenodd"/></svg>