<svg width="12" height="11" xmlns="http://www.w3.org/2000/svg" xmlns:xlink="http://www.w3.org/1999/xlink"><defs><path d="M.063 10.232c-.19.349.072.768.483.768h10.908c.41 0 .674-.42.482-.768L6.483.279A.544.544 0 006 0a.54.54 0 00-.482.28L.063 10.231zM6 1.762l4.425 8.074H1.576L6 1.763zM5.454 6.81c0 .288.246.522.546.522a.535.535 0 00.546-.522V4.714A.535.535 0 006 4.19c-.3 0-.546.234-.546.524V6.81zM6 8.905a.536.536 0 00.546-.525A.535.535 0 006 7.857c-.3 0-.546.234-.546.523 0 .29.246.525.546.525z" id="warning-1-12px_svg__a"/></defs><use fill="#737373" xlink:href="#warning-1-12px_svg__a" fill-rule="evenodd"/></svg>