<svg width="20" height="17" xmlns="http://www.w3.org/2000/svg" xmlns:xlink="http://www.w3.org/1999/xlink"><defs><path d="M19.888 15.784L10.721.375A.873.873 0 0010 0c-.29 0-.56.14-.72.375L.111 15.784a.792.792 0 000 .81.835.835 0 00.72.406h18.335a.838.838 0 00.722-.406.792.792 0 000-.81zM11.005 5.646L10.611 11H9.389l-.372-5.353h1.988zM10 14.567c-.675 0-1.223-.533-1.223-1.19 0-.657.548-1.19 1.223-1.19s1.223.533 1.223 1.19c0 .657-.548 1.19-1.223 1.19z" id="warning-2-20px_svg__a"/></defs><use fill="#737373" xlink:href="#warning-2-20px_svg__a" fill-rule="evenodd"/></svg>