<?xml version="1.0" encoding="UTF-8"?>
<svg width="12px" height="12px" viewBox="0 0 12 12" version="1.1" xmlns="http://www.w3.org/2000/svg" xmlns:xlink="http://www.w3.org/1999/xlink">
    <!-- Generator: Sketch 59.1 (86144) - https://sketch.com -->
    <title>zoom-search-12px</title>
    <desc>Created with Sketch.</desc>
    <defs>
        <path d="M11.7369779,10.3229779 L9.19697792,7.78297792 C10.6182844,5.63560017 10.1822119,2.76074542 8.18803973,1.13144476 C6.19386753,-0.497855909 3.28978803,-0.352009171 1.46888943,1.46888943 C-0.352009171,3.28978803 -0.497855909,6.19386753 1.13144476,8.18803973 C2.76074542,10.1822119 5.63560017,10.6182844 7.78297792,9.19697792 L10.3229779,11.7369779 C10.7153568,12.1159501 11.3390627,12.1105303 11.7247965,11.7247965 C12.1105303,11.3390627 12.1159501,10.7153568 11.7369779,10.3229779 Z M2.02997792,5.02997792 C2.02997792,3.37312367 3.37312367,2.02997792 5.02997792,2.02997792 C6.68683217,2.02997792 8.02997792,3.37312367 8.02997792,5.02997792 C8.02997792,6.68683217 6.68683217,8.02997792 5.02997792,8.02997792 C3.37312367,8.02997792 2.02997792,6.68683217 2.02997792,5.02997792 Z" id="path-1"></path>
    </defs>
    <g id="Final" stroke="none" stroke-width="1" fill="none" fill-rule="evenodd">
        <g id="All-Nucleo-Icons" transform="translate(-174.000000, -7060.000000)">
            <g id="Solo/Nucleo/12px/zoom-search" transform="translate(168.000000, 7054.000000)">
                <g id="zoom" transform="translate(6.000000, 6.000000)">
                    <g id="Colour/Default-Colour">
                        <mask id="mask-2" fill="white">
                            <use xlink:href="#path-1"></use>
                        </mask>
                        <use id="Mask" fill="#000000" fill-rule="nonzero" xlink:href="#path-1"></use>
                        <g id="colour/neutral/chia" mask="url(#mask-2)" fill="#737373">
                            <g transform="translate(-25.000000, -26.000000)" id="Colour">
                                <rect x="0" y="0" width="64" height="64"></rect>
                            </g>
                        </g>
                    </g>
                </g>
            </g>
        </g>
    </g>
</svg>