<?xml version="1.0" encoding="UTF-8"?>
<svg width="16px" height="17px" viewBox="0 0 16 17" version="1.1" xmlns="http://www.w3.org/2000/svg" xmlns:xlink="http://www.w3.org/1999/xlink">
    <!-- Generator: Sketch 59.1 (86144) - https://sketch.com -->
    <title>zoom-search-16px</title>
    <desc>Created with Sketch.</desc>
    <defs>
        <path d="M12.7,11.3 C13.6,10.1 14.1,8.7 14.1,7.1 C14.1,3.2 11,0 7.1,0 C3.2,0 0,3.2 0,7.1 C0,11 3.2,14.2 7.1,14.2 C8.7,14.2 10.2,13.7 11.3,12.8 L14.3,15.8 C14.5,16 14.8,16.1 15,16.1 C15.2,16.1 15.5,16 15.7,15.8 C16.1,15.4 16.1,14.8 15.7,14.4 L12.7,11.3 Z M7.1,12.1 C4.3,12.1 2,9.9 2,7.1 C2,4.3 4.3,2 7.1,2 C9.9,2 12.2,4.3 12.2,7.1 C12.2,9.9 9.9,12.1 7.1,12.1 Z" id="path-1"></path>
    </defs>
    <g id="Final" stroke="none" stroke-width="1" fill="none" fill-rule="evenodd">
        <g id="All-Nucleo-Icons" transform="translate(-319.000000, -7058.000000)">
            <g id="Solo/Nucleo/16px/zoom-search" transform="translate(315.000000, 7054.000000)">
                <g id="zoom" transform="translate(4.000000, 4.000000)">
                    <g id="Colour/Default-Colour">
                        <mask id="mask-2" fill="white">
                            <use xlink:href="#path-1"></use>
                        </mask>
                        <g id="Mask" fill-rule="nonzero"></g>
                        <g id="colour/neutral/chia" mask="url(#mask-2)" fill="#737373">
                            <g transform="translate(-24.000000, -24.000000)" id="Colour">
                                <rect x="0" y="0" width="64" height="64"></rect>
                            </g>
                        </g>
                    </g>
                </g>
            </g>
        </g>
    </g>
</svg>