<svg width="20" height="20" xmlns="http://www.w3.org/2000/svg" xmlns:xlink="http://www.w3.org/1999/xlink"><defs><path d="M15.875 14.037a8.47 8.47 0 001.75-5.217c0-4.845-3.875-8.82-8.75-8.82S0 3.975 0 8.82c0 4.845 4 8.82 8.875 8.82 2 0 3.875-.621 5.25-1.74l3.75 3.727c.25.249.625.373.875.373s.625-.124.875-.373c.5-.497.5-1.242 0-1.739l-3.75-3.85zm-7 .994c-3.5 0-6.375-2.733-6.375-6.211s2.875-6.336 6.375-6.336S15.25 5.342 15.25 8.82s-2.875 6.211-6.375 6.211z" id="zoom-search-20px_svg__a"/></defs><use fill="#737373" xlink:href="#zoom-search-20px_svg__a" fill-rule="evenodd"/></svg>